<svg xmlns="http://www.w3.org/2000/svg" direction="ltr" width="445" height="1320" viewBox="3250 0 445 1320" stroke-linecap="round" stroke-linejoin="round" style="background: rgb(252, 255, 254);" encoding="UTF-8&quot;"><defs><clipPath id="0a_S4kDIFojTZ0lL5H5lP"><path d="M3250,0L3695,0L3695,1320L3250,1320Z"/></clipPath><clipPath id="jesFX7lHSo9rvcyUBtfEg"><path d="M3250,0L3695,0L3695,1320L3250,1320Z"/></clipPath><clipPath id="u-r6s1g3o7yYQ9AqlteHZ"><path d="M3250,0L3695,0L3695,1320L3250,1320Z"/></clipPath><clipPath id="ya1kCtpu2NpZc95muYfIk"><path d="M3250,0L3695,0L3695,1320L3250,1320Z"/></clipPath><clipPath id="hzk41ARvpr3FDg0suqpxD"><path d="M3250,0L3695,0L3695,1320L3250,1320Z"/></clipPath><clipPath id="Comd3bpgzwWAUOMgMZTD7"><path d="M3250,0L3695,0L3695,1320L3250,1320Z"/></clipPath><clipPath id="bEof452Es9uCmdnQeosir"><path d="M3250,0L3695,0L3695,1320L3250,1320Z"/></clipPath><clipPath id="vxzSxg-o8u55xVLGYKSMh"><path d="M3250,0L3695,0L3695,1320L3250,1320Z"/></clipPath><clipPath id="KX9iJmq4sEjbY9Dz9TSKP"><path d="M3250,0L3695,0L3695,1320L3250,1320Z"/></clipPath><clipPath id="m9iy1eUWruBUZA9FrKLd2"><path d="M3250,0L3695,0L3695,1320L3250,1320Z"/></clipPath><clipPath id="UBWVIndhBgZ6G4A8I3dfl"><path d="M3250,0L3695,0L3695,1320L3250,1320Z"/></clipPath><clipPath id="mr8XMcsF0EH1NTdYLpnNA"><path d="M3250,0L3695,0L3695,1320L3250,1320Z"/></clipPath><clipPath id="8KLOvARj5kFaEuF-7Dtnl"><path d="M3250,0L3695,0L3695,1320L3250,1320Z"/></clipPath><clipPath id="_Xq7UXvNwSYRBWnoXxvlX"><path d="M3250,0L3695,0L3695,1320L3250,1320Z"/></clipPath><clipPath id="59DNHg6G90lk0rn0zEtE_"><path d="M3250,0L3695,0L3695,1320L3250,1320Z"/></clipPath><clipPath id="NWd5rWyzzgjEmv9Vmfkz0"><path d="M3250,0L3695,0L3695,1320L3250,1320Z"/></clipPath><clipPath id="OR3QzbXUq1Lw6h4BR0OK3"><path d="M3250,0L3695,0L3695,1320L3250,1320Z"/></clipPath><clipPath id="55HVSi7SsFo_22YvUqcxs"><path d="M3250,0L3695,0L3695,1320L3250,1320Z"/></clipPath></defs><g clip-path="url(#mr8XMcsF0EH1NTdYLpnNA)"><g transform="matrix(1, 0, 0, 1, 3415, 1140)" opacity="1"><g><rect width="120" height="120" rx="4" fill="white" stroke="black" stroke-width="2"/><text x="5" y="28" style="font-family: sans-serif; font-size: 10px; fill: #504758;" dominant-baseline="middle">Elb</text><clipPath id="clip-round-corners-nh60kw3l9"><rect x="0" y="0" width="64" height="64" rx="4" ry="4"/></clipPath><svg width="58" height="58" viewBox="0 0 64 64" version="1.1" xmlns="http://www.w3.org/2000/svg" xmlns:xlink="http://www.w3.org/1999/xlink" x="31" y="48" clip-path="url(#clip-round-corners-nh60kw3l9)">
    <title>Icon-Architecture/48/Arch_Elastic-Load-Balancing_48</title>
    <g id="Icon-Architecture/48/Arch_Elastic-Load-Balancing_48" stroke="none" stroke-width="1" fill="none" fill-rule="evenodd">
        <g id="Icon-Architecture-BG/48/Networking-Content-Delivery" fill="#8C4FFF">
            <rect id="Rectangle" x="0" y="0" width="64" height="64"/>
        </g>
        <path d="M23.5,42 C17.71,42 13,37.29 13,31.5 C13,25.71 17.71,21 23.5,21 C29.29,21 34,25.71 34,31.5 C34,37.29 29.29,42 23.5,42 M48,48 C48,49.654 46.654,51 45,51 C43.346,51 42,49.654 42,48 C42,46.346 43.346,45 45,45 C46.654,45 48,46.346 48,48 M45,13 C46.654,13 48,14.346 48,16 C48,17.654 46.654,19 45,19 C43.346,19 42,17.654 42,16 C42,14.346 43.346,13 45,13 M48,29 C49.654,29 51,30.346 51,32 C51,33.654 49.654,35 48,35 C46.346,35 45,33.654 45,32 C45,30.346 46.346,29 48,29 M35.901,33 L43.102,33 C43.565,35.279 45.586,37 48,37 C50.757,37 53,34.757 53,32 C53,29.243 50.757,27 48,27 C45.586,27 43.565,28.721 43.102,31 L35.975,31 C35.916,29.541 35.614,28.146 35.096,26.856 L42.799,20.467 C43.466,20.797 44.206,21 45,21 C47.757,21 50,18.757 50,16 C50,13.243 47.757,11 45,11 C42.243,11 40,13.243 40,16 C40,17.224 40.459,18.331 41.191,19.201 L34.172,25.024 C31.977,21.42 28.021,19 23.5,19 C16.607,19 11,24.607 11,31.5 C11,38.393 16.607,44 23.5,44 C27.743,44 31.493,41.871 33.754,38.629 L41.191,44.799 C40.459,45.669 40,46.776 40,48 C40,50.757 42.243,53 45,53 C47.757,53 50,50.757 50,48 C50,45.243 47.757,43 45,43 C44.206,43 43.466,43.203 42.799,43.533 L34.77,36.873 C35.344,35.673 35.736,34.373 35.901,33" id="Elastic-Load-Balancing_Icon_48_Squid" fill="#FFFFFF"/>
    </g>
</svg><rect x="91" y="5" width="24" height="16" rx="8" ry="8" fill="#37bb65"/><text x="103" y="14" style="font-family: sans-serif; font-size: 12px; fill: black; text-anchor: middle; dominant-baseline: middle;">2</text><text x="5" y="14" style="font-family: sans-serif; font-size: 14px; fill: black;" dominant-baseline="middle">web</text></g></g></g><g clip-path="url(#0a_S4kDIFojTZ0lL5H5lP)"><g transform="matrix(1, 0, 0, 1, 0, 0)" opacity="1"><g><defs><mask id="shape_module.elb.aws_elb.web-module.elb.aws_elb.web:1712326221810_clip"><rect x="3375" y="1100" width="200" height="200" fill="white"/><path d="M NaN NaN L 3475 1200 L NaN NaN" fill="none" stroke="none"/></mask></defs><g mask="url(#shape_module.elb.aws_elb.web-module.elb.aws_elb.web:1712326221810_clip)"><rect x="-100" y="-100" width="200" height="200" fill="transparent" stroke="none"/><path d="M3475,1200L3475,1200" fill="none" stroke="#1d1d1d" stroke-width="2" stroke-dasharray="none" stroke-dashoffset="none"/></g><path d="M NaN NaN L 3475 1200 L NaN NaN" fill="none" stroke="#1d1d1d" stroke-width="2"/></g></g></g><g clip-path="url(#8KLOvARj5kFaEuF-7Dtnl)"><g transform="matrix(1, 0, 0, 1, 3330, 540)" opacity="1"><g><rect width="120" height="120" rx="4" fill="white" stroke="black" stroke-width="2"/><text x="5" y="28" style="font-family: sans-serif; font-size: 10px; fill: #504758;" dominant-baseline="middle">Instance</text><clipPath id="clip-round-corners-y5jzng4b9"><rect x="0" y="0" width="64" height="64" rx="4" ry="4"/></clipPath><svg width="58" height="58" viewBox="0 0 64 64" version="1.1" xmlns="http://www.w3.org/2000/svg" xmlns:xlink="http://www.w3.org/1999/xlink" x="31" y="48" clip-path="url(#clip-round-corners-y5jzng4b9)">
    <title>Icon-Architecture/48/Arch_Amazon-EC2_48</title>
    <g id="Icon-Architecture/48/Arch_Amazon-EC2_48" stroke="none" stroke-width="1" fill="none" fill-rule="evenodd">
        <g id="Icon-Architecture-BG/48/Compute" fill="#ED7100">
            <rect id="Rectangle" x="0" y="0" width="64" height="64"/>
        </g>
        <path d="M22,41 L41,41 L41,23 L22,23 L22,41 Z M43,23 L46,23 L46,25 L43,25 L43,27 L46,27 L46,29 L43,29 L43,31 L46,31 L46,33 L43,33 L43,36 L46,36 L46,38 L43,38 L43,40 L46,40 L46,42 L42.863,42 C42.608,42.587 42.023,43 41.344,43 L41,43 L41,46 L39,46 L39,43 L37,43 L37,46 L35,46 L35,43 L33,43 L33,46 L31,46 L31,43 L29,43 L29,46 L27,46 L27,43 L24,43 L24,46 L22,46 L22,43 L21.656,43 C20.977,43 20.392,42.587 20.137,42 L18,42 L18,40 L20,40 L20,38 L18,38 L18,36 L20,36 L20,33 L18,33 L18,31 L20,31 L20,29 L18,29 L18,27 L20,27 L20,25 L18,25 L18,23 L20,23 L20,22.656 C20,21.743 20.743,21 21.656,21 L22,21 L22,18 L24,18 L24,21 L27,21 L27,18 L29,18 L29,21 L31,21 L31,18 L33,18 L33,21 L35,21 L35,18 L37,18 L37,21 L39,21 L39,18 L41,18 L41,21 L41.344,21 C42.257,21 43,21.743 43,22.656 L43,23 Z M32,52 L12,52 L12,32 L16,32 L16,30 L11.843,30 C10.826,30 10,30.827 10,31.843 L10,52.157 C10,53.173 10.826,54 11.843,54 L32.157,54 C33.174,54 34,53.173 34,52.157 L34,48 L32,48 L32,52 Z M54,11.843 L54,32.157 C54,33.173 53.174,34 52.157,34 L48,34 L48,32 L52,32 L52,12 L32,12 L32,16 L30,16 L30,11.843 C30,10.827 30.826,10 31.843,10 L52.157,10 C53.174,10 54,10.827 54,11.843 L54,11.843 Z" id="Amazon-EC2_Icon_48_Squid" fill="#FFFFFF"/>
    </g>
</svg><rect x="91" y="5" width="24" height="16" rx="8" ry="8" fill="#37bb65"/><text x="103" y="14" style="font-family: sans-serif; font-size: 12px; fill: black; text-anchor: middle; dominant-baseline: middle;">1</text><text x="5" y="14" style="font-family: sans-serif; font-size: 14px; fill: black;" dominant-baseline="middle">web</text></g></g></g><g clip-path="url(#jesFX7lHSo9rvcyUBtfEg)"><g transform="matrix(1, 0, 0, 1, 0, 0)" opacity="1"><g><defs><mask id="shape_module.elb.aws_instance.web-module.elb.aws_elb.web:1712326221810_clip"><rect x="3298.5" y="560" width="266.4570726013676" height="669.1087477743581" fill="white"/><path d="M 3467.1985699410457 1123.5431669712239 L 3464.9570726013676 1129.108747774358 L 3461.2578869088775 1124.3847637341146" fill="none" stroke="none"/></mask></defs><g mask="url(#shape_module.elb.aws_instance.web-module.elb.aws_elb.web:1712326221810_clip)"><rect x="-100" y="-100" width="266.4570726013676" height="669.1087477743581" fill="transparent" stroke="none"/><path d="M3398.5,660L3464.9570726013676,1129.108747774358" fill="none" stroke="#1d1d1d" stroke-width="2" stroke-dasharray="none" stroke-dashoffset="none"/></g><path d="M 3467.1985699410457 1123.5431669712239 L 3464.9570726013676 1129.108747774358 L 3461.2578869088775 1124.3847637341146" fill="none" stroke="#1d1d1d" stroke-width="2"/></g></g></g><g clip-path="url(#_Xq7UXvNwSYRBWnoXxvlX)"><g transform="matrix(1, 0, 0, 1, 3510, 540)" opacity="1"><g><rect width="120" height="120" rx="4" fill="white" stroke="black" stroke-width="2"/><text x="5" y="28" style="font-family: sans-serif; font-size: 10px; fill: #504758;" dominant-baseline="middle">Internet Gateway</text><clipPath id="clip-round-corners-m6159hbs3"><rect x="0" y="0" width="64" height="64" rx="4" ry="4"/></clipPath><svg width="58" height="58" viewBox="0 0 64 64" version="1.1" xmlns="http://www.w3.org/2000/svg" xmlns:xlink="http://www.w3.org/1999/xlink" x="31" y="48" clip-path="url(#clip-round-corners-m6159hbs3)">
    <title>Icon-Architecture/48/Arch_Amazon-Virtual-Private-Cloud_48</title>
    <g id="Icon-Architecture/48/Arch_Amazon-Virtual-Private-Cloud_48" stroke="none" stroke-width="1" fill="none" fill-rule="evenodd">
        <g id="Icon-Architecture-BG/48/Networking-Content-Delivery" fill="#8C4FFF">
            <rect id="Rectangle" x="0" y="0" width="64" height="64"/>
        </g>
        <path d="M48,33.9772867 L44.499,32.5082867 L44.499,46.8782867 C47.906,46.1472867 47.998,42.1812867 48,41.9952867 L48,33.9772867 Z M42.499,46.9232867 L42.499,32.5082867 L39,33.9772867 L39,42.0042867 C39.008,42.4662867 39.183,46.3392867 42.499,46.9232867 L42.499,46.9232867 Z M43.112,30.0822867 C43.358,29.9772867 43.638,29.9782867 43.886,30.0812867 L49.387,32.3902867 C49.759,32.5462867 50,32.9092867 50,33.3122867 L50,42.0042867 C49.978,44.4312867 48.562,49.0042867 43.37,49.0042867 C38.393,49.0042867 37.026,44.4322867 37,42.0152867 L37,33.3122867 C37,32.9092867 37.241,32.5462867 37.613,32.3902867 L43.112,30.0822867 Z M52,30.7922867 L43.492,27.0922867 L34.9998912,30.6682867 L34.9998912,41.0252867 C34.999,41.0902867 34.963,46.0092867 37.807,48.8942867 C39.187,50.2942867 41.059,51.0042867 43.37,51.0042867 C51.808,51.0042867 51.996,41.4252867 52,41.0182867 L52,30.7922867 Z M54,30.1362867 L54,41.0252867 C53.973,45.1732867 51.716,53.0042867 43.37,53.0042867 C40.498,53.0042867 38.145,52.0902867 36.373,50.2882867 C32.941,46.7972867 32.996,41.2432867 33,41.0082867 L33,30.0042867 C33,29.6022867 33.241,29.2382867 33.612,29.0822867 L43.111,25.0822867 C43.363,24.9762867 43.647,24.9782867 43.897,25.0872867 L53.398,29.2192867 C53.764,29.3782867 54,29.7382867 54,30.1362867 L54,30.1362867 Z M19,38.0042867 L30,38.0042867 L30,40.0042867 L19,40.0042867 C14.216,40.0042867 10.271,36.4832867 10.02,31.9882867 C10.002,31.8132867 10,31.5992867 10,31.3852867 C10,26.0862867 13.654,24.0382867 15.919,23.2782867 C15.902,23.0632867 15.891,22.8432867 15.891,22.6262867 C15.891,18.0392867 18.658,13.7012867 22.621,12.0792867 C27.58,10.0492867 33.235,10.9372867 36.695,14.2852867 C37.718,15.2822867 38.604,16.5962867 39.343,18.2062867 C40.299,17.4222867 41.392,17.0042867 42.523,17.0042867 C45.234,17.0042867 48.281,19.2962867 48.9,23.0622867 C51.069,23.3442867 52.936,24.6392867 53.896,26.5822867 L52.104,27.4692867 C51.34,25.9252867 49.806,25.0042867 48,25.0042867 C47.471,25.0042867 47.033,24.5912867 47.002,24.0632867 C46.807,20.7622867 44.275,19.0042867 42.523,19.0042867 C41.55,19.0042867 40.582,19.5742867 39.797,20.6082867 C39.575,20.8992867 39.215,21.0482867 38.852,20.9932867 C38.49,20.9382867 38.187,20.6912867 38.062,20.3482867 C37.327,18.3462867 36.398,16.7892867 35.302,15.7202867 C32.406,12.9172867 27.615,12.1962867 23.379,13.9302867 C19.775,15.4052867 17.891,19.4212867 17.891,22.6262867 C17.891,23.0262867 17.947,23.5032867 17.993,23.8862867 C18.053,24.3862867 17.73,24.8532867 17.24,24.9752867 C15.283,25.4592867 12,26.9372867 12,31.3852867 C12,31.5352867 11.998,31.6852867 12.013,31.8362867 C12.209,35.3122867 15.276,38.0042867 19,38.0042867 L19,38.0042867 Z" id="Amazon-Virtual-Private-Cloud_Icon_48_Squid" fill="#FFFFFF"/>
    </g>
</svg><rect x="91" y="5" width="24" height="16" rx="8" ry="8" fill="#37bb65"/><text x="103" y="14" style="font-family: sans-serif; font-size: 12px; fill: black; text-anchor: middle; dominant-baseline: middle;">3</text><text x="5" y="14" style="font-family: sans-serif; font-size: 14px; fill: black;" dominant-baseline="middle">gw</text></g></g></g><g clip-path="url(#u-r6s1g3o7yYQ9AqlteHZ)"><g transform="matrix(1, 0, 0, 1, 0, 0)" opacity="1"><g><defs><mask id="shape_module.elb.aws_internet_gateway.gw-module.elb.aws_internet_gateway.gw:1712326221810_clip"><rect x="3470" y="500" width="200" height="200" fill="white"/><path d="M NaN NaN L 3570 600 L NaN NaN" fill="none" stroke="none"/></mask></defs><g mask="url(#shape_module.elb.aws_internet_gateway.gw-module.elb.aws_internet_gateway.gw:1712326221810_clip)"><rect x="-100" y="-100" width="200" height="200" fill="transparent" stroke="none"/><path d="M3570,600L3570,600" fill="none" stroke="#1d1d1d" stroke-width="2" stroke-dasharray="none" stroke-dashoffset="none"/></g><path d="M NaN NaN L 3570 600 L NaN NaN" fill="none" stroke="#1d1d1d" stroke-width="2"/></g></g></g><g clip-path="url(#59DNHg6G90lk0rn0zEtE_)"><g transform="matrix(1, 0, 0, 1, 3510, 840)" opacity="1"><g><rect width="120" height="120" rx="4" fill="white" stroke="black" stroke-width="2"/><text x="5" y="28" style="font-family: sans-serif; font-size: 10px; fill: #504758;" dominant-baseline="middle">Security Group</text><clipPath id="clip-round-corners-65q6k3z8w"><rect x="0" y="0" width="64" height="64" rx="4" ry="4"/></clipPath><svg width="58" height="58" viewBox="0 0 64 64" version="1.1" xmlns="http://www.w3.org/2000/svg" xmlns:xlink="http://www.w3.org/1999/xlink" x="31" y="48" clip-path="url(#clip-round-corners-65q6k3z8w)">
    <title>Icon-Architecture/48/Arch_Amazon-Virtual-Private-Cloud_48</title>
    <g id="Icon-Architecture/48/Arch_Amazon-Virtual-Private-Cloud_48" stroke="none" stroke-width="1" fill="none" fill-rule="evenodd">
        <g id="Icon-Architecture-BG/48/Networking-Content-Delivery" fill="#8C4FFF">
            <rect id="Rectangle" x="0" y="0" width="64" height="64"/>
        </g>
        <path d="M48,33.9772867 L44.499,32.5082867 L44.499,46.8782867 C47.906,46.1472867 47.998,42.1812867 48,41.9952867 L48,33.9772867 Z M42.499,46.9232867 L42.499,32.5082867 L39,33.9772867 L39,42.0042867 C39.008,42.4662867 39.183,46.3392867 42.499,46.9232867 L42.499,46.9232867 Z M43.112,30.0822867 C43.358,29.9772867 43.638,29.9782867 43.886,30.0812867 L49.387,32.3902867 C49.759,32.5462867 50,32.9092867 50,33.3122867 L50,42.0042867 C49.978,44.4312867 48.562,49.0042867 43.37,49.0042867 C38.393,49.0042867 37.026,44.4322867 37,42.0152867 L37,33.3122867 C37,32.9092867 37.241,32.5462867 37.613,32.3902867 L43.112,30.0822867 Z M52,30.7922867 L43.492,27.0922867 L34.9998912,30.6682867 L34.9998912,41.0252867 C34.999,41.0902867 34.963,46.0092867 37.807,48.8942867 C39.187,50.2942867 41.059,51.0042867 43.37,51.0042867 C51.808,51.0042867 51.996,41.4252867 52,41.0182867 L52,30.7922867 Z M54,30.1362867 L54,41.0252867 C53.973,45.1732867 51.716,53.0042867 43.37,53.0042867 C40.498,53.0042867 38.145,52.0902867 36.373,50.2882867 C32.941,46.7972867 32.996,41.2432867 33,41.0082867 L33,30.0042867 C33,29.6022867 33.241,29.2382867 33.612,29.0822867 L43.111,25.0822867 C43.363,24.9762867 43.647,24.9782867 43.897,25.0872867 L53.398,29.2192867 C53.764,29.3782867 54,29.7382867 54,30.1362867 L54,30.1362867 Z M19,38.0042867 L30,38.0042867 L30,40.0042867 L19,40.0042867 C14.216,40.0042867 10.271,36.4832867 10.02,31.9882867 C10.002,31.8132867 10,31.5992867 10,31.3852867 C10,26.0862867 13.654,24.0382867 15.919,23.2782867 C15.902,23.0632867 15.891,22.8432867 15.891,22.6262867 C15.891,18.0392867 18.658,13.7012867 22.621,12.0792867 C27.58,10.0492867 33.235,10.9372867 36.695,14.2852867 C37.718,15.2822867 38.604,16.5962867 39.343,18.2062867 C40.299,17.4222867 41.392,17.0042867 42.523,17.0042867 C45.234,17.0042867 48.281,19.2962867 48.9,23.0622867 C51.069,23.3442867 52.936,24.6392867 53.896,26.5822867 L52.104,27.4692867 C51.34,25.9252867 49.806,25.0042867 48,25.0042867 C47.471,25.0042867 47.033,24.5912867 47.002,24.0632867 C46.807,20.7622867 44.275,19.0042867 42.523,19.0042867 C41.55,19.0042867 40.582,19.5742867 39.797,20.6082867 C39.575,20.8992867 39.215,21.0482867 38.852,20.9932867 C38.49,20.9382867 38.187,20.6912867 38.062,20.3482867 C37.327,18.3462867 36.398,16.7892867 35.302,15.7202867 C32.406,12.9172867 27.615,12.1962867 23.379,13.9302867 C19.775,15.4052867 17.891,19.4212867 17.891,22.6262867 C17.891,23.0262867 17.947,23.5032867 17.993,23.8862867 C18.053,24.3862867 17.73,24.8532867 17.24,24.9752867 C15.283,25.4592867 12,26.9372867 12,31.3852867 C12,31.5352867 11.998,31.6852867 12.013,31.8362867 C12.209,35.3122867 15.276,38.0042867 19,38.0042867 L19,38.0042867 Z" id="Amazon-Virtual-Private-Cloud_Icon_48_Squid" fill="#FFFFFF"/>
    </g>
</svg><rect x="91" y="5" width="24" height="16" rx="8" ry="8" fill="#37bb65"/><text x="103" y="14" style="font-family: sans-serif; font-size: 12px; fill: black; text-anchor: middle; dominant-baseline: middle;">1</text><text x="5" y="14" style="font-family: sans-serif; font-size: 14px; fill: black;" dominant-baseline="middle">elb</text></g></g></g><g clip-path="url(#ya1kCtpu2NpZc95muYfIk)"><g transform="matrix(1, 0, 0, 1, 0, 0)" opacity="1"><g><defs><mask id="shape_module.elb.aws_security_group.elb-module.elb.aws_elb.web:1712326221810_clip"><rect x="3397.320808751638" y="860" width="253.6791912483618" height="369.5132355211417" fill="white"/><path d="M 3501.7495107404334 1125.4651991213 L 3497.320808751638 1129.5132355211417 L 3496.029457388329 1123.6538488931337" fill="none" stroke="none"/></mask></defs><g mask="url(#shape_module.elb.aws_security_group.elb-module.elb.aws_elb.web:1712326221810_clip)"><rect x="-100" y="-100" width="253.6791912483618" height="369.5132355211417" fill="transparent" stroke="none"/><path d="M3551,960L3497.320808751638,1129.5132355211417" fill="none" stroke="#1d1d1d" stroke-width="2" stroke-dasharray="none" stroke-dashoffset="none"/></g><path d="M 3501.7495107404334 1125.4651991213 L 3497.320808751638 1129.5132355211417 L 3496.029457388329 1123.6538488931337" fill="none" stroke="#1d1d1d" stroke-width="2"/></g></g></g><g clip-path="url(#hzk41ARvpr3FDg0suqpxD)"><g transform="matrix(1, 0, 0, 1, 0, 0)" opacity="1"><g><defs><mask id="shape_module.elb.aws_internet_gateway.gw-module.elb.aws_security_group.elb:1712326221810_clip"><rect x="3470" y="560" width="200" height="369" fill="white"/><path d="M 3573 823.8038475772934 L 3570 829 L 3567 823.8038475772934" fill="none" stroke="none"/></mask></defs><g mask="url(#shape_module.elb.aws_internet_gateway.gw-module.elb.aws_security_group.elb:1712326221810_clip)"><rect x="-100" y="-100" width="200" height="369" fill="transparent" stroke="none"/><path d="M3570,660L3570,829" fill="none" stroke="#1d1d1d" stroke-width="2" stroke-dasharray="none" stroke-dashoffset="none"/></g><path d="M 3573 823.8038475772934 L 3570 829 L 3567 823.8038475772934" fill="none" stroke="#1d1d1d" stroke-width="2"/></g></g></g><g clip-path="url(#NWd5rWyzzgjEmv9Vmfkz0)"><g transform="matrix(1, 0, 0, 1, 3320, 300)" opacity="1"><g><rect width="120" height="120" rx="4" fill="white" stroke="black" stroke-width="2"/><text x="5" y="28" style="font-family: sans-serif; font-size: 10px; fill: #504758;" dominant-baseline="middle">Security Group</text><clipPath id="clip-round-corners-o9uurgita"><rect x="0" y="0" width="64" height="64" rx="4" ry="4"/></clipPath><svg width="58" height="58" viewBox="0 0 64 64" version="1.1" xmlns="http://www.w3.org/2000/svg" xmlns:xlink="http://www.w3.org/1999/xlink" x="31" y="48" clip-path="url(#clip-round-corners-o9uurgita)">
    <title>Icon-Architecture/48/Arch_Amazon-Virtual-Private-Cloud_48</title>
    <g id="Icon-Architecture/48/Arch_Amazon-Virtual-Private-Cloud_48" stroke="none" stroke-width="1" fill="none" fill-rule="evenodd">
        <g id="Icon-Architecture-BG/48/Networking-Content-Delivery" fill="#8C4FFF">
            <rect id="Rectangle" x="0" y="0" width="64" height="64"/>
        </g>
        <path d="M48,33.9772867 L44.499,32.5082867 L44.499,46.8782867 C47.906,46.1472867 47.998,42.1812867 48,41.9952867 L48,33.9772867 Z M42.499,46.9232867 L42.499,32.5082867 L39,33.9772867 L39,42.0042867 C39.008,42.4662867 39.183,46.3392867 42.499,46.9232867 L42.499,46.9232867 Z M43.112,30.0822867 C43.358,29.9772867 43.638,29.9782867 43.886,30.0812867 L49.387,32.3902867 C49.759,32.5462867 50,32.9092867 50,33.3122867 L50,42.0042867 C49.978,44.4312867 48.562,49.0042867 43.37,49.0042867 C38.393,49.0042867 37.026,44.4322867 37,42.0152867 L37,33.3122867 C37,32.9092867 37.241,32.5462867 37.613,32.3902867 L43.112,30.0822867 Z M52,30.7922867 L43.492,27.0922867 L34.9998912,30.6682867 L34.9998912,41.0252867 C34.999,41.0902867 34.963,46.0092867 37.807,48.8942867 C39.187,50.2942867 41.059,51.0042867 43.37,51.0042867 C51.808,51.0042867 51.996,41.4252867 52,41.0182867 L52,30.7922867 Z M54,30.1362867 L54,41.0252867 C53.973,45.1732867 51.716,53.0042867 43.37,53.0042867 C40.498,53.0042867 38.145,52.0902867 36.373,50.2882867 C32.941,46.7972867 32.996,41.2432867 33,41.0082867 L33,30.0042867 C33,29.6022867 33.241,29.2382867 33.612,29.0822867 L43.111,25.0822867 C43.363,24.9762867 43.647,24.9782867 43.897,25.0872867 L53.398,29.2192867 C53.764,29.3782867 54,29.7382867 54,30.1362867 L54,30.1362867 Z M19,38.0042867 L30,38.0042867 L30,40.0042867 L19,40.0042867 C14.216,40.0042867 10.271,36.4832867 10.02,31.9882867 C10.002,31.8132867 10,31.5992867 10,31.3852867 C10,26.0862867 13.654,24.0382867 15.919,23.2782867 C15.902,23.0632867 15.891,22.8432867 15.891,22.6262867 C15.891,18.0392867 18.658,13.7012867 22.621,12.0792867 C27.58,10.0492867 33.235,10.9372867 36.695,14.2852867 C37.718,15.2822867 38.604,16.5962867 39.343,18.2062867 C40.299,17.4222867 41.392,17.0042867 42.523,17.0042867 C45.234,17.0042867 48.281,19.2962867 48.9,23.0622867 C51.069,23.3442867 52.936,24.6392867 53.896,26.5822867 L52.104,27.4692867 C51.34,25.9252867 49.806,25.0042867 48,25.0042867 C47.471,25.0042867 47.033,24.5912867 47.002,24.0632867 C46.807,20.7622867 44.275,19.0042867 42.523,19.0042867 C41.55,19.0042867 40.582,19.5742867 39.797,20.6082867 C39.575,20.8992867 39.215,21.0482867 38.852,20.9932867 C38.49,20.9382867 38.187,20.6912867 38.062,20.3482867 C37.327,18.3462867 36.398,16.7892867 35.302,15.7202867 C32.406,12.9172867 27.615,12.1962867 23.379,13.9302867 C19.775,15.4052867 17.891,19.4212867 17.891,22.6262867 C17.891,23.0262867 17.947,23.5032867 17.993,23.8862867 C18.053,24.3862867 17.73,24.8532867 17.24,24.9752867 C15.283,25.4592867 12,26.9372867 12,31.3852867 C12,31.5352867 11.998,31.6852867 12.013,31.8362867 C12.209,35.3122867 15.276,38.0042867 19,38.0042867 L19,38.0042867 Z" id="Amazon-Virtual-Private-Cloud_Icon_48_Squid" fill="#FFFFFF"/>
    </g>
</svg><rect x="91" y="5" width="24" height="16" rx="8" ry="8" fill="#37bb65"/><text x="103" y="14" style="font-family: sans-serif; font-size: 12px; fill: black; text-anchor: middle; dominant-baseline: middle;">1</text><text x="5" y="14" style="font-family: sans-serif; font-size: 14px; fill: black;" dominant-baseline="middle">default</text></g></g></g><g clip-path="url(#Comd3bpgzwWAUOMgMZTD7)"><g transform="matrix(1, 0, 0, 1, 0, 0)" opacity="1"><g><defs><mask id="shape_module.elb.aws_security_group.default-module.elb.aws_instance.web:1712326221810_clip"><rect x="3282.5" y="320" width="204.5420640081661" height="309.0095361959841" fill="white"/><path d="M 3389.8231445716783 523.6929968234925 L 3387.042064008166 529.0095361959841 L 3383.8283461331243 523.9427800917655" fill="none" stroke="none"/></mask></defs><g mask="url(#shape_module.elb.aws_security_group.default-module.elb.aws_instance.web:1712326221810_clip)"><rect x="-100" y="-100" width="204.5420640081661" height="309.0095361959841" fill="transparent" stroke="none"/><path d="M3382.5,420L3387.042064008166,529.0095361959841" fill="none" stroke="#1d1d1d" stroke-width="2" stroke-dasharray="none" stroke-dashoffset="none"/></g><path d="M 3389.8231445716783 523.6929968234925 L 3387.042064008166 529.0095361959841 L 3383.8283461331243 523.9427800917655" fill="none" stroke="#1d1d1d" stroke-width="2"/></g></g></g><g clip-path="url(#OR3QzbXUq1Lw6h4BR0OK3)"><g transform="matrix(1, 0, 0, 1, 3510, 300)" opacity="1"><g><rect width="120" height="120" rx="4" fill="white" stroke="black" stroke-width="2"/><text x="5" y="28" style="font-family: sans-serif; font-size: 10px; fill: #504758;" dominant-baseline="middle">Subnet</text><clipPath id="clip-round-corners-2ex6cn3qw"><rect x="0" y="0" width="64" height="64" rx="4" ry="4"/></clipPath><svg width="58" height="58" viewBox="0 0 64 64" version="1.1" xmlns="http://www.w3.org/2000/svg" xmlns:xlink="http://www.w3.org/1999/xlink" x="31" y="48" clip-path="url(#clip-round-corners-2ex6cn3qw)">
    <title>Icon-Architecture/48/Arch_Amazon-Virtual-Private-Cloud_48</title>
    <g id="Icon-Architecture/48/Arch_Amazon-Virtual-Private-Cloud_48" stroke="none" stroke-width="1" fill="none" fill-rule="evenodd">
        <g id="Icon-Architecture-BG/48/Networking-Content-Delivery" fill="#8C4FFF">
            <rect id="Rectangle" x="0" y="0" width="64" height="64"/>
        </g>
        <path d="M48,33.9772867 L44.499,32.5082867 L44.499,46.8782867 C47.906,46.1472867 47.998,42.1812867 48,41.9952867 L48,33.9772867 Z M42.499,46.9232867 L42.499,32.5082867 L39,33.9772867 L39,42.0042867 C39.008,42.4662867 39.183,46.3392867 42.499,46.9232867 L42.499,46.9232867 Z M43.112,30.0822867 C43.358,29.9772867 43.638,29.9782867 43.886,30.0812867 L49.387,32.3902867 C49.759,32.5462867 50,32.9092867 50,33.3122867 L50,42.0042867 C49.978,44.4312867 48.562,49.0042867 43.37,49.0042867 C38.393,49.0042867 37.026,44.4322867 37,42.0152867 L37,33.3122867 C37,32.9092867 37.241,32.5462867 37.613,32.3902867 L43.112,30.0822867 Z M52,30.7922867 L43.492,27.0922867 L34.9998912,30.6682867 L34.9998912,41.0252867 C34.999,41.0902867 34.963,46.0092867 37.807,48.8942867 C39.187,50.2942867 41.059,51.0042867 43.37,51.0042867 C51.808,51.0042867 51.996,41.4252867 52,41.0182867 L52,30.7922867 Z M54,30.1362867 L54,41.0252867 C53.973,45.1732867 51.716,53.0042867 43.37,53.0042867 C40.498,53.0042867 38.145,52.0902867 36.373,50.2882867 C32.941,46.7972867 32.996,41.2432867 33,41.0082867 L33,30.0042867 C33,29.6022867 33.241,29.2382867 33.612,29.0822867 L43.111,25.0822867 C43.363,24.9762867 43.647,24.9782867 43.897,25.0872867 L53.398,29.2192867 C53.764,29.3782867 54,29.7382867 54,30.1362867 L54,30.1362867 Z M19,38.0042867 L30,38.0042867 L30,40.0042867 L19,40.0042867 C14.216,40.0042867 10.271,36.4832867 10.02,31.9882867 C10.002,31.8132867 10,31.5992867 10,31.3852867 C10,26.0862867 13.654,24.0382867 15.919,23.2782867 C15.902,23.0632867 15.891,22.8432867 15.891,22.6262867 C15.891,18.0392867 18.658,13.7012867 22.621,12.0792867 C27.58,10.0492867 33.235,10.9372867 36.695,14.2852867 C37.718,15.2822867 38.604,16.5962867 39.343,18.2062867 C40.299,17.4222867 41.392,17.0042867 42.523,17.0042867 C45.234,17.0042867 48.281,19.2962867 48.9,23.0622867 C51.069,23.3442867 52.936,24.6392867 53.896,26.5822867 L52.104,27.4692867 C51.34,25.9252867 49.806,25.0042867 48,25.0042867 C47.471,25.0042867 47.033,24.5912867 47.002,24.0632867 C46.807,20.7622867 44.275,19.0042867 42.523,19.0042867 C41.55,19.0042867 40.582,19.5742867 39.797,20.6082867 C39.575,20.8992867 39.215,21.0482867 38.852,20.9932867 C38.49,20.9382867 38.187,20.6912867 38.062,20.3482867 C37.327,18.3462867 36.398,16.7892867 35.302,15.7202867 C32.406,12.9172867 27.615,12.1962867 23.379,13.9302867 C19.775,15.4052867 17.891,19.4212867 17.891,22.6262867 C17.891,23.0262867 17.947,23.5032867 17.993,23.8862867 C18.053,24.3862867 17.73,24.8532867 17.24,24.9752867 C15.283,25.4592867 12,26.9372867 12,31.3852867 C12,31.5352867 11.998,31.6852867 12.013,31.8362867 C12.209,35.3122867 15.276,38.0042867 19,38.0042867 L19,38.0042867 Z" id="Amazon-Virtual-Private-Cloud_Icon_48_Squid" fill="#FFFFFF"/>
    </g>
</svg><rect x="91" y="5" width="24" height="16" rx="8" ry="8" fill="#37bb65"/><text x="103" y="14" style="font-family: sans-serif; font-size: 12px; fill: black; text-anchor: middle; dominant-baseline: middle;">1</text><text x="5" y="14" style="font-family: sans-serif; font-size: 14px; fill: black;" dominant-baseline="middle">tf_test_s...</text></g></g></g><g clip-path="url(#bEof452Es9uCmdnQeosir)"><g transform="matrix(1, 0, 0, 1, 0, 0)" opacity="1"><g><defs><mask id="shape_module.elb.aws_subnet.tf_test_subnet-module.elb.aws_internet_gateway.gw:1712326221810_clip"><rect x="3470" y="320" width="200" height="309" fill="white"/><path d="M 3573 523.8038475772934 L 3570 529 L 3567 523.8038475772934" fill="none" stroke="none"/></mask></defs><g mask="url(#shape_module.elb.aws_subnet.tf_test_subnet-module.elb.aws_internet_gateway.gw:1712326221810_clip)"><rect x="-100" y="-100" width="200" height="309" fill="transparent" stroke="none"/><path d="M3570,420L3570,529" fill="none" stroke="#1d1d1d" stroke-width="2" stroke-dasharray="none" stroke-dashoffset="none"/></g><path d="M 3573 523.8038475772934 L 3570 529 L 3567 523.8038475772934" fill="none" stroke="#1d1d1d" stroke-width="2"/></g></g></g><g clip-path="url(#vxzSxg-o8u55xVLGYKSMh)"><g transform="matrix(1, 0, 0, 1, 0, 0)" opacity="1"><g><defs><mask id="shape_module.elb.aws_subnet.tf_test_subnet-module.elb.aws_instance.web:1712326221810_clip"><rect x="3341.6" y="320" width="283.4000000000001" height="311.20000000000005" fill="white"/><path d="M 3447.1176914536236 528.8430780618347 L 3441.6 531.2 L 3442.317691453624 525.2430780618348" fill="none" stroke="none"/></mask></defs><g mask="url(#shape_module.elb.aws_subnet.tf_test_subnet-module.elb.aws_instance.web:1712326221810_clip)"><rect x="-100" y="-100" width="283.4000000000001" height="311.20000000000005" fill="transparent" stroke="none"/><path d="M3525,420L3441.6,531.2" fill="none" stroke="#1d1d1d" stroke-width="2" stroke-dasharray="none" stroke-dashoffset="none"/></g><path d="M 3447.1176914536236 528.8430780618347 L 3441.6 531.2 L 3442.317691453624 525.2430780618348" fill="none" stroke="#1d1d1d" stroke-width="2"/></g></g></g><g clip-path="url(#55HVSi7SsFo_22YvUqcxs)"><g transform="matrix(1, 0, 0, 1, 3415, 60)" opacity="1"><g><rect width="120" height="120" rx="4" fill="white" stroke="black" stroke-width="2"/><text x="5" y="28" style="font-family: sans-serif; font-size: 10px; fill: #504758;" dominant-baseline="middle">Vpc</text><clipPath id="clip-round-corners-wl29atx02"><rect x="0" y="0" width="64" height="64" rx="4" ry="4"/></clipPath><svg width="58" height="58" viewBox="0 0 64 64" version="1.1" xmlns="http://www.w3.org/2000/svg" xmlns:xlink="http://www.w3.org/1999/xlink" x="31" y="48" clip-path="url(#clip-round-corners-wl29atx02)">
    <title>Icon-Architecture/48/Arch_Amazon-Virtual-Private-Cloud_48</title>
    <g id="Icon-Architecture/48/Arch_Amazon-Virtual-Private-Cloud_48" stroke="none" stroke-width="1" fill="none" fill-rule="evenodd">
        <g id="Icon-Architecture-BG/48/Networking-Content-Delivery" fill="#8C4FFF">
            <rect id="Rectangle" x="0" y="0" width="64" height="64"/>
        </g>
        <path d="M48,33.9772867 L44.499,32.5082867 L44.499,46.8782867 C47.906,46.1472867 47.998,42.1812867 48,41.9952867 L48,33.9772867 Z M42.499,46.9232867 L42.499,32.5082867 L39,33.9772867 L39,42.0042867 C39.008,42.4662867 39.183,46.3392867 42.499,46.9232867 L42.499,46.9232867 Z M43.112,30.0822867 C43.358,29.9772867 43.638,29.9782867 43.886,30.0812867 L49.387,32.3902867 C49.759,32.5462867 50,32.9092867 50,33.3122867 L50,42.0042867 C49.978,44.4312867 48.562,49.0042867 43.37,49.0042867 C38.393,49.0042867 37.026,44.4322867 37,42.0152867 L37,33.3122867 C37,32.9092867 37.241,32.5462867 37.613,32.3902867 L43.112,30.0822867 Z M52,30.7922867 L43.492,27.0922867 L34.9998912,30.6682867 L34.9998912,41.0252867 C34.999,41.0902867 34.963,46.0092867 37.807,48.8942867 C39.187,50.2942867 41.059,51.0042867 43.37,51.0042867 C51.808,51.0042867 51.996,41.4252867 52,41.0182867 L52,30.7922867 Z M54,30.1362867 L54,41.0252867 C53.973,45.1732867 51.716,53.0042867 43.37,53.0042867 C40.498,53.0042867 38.145,52.0902867 36.373,50.2882867 C32.941,46.7972867 32.996,41.2432867 33,41.0082867 L33,30.0042867 C33,29.6022867 33.241,29.2382867 33.612,29.0822867 L43.111,25.0822867 C43.363,24.9762867 43.647,24.9782867 43.897,25.0872867 L53.398,29.2192867 C53.764,29.3782867 54,29.7382867 54,30.1362867 L54,30.1362867 Z M19,38.0042867 L30,38.0042867 L30,40.0042867 L19,40.0042867 C14.216,40.0042867 10.271,36.4832867 10.02,31.9882867 C10.002,31.8132867 10,31.5992867 10,31.3852867 C10,26.0862867 13.654,24.0382867 15.919,23.2782867 C15.902,23.0632867 15.891,22.8432867 15.891,22.6262867 C15.891,18.0392867 18.658,13.7012867 22.621,12.0792867 C27.58,10.0492867 33.235,10.9372867 36.695,14.2852867 C37.718,15.2822867 38.604,16.5962867 39.343,18.2062867 C40.299,17.4222867 41.392,17.0042867 42.523,17.0042867 C45.234,17.0042867 48.281,19.2962867 48.9,23.0622867 C51.069,23.3442867 52.936,24.6392867 53.896,26.5822867 L52.104,27.4692867 C51.34,25.9252867 49.806,25.0042867 48,25.0042867 C47.471,25.0042867 47.033,24.5912867 47.002,24.0632867 C46.807,20.7622867 44.275,19.0042867 42.523,19.0042867 C41.55,19.0042867 40.582,19.5742867 39.797,20.6082867 C39.575,20.8992867 39.215,21.0482867 38.852,20.9932867 C38.49,20.9382867 38.187,20.6912867 38.062,20.3482867 C37.327,18.3462867 36.398,16.7892867 35.302,15.7202867 C32.406,12.9172867 27.615,12.1962867 23.379,13.9302867 C19.775,15.4052867 17.891,19.4212867 17.891,22.6262867 C17.891,23.0262867 17.947,23.5032867 17.993,23.8862867 C18.053,24.3862867 17.73,24.8532867 17.24,24.9752867 C15.283,25.4592867 12,26.9372867 12,31.3852867 C12,31.5352867 11.998,31.6852867 12.013,31.8362867 C12.209,35.3122867 15.276,38.0042867 19,38.0042867 L19,38.0042867 Z" id="Amazon-Virtual-Private-Cloud_Icon_48_Squid" fill="#FFFFFF"/>
    </g>
</svg><rect x="91" y="5" width="24" height="16" rx="8" ry="8" fill="#37bb65"/><text x="103" y="14" style="font-family: sans-serif; font-size: 12px; fill: black; text-anchor: middle; dominant-baseline: middle;">1</text><text x="5" y="14" style="font-family: sans-serif; font-size: 14px; fill: black;" dominant-baseline="middle">default</text></g></g></g><g clip-path="url(#KX9iJmq4sEjbY9Dz9TSKP)"><g transform="matrix(1, 0, 0, 1, 0, 0)" opacity="1"><g><defs><mask id="shape_module.elb.aws_vpc.default-module.elb.aws_internet_gateway.gw:1712326221810_clip"><rect x="3386.875" y="80" width="269.11434280880576" height="549.2093110339655" fill="white"/><path d="M 3557.923421591534 523.5295804715004 L 3555.9893428088058 529.2093110339655 L 3552.037591246424 524.6944843939698" fill="none" stroke="none"/></mask></defs><g mask="url(#shape_module.elb.aws_vpc.default-module.elb.aws_internet_gateway.gw:1712326221810_clip)"><rect x="-100" y="-100" width="269.11434280880576" height="549.2093110339655" fill="transparent" stroke="none"/><path d="M3486.875,180L3555.9893428088058,529.2093110339655" fill="none" stroke="#1d1d1d" stroke-width="2" stroke-dasharray="none" stroke-dashoffset="none"/></g><path d="M 3557.923421591534 523.5295804715004 L 3555.9893428088058 529.2093110339655 L 3552.037591246424 524.6944843939698" fill="none" stroke="#1d1d1d" stroke-width="2"/></g></g></g><g clip-path="url(#m9iy1eUWruBUZA9FrKLd2)"><g transform="matrix(1, 0, 0, 1, 0, 0)" opacity="1"><g><defs><mask id="shape_module.elb.aws_vpc.default-module.elb.aws_security_group.default:1712326221810_clip"><rect x="3307.798532961081" y="80" width="243.45146703891896" height="309.77212725621604" fill="white"/><path d="M 3412.50038865067 286.0448557240793 L 3407.798532961081 289.77212725621604 L 3406.921548972243 283.8365650180349" fill="none" stroke="none"/></mask></defs><g mask="url(#shape_module.elb.aws_vpc.default-module.elb.aws_security_group.default:1712326221810_clip)"><rect x="-100" y="-100" width="243.45146703891896" height="309.77212725621604" fill="transparent" stroke="none"/><path d="M3451.25,180L3407.798532961081,289.77212725621604" fill="none" stroke="#1d1d1d" stroke-width="2" stroke-dasharray="none" stroke-dashoffset="none"/></g><path d="M 3412.50038865067 286.0448557240793 L 3407.798532961081 289.77212725621604 L 3406.921548972243 283.8365650180349" fill="none" stroke="#1d1d1d" stroke-width="2"/></g></g></g><g clip-path="url(#UBWVIndhBgZ6G4A8I3dfl)"><g transform="matrix(1, 0, 0, 1, 0, 0)" opacity="1"><g><defs><mask id="shape_module.elb.aws_vpc.default-module.elb.aws_subnet.tf_test_subnet:1712326221810_clip"><rect x="3398.75" y="80" width="243.45146703891896" height="309.77212725621604" fill="white"/><path d="M 3543.078451027757 283.8365650180349 L 3542.201467038919 289.77212725621604 L 3537.49961134933 286.0448557240793" fill="none" stroke="none"/></mask></defs><g mask="url(#shape_module.elb.aws_vpc.default-module.elb.aws_subnet.tf_test_subnet:1712326221810_clip)"><rect x="-100" y="-100" width="243.45146703891896" height="309.77212725621604" fill="transparent" stroke="none"/><path d="M3498.75,180L3542.201467038919,289.77212725621604" fill="none" stroke="#1d1d1d" stroke-width="2" stroke-dasharray="none" stroke-dashoffset="none"/></g><path d="M 3543.078451027757 283.8365650180349 L 3542.201467038919 289.77212725621604 L 3537.49961134933 286.0448557240793" fill="none" stroke="#1d1d1d" stroke-width="2"/></g></g></g></svg>