<svg xmlns="http://www.w3.org/2000/svg" direction="ltr" width="617.5" height="720" viewBox="2115 0 617.5 720" stroke-linecap="round" stroke-linejoin="round" style="background: rgb(252, 255, 254);" encoding="UTF-8&quot;"><defs><clipPath id="_qf606cO_vl9dTCt6hwFs"><path d="M2115,0L2732.5,0L2732.5,720L2115,720Z"/></clipPath><clipPath id="Lnx-XstmiyyMEgqwVFjEg"><path d="M2115,0L2732.5,0L2732.5,720L2115,720Z"/></clipPath><clipPath id="_xYSA061ToSWjQAWLxwhX"><path d="M2115,0L2732.5,0L2732.5,720L2115,720Z"/></clipPath><clipPath id="sQT1yMaEFJSL7jdcze5tQ"><path d="M2115,0L2732.5,0L2732.5,720L2115,720Z"/></clipPath><clipPath id="OSSBqWYfJFDJLoOuf_nDz"><path d="M2115,0L2732.5,0L2732.5,720L2115,720Z"/></clipPath><clipPath id="sSX6VlSSC23cBV22klHdC"><path d="M2115,0L2732.5,0L2732.5,720L2115,720Z"/></clipPath><clipPath id="ERX0AFkqGuJoGdxyaR0SL"><path d="M2115,0L2732.5,0L2732.5,720L2115,720Z"/></clipPath><clipPath id="tUIP1djg_8rc3V7_j9QXd"><path d="M2115,0L2732.5,0L2732.5,720L2115,720Z"/></clipPath><clipPath id="7-QfqnwhqqyJ3Oe1ku5oC"><path d="M2115,0L2732.5,0L2732.5,720L2115,720Z"/></clipPath><clipPath id="Q5uLSFZ1pwWehb0AVd2nd"><path d="M2115,0L2732.5,0L2732.5,720L2115,720Z"/></clipPath><clipPath id="FD0lt-23JK7NyRvJmU-2m"><path d="M2115,0L2732.5,0L2732.5,720L2115,720Z"/></clipPath><clipPath id="eij5pGY40bAsBiIG8Xh7a"><path d="M2115,0L2732.5,0L2732.5,720L2115,720Z"/></clipPath><clipPath id="Idox1R9cHWb41FnF_1feO"><path d="M2115,0L2732.5,0L2732.5,720L2115,720Z"/></clipPath></defs><g clip-path="url(#7-QfqnwhqqyJ3Oe1ku5oC)"><g transform="matrix(1, 0, 0, 1, 2282.5, 60)" opacity="1"><g><rect width="120" height="120" rx="4" fill="white" stroke="black" stroke-width="2"/><text x="5" y="28" style="font-family: sans-serif; font-size: 10px; fill: #504758;" dominant-baseline="middle">Efs File System</text><clipPath id="clip-round-corners-w44fxorlz"><rect x="0" y="0" width="64" height="64" rx="4" ry="4"/></clipPath><svg width="58" height="58" viewBox="0 0 64 64" version="1.1" xmlns="http://www.w3.org/2000/svg" xmlns:xlink="http://www.w3.org/1999/xlink" x="31" y="48" clip-path="url(#clip-round-corners-w44fxorlz)">
    <title>Icon-Architecture/48/Arch_Amazon-EFS_48</title>
    <g id="Icon-Architecture/48/Arch_Amazon-EFS_48" stroke="none" stroke-width="1" fill="none" fill-rule="evenodd">
        <g id="Icon-Architecture-BG/48/Storage" fill="#7AA116">
            <rect id="Rectangle" x="0" y="0" width="64" height="64"/>
        </g>
        <g id="Icon-Service/48/Amazon-EFS_48" transform="translate(9.853500, 10.000000)" fill="#FFFFFF">
            <path d="M43.002652,3.55271368e-15 L36.0212163,3.55271368e-15 L36.0212163,2 L40.4783643,2 L35.1994016,7.293 L36.6096516,8.707 L42.0053041,3.297 L42.0053041,8 L44,8 L44,1 C44,0.448 43.5541855,3.55271368e-15 43.002652,3.55271368e-15 L43.002652,3.55271368e-15 Z M1.99469592,3.297 L7.39034839,8.707 L8.80059841,7.293 L3.52163565,2 L7.97878369,2 L7.97878369,3.55271368e-15 L0.997347961,3.55271368e-15 C0.445814539,3.55271368e-15 0,0.448 0,1 L0,8 L1.99469592,8 L1.99469592,3.297 Z M42.0053041,40.703 L36.6096516,35.293 L35.1994016,36.707 L40.4783643,42 L36.0212163,42 L36.0212163,44 L43.002652,44 C43.5541855,44 44,43.552 44,43 L44,36 L42.0053041,36 L42.0053041,40.703 Z M10.9887798,16.465 C10.9887798,13.52 13.0413219,10.35 15.6593603,9.249 C20.2062697,7.344 23.4277036,9.85 24.6005848,11.017 C25.5590362,11.971 26.3090419,13.193 26.8276628,14.649 C26.951334,14.995 27.2545277,15.246 27.616565,15.301 C27.980597,15.353 28.3426344,15.207 28.5630483,14.913 C29.1056055,14.19 29.8945078,13.776 30.729288,13.776 C31.9859465,13.776 33.5098941,14.753 33.6724619,17.507 C33.6983929,17.958 34.0215336,18.334 34.4623614,18.427 C37.7216946,19.114 39.3743002,20.917 39.3743002,23.786 C39.3743002,24.5 39.2885282,25.148 39.1189791,25.712 L41.0298978,26.288 C41.2552984,25.537 41.3689961,24.695 41.3689961,23.786 C41.3689961,20.175 39.3244328,17.66 35.5873699,16.642 C35.1046535,13.305 32.798785,11.776 30.729288,11.776 C29.7917809,11.776 28.8931704,12.064 28.1252125,12.594 C27.5637056,11.445 26.8535939,10.441 26.0058481,9.597 C22.9689235,6.578 18.8139719,5.758 14.8894077,7.404 C11.5283451,8.817 8.99408391,12.712 8.99408391,16.465 C8.99408391,16.589 8.99707596,16.716 9.00306004,16.846 C5.99904799,17.91 4.23473944,20.434 4.23473944,23.743 C4.23473944,23.912 4.24271823,24.081 4.25169436,24.243 C4.41226738,27.164 6.35510121,29.688 9.20153229,30.674 L9.85280051,28.784 C7.77632205,28.064 6.3590906,26.239 6.24240089,24.134 C6.23541945,24.008 6.22943537,23.875 6.22943537,23.743 C6.22943537,20.101 8.7816488,18.92 10.3045991,18.541 C10.7923023,18.419 11.1134483,17.952 11.0546048,17.451 C11.0157082,17.131 10.9887798,16.798 10.9887798,16.465 L10.9887798,16.465 Z M30.975633,24.6 C30.975633,24.288 30.906816,24.112 30.8469751,24.057 C30.7961103,24.009 30.6684498,23.986 30.5088741,23.998 L20.4655802,24 C19.9160414,24 19.4682322,23.552 19.4682322,23 C19.4682322,22.824 19.4113834,22.356 19.3405717,22 L17.0546501,22 C16.9599021,22.349 16.8661514,22.831 16.8591699,23.009 C16.8382256,23.546 16.3973978,24 15.861822,24 L13.5599429,24 C13.3275608,23.987 13.2038897,24.008 13.1520276,24.057 C13.093184,24.112 13.0233697,24.288 13.0233697,24.6 L13.0233697,35 L30.975633,35 L30.975633,24.6 Z M32.9703289,27 L32.9703289,31.764 L35.3460117,27 L32.9703289,27 Z M32.8656074,36.447 L32.8566312,36.443 C32.6920688,36.77 32.3639413,37 31.9729809,37 L12.0260217,37 C11.4754856,37 11.0286738,36.552 11.0286738,36 L11.0286738,24.6 C11.0286738,23.532 11.4435705,22.92 11.7916449,22.595 C12.1187751,22.29 12.6962395,21.939 13.6297572,22.002 L14.9811637,22.001 C15.1477208,21.128 15.543668,20 16.4821724,20 L19.9738876,20 C20.0387152,20 20.1015482,20.006 20.1643811,20.019 C20.9622594,20.174 21.2714373,21.183 21.3901217,22 L30.4390598,22 C31.3087472,21.934 31.8822223,22.289 32.2083551,22.595 C32.5554321,22.92 32.9703289,23.532 32.9703289,24.6 L32.9703289,25 L36.9597207,25 C37.3058005,25 37.6259492,25.18 37.8084639,25.474 C37.9909785,25.769 38.0069361,26.137 37.8523472,26.447 L32.8656074,36.447 Z M8.80059841,36.707 L3.52163565,42 L7.97878369,42 L7.97878369,44 L0.997347961,44 C0.445814539,44 0,43.552 0,43 L0,36 L1.99469592,36 L1.99469592,40.703 L7.39034839,35.293 L8.80059841,36.707 Z" id="Amazon-EFS_Icon_48_Squid"/>
        </g>
    </g>
</svg><rect x="91" y="5" width="24" height="16" rx="8" ry="8" fill="#37bb65"/><text x="103" y="14" style="font-family: sans-serif; font-size: 12px; fill: black; text-anchor: middle; dominant-baseline: middle;">2</text><text x="5" y="14" style="font-family: sans-serif; font-size: 14px; fill: black;" dominant-baseline="middle">efs_for_l...</text></g></g></g><g clip-path="url(#_qf606cO_vl9dTCt6hwFs)"><g transform="matrix(1, 0, 0, 1, 0, 0)" opacity="1"><g><defs><mask id="shape_module.lambda-file-systems.aws_efs_file_system.efs_for_lambda-module.lambda-file-systems.aws_efs_file_system.efs_for_lambda:1712327048398_clip"><rect x="2242.5" y="20" width="200" height="200" fill="white"/><path d="M NaN NaN L 2342.5 120 L NaN NaN" fill="none" stroke="none"/></mask></defs><g mask="url(#shape_module.lambda-file-systems.aws_efs_file_system.efs_for_lambda-module.lambda-file-systems.aws_efs_file_system.efs_for_lambda:1712327048398_clip)"><rect x="-100" y="-100" width="200" height="200" fill="transparent" stroke="none"/><path d="M2342.5,120L2342.5,120" fill="none" stroke="#1d1d1d" stroke-width="2" stroke-dasharray="none" stroke-dashoffset="none"/></g><path d="M NaN NaN L 2342.5 120 L NaN NaN" fill="none" stroke="#1d1d1d" stroke-width="2"/></g></g></g><g clip-path="url(#Q5uLSFZ1pwWehb0AVd2nd)"><g transform="matrix(1, 0, 0, 1, 2150, 300)" opacity="1"><g><rect width="120" height="120" rx="4" fill="white" stroke="black" stroke-width="2"/><text x="5" y="28" style="font-family: sans-serif; font-size: 10px; fill: #504758;" dominant-baseline="middle">Efs Mount Target</text><clipPath id="clip-round-corners-l6xfb2w3n"><rect x="0" y="0" width="64" height="64" rx="4" ry="4"/></clipPath><svg width="58" height="58" viewBox="0 0 64 64" version="1.1" xmlns="http://www.w3.org/2000/svg" xmlns:xlink="http://www.w3.org/1999/xlink" x="31" y="48" clip-path="url(#clip-round-corners-l6xfb2w3n)">
    <title>Icon-Architecture/48/Arch_Amazon-EFS_48</title>
    <g id="Icon-Architecture/48/Arch_Amazon-EFS_48" stroke="none" stroke-width="1" fill="none" fill-rule="evenodd">
        <g id="Icon-Architecture-BG/48/Storage" fill="#7AA116">
            <rect id="Rectangle" x="0" y="0" width="64" height="64"/>
        </g>
        <g id="Icon-Service/48/Amazon-EFS_48" transform="translate(9.853500, 10.000000)" fill="#FFFFFF">
            <path d="M43.002652,3.55271368e-15 L36.0212163,3.55271368e-15 L36.0212163,2 L40.4783643,2 L35.1994016,7.293 L36.6096516,8.707 L42.0053041,3.297 L42.0053041,8 L44,8 L44,1 C44,0.448 43.5541855,3.55271368e-15 43.002652,3.55271368e-15 L43.002652,3.55271368e-15 Z M1.99469592,3.297 L7.39034839,8.707 L8.80059841,7.293 L3.52163565,2 L7.97878369,2 L7.97878369,3.55271368e-15 L0.997347961,3.55271368e-15 C0.445814539,3.55271368e-15 0,0.448 0,1 L0,8 L1.99469592,8 L1.99469592,3.297 Z M42.0053041,40.703 L36.6096516,35.293 L35.1994016,36.707 L40.4783643,42 L36.0212163,42 L36.0212163,44 L43.002652,44 C43.5541855,44 44,43.552 44,43 L44,36 L42.0053041,36 L42.0053041,40.703 Z M10.9887798,16.465 C10.9887798,13.52 13.0413219,10.35 15.6593603,9.249 C20.2062697,7.344 23.4277036,9.85 24.6005848,11.017 C25.5590362,11.971 26.3090419,13.193 26.8276628,14.649 C26.951334,14.995 27.2545277,15.246 27.616565,15.301 C27.980597,15.353 28.3426344,15.207 28.5630483,14.913 C29.1056055,14.19 29.8945078,13.776 30.729288,13.776 C31.9859465,13.776 33.5098941,14.753 33.6724619,17.507 C33.6983929,17.958 34.0215336,18.334 34.4623614,18.427 C37.7216946,19.114 39.3743002,20.917 39.3743002,23.786 C39.3743002,24.5 39.2885282,25.148 39.1189791,25.712 L41.0298978,26.288 C41.2552984,25.537 41.3689961,24.695 41.3689961,23.786 C41.3689961,20.175 39.3244328,17.66 35.5873699,16.642 C35.1046535,13.305 32.798785,11.776 30.729288,11.776 C29.7917809,11.776 28.8931704,12.064 28.1252125,12.594 C27.5637056,11.445 26.8535939,10.441 26.0058481,9.597 C22.9689235,6.578 18.8139719,5.758 14.8894077,7.404 C11.5283451,8.817 8.99408391,12.712 8.99408391,16.465 C8.99408391,16.589 8.99707596,16.716 9.00306004,16.846 C5.99904799,17.91 4.23473944,20.434 4.23473944,23.743 C4.23473944,23.912 4.24271823,24.081 4.25169436,24.243 C4.41226738,27.164 6.35510121,29.688 9.20153229,30.674 L9.85280051,28.784 C7.77632205,28.064 6.3590906,26.239 6.24240089,24.134 C6.23541945,24.008 6.22943537,23.875 6.22943537,23.743 C6.22943537,20.101 8.7816488,18.92 10.3045991,18.541 C10.7923023,18.419 11.1134483,17.952 11.0546048,17.451 C11.0157082,17.131 10.9887798,16.798 10.9887798,16.465 L10.9887798,16.465 Z M30.975633,24.6 C30.975633,24.288 30.906816,24.112 30.8469751,24.057 C30.7961103,24.009 30.6684498,23.986 30.5088741,23.998 L20.4655802,24 C19.9160414,24 19.4682322,23.552 19.4682322,23 C19.4682322,22.824 19.4113834,22.356 19.3405717,22 L17.0546501,22 C16.9599021,22.349 16.8661514,22.831 16.8591699,23.009 C16.8382256,23.546 16.3973978,24 15.861822,24 L13.5599429,24 C13.3275608,23.987 13.2038897,24.008 13.1520276,24.057 C13.093184,24.112 13.0233697,24.288 13.0233697,24.6 L13.0233697,35 L30.975633,35 L30.975633,24.6 Z M32.9703289,27 L32.9703289,31.764 L35.3460117,27 L32.9703289,27 Z M32.8656074,36.447 L32.8566312,36.443 C32.6920688,36.77 32.3639413,37 31.9729809,37 L12.0260217,37 C11.4754856,37 11.0286738,36.552 11.0286738,36 L11.0286738,24.6 C11.0286738,23.532 11.4435705,22.92 11.7916449,22.595 C12.1187751,22.29 12.6962395,21.939 13.6297572,22.002 L14.9811637,22.001 C15.1477208,21.128 15.543668,20 16.4821724,20 L19.9738876,20 C20.0387152,20 20.1015482,20.006 20.1643811,20.019 C20.9622594,20.174 21.2714373,21.183 21.3901217,22 L30.4390598,22 C31.3087472,21.934 31.8822223,22.289 32.2083551,22.595 C32.5554321,22.92 32.9703289,23.532 32.9703289,24.6 L32.9703289,25 L36.9597207,25 C37.3058005,25 37.6259492,25.18 37.8084639,25.474 C37.9909785,25.769 38.0069361,26.137 37.8523472,26.447 L32.8656074,36.447 Z M8.80059841,36.707 L3.52163565,42 L7.97878369,42 L7.97878369,44 L0.997347961,44 C0.445814539,44 0,43.552 0,43 L0,36 L1.99469592,36 L1.99469592,40.703 L7.39034839,35.293 L8.80059841,36.707 Z" id="Amazon-EFS_Icon_48_Squid"/>
        </g>
    </g>
</svg><rect x="91" y="5" width="24" height="16" rx="8" ry="8" fill="#37bb65"/><text x="103" y="14" style="font-family: sans-serif; font-size: 12px; fill: black; text-anchor: middle; dominant-baseline: middle;">1</text><text x="5" y="14" style="font-family: sans-serif; font-size: 14px; fill: black;" dominant-baseline="middle">mount_ta...</text></g></g></g><g clip-path="url(#Lnx-XstmiyyMEgqwVFjEg)"><g transform="matrix(1, 0, 0, 1, 0, 0)" opacity="1"><g><defs><mask id="shape_module.lambda-file-systems.aws_efs_file_system.efs_for_lambda-module.lambda-file-systems.aws_efs_mount_target.mount_target_az1:1712327048398_clip"><rect x="2148.441502375171" y="80" width="260.9334976248292" height="310.3701089053509" fill="white"/><path d="M 2253.579232373445 287.2711202856827 L 2248.441502375171 290.3701089053509 L 2248.3265645036363 284.371209899226" fill="none" stroke="none"/></mask></defs><g mask="url(#shape_module.lambda-file-systems.aws_efs_file_system.efs_for_lambda-module.lambda-file-systems.aws_efs_mount_target.mount_target_az1:1712327048398_clip)"><rect x="-100" y="-100" width="260.9334976248292" height="310.3701089053509" fill="transparent" stroke="none"/><path d="M2309.375,180L2248.441502375171,290.3701089053509" fill="none" stroke="#1d1d1d" stroke-width="2" stroke-dasharray="none" stroke-dashoffset="none"/></g><path d="M 2253.579232373445 287.2711202856827 L 2248.441502375171 290.3701089053509 L 2248.3265645036363 284.371209899226" fill="none" stroke="#1d1d1d" stroke-width="2"/></g></g></g><g clip-path="url(#FD0lt-23JK7NyRvJmU-2m)"><g transform="matrix(1, 0, 0, 1, 2320, 300)" opacity="1"><g><rect width="120" height="120" rx="4" fill="white" stroke="black" stroke-width="2"/><text x="5" y="28" style="font-family: sans-serif; font-size: 10px; fill: #504758;" dominant-baseline="middle">Efs Mount Target</text><clipPath id="clip-round-corners-wre32itt9"><rect x="0" y="0" width="64" height="64" rx="4" ry="4"/></clipPath><svg width="58" height="58" viewBox="0 0 64 64" version="1.1" xmlns="http://www.w3.org/2000/svg" xmlns:xlink="http://www.w3.org/1999/xlink" x="31" y="48" clip-path="url(#clip-round-corners-wre32itt9)">
    <title>Icon-Architecture/48/Arch_Amazon-EFS_48</title>
    <g id="Icon-Architecture/48/Arch_Amazon-EFS_48" stroke="none" stroke-width="1" fill="none" fill-rule="evenodd">
        <g id="Icon-Architecture-BG/48/Storage" fill="#7AA116">
            <rect id="Rectangle" x="0" y="0" width="64" height="64"/>
        </g>
        <g id="Icon-Service/48/Amazon-EFS_48" transform="translate(9.853500, 10.000000)" fill="#FFFFFF">
            <path d="M43.002652,3.55271368e-15 L36.0212163,3.55271368e-15 L36.0212163,2 L40.4783643,2 L35.1994016,7.293 L36.6096516,8.707 L42.0053041,3.297 L42.0053041,8 L44,8 L44,1 C44,0.448 43.5541855,3.55271368e-15 43.002652,3.55271368e-15 L43.002652,3.55271368e-15 Z M1.99469592,3.297 L7.39034839,8.707 L8.80059841,7.293 L3.52163565,2 L7.97878369,2 L7.97878369,3.55271368e-15 L0.997347961,3.55271368e-15 C0.445814539,3.55271368e-15 0,0.448 0,1 L0,8 L1.99469592,8 L1.99469592,3.297 Z M42.0053041,40.703 L36.6096516,35.293 L35.1994016,36.707 L40.4783643,42 L36.0212163,42 L36.0212163,44 L43.002652,44 C43.5541855,44 44,43.552 44,43 L44,36 L42.0053041,36 L42.0053041,40.703 Z M10.9887798,16.465 C10.9887798,13.52 13.0413219,10.35 15.6593603,9.249 C20.2062697,7.344 23.4277036,9.85 24.6005848,11.017 C25.5590362,11.971 26.3090419,13.193 26.8276628,14.649 C26.951334,14.995 27.2545277,15.246 27.616565,15.301 C27.980597,15.353 28.3426344,15.207 28.5630483,14.913 C29.1056055,14.19 29.8945078,13.776 30.729288,13.776 C31.9859465,13.776 33.5098941,14.753 33.6724619,17.507 C33.6983929,17.958 34.0215336,18.334 34.4623614,18.427 C37.7216946,19.114 39.3743002,20.917 39.3743002,23.786 C39.3743002,24.5 39.2885282,25.148 39.1189791,25.712 L41.0298978,26.288 C41.2552984,25.537 41.3689961,24.695 41.3689961,23.786 C41.3689961,20.175 39.3244328,17.66 35.5873699,16.642 C35.1046535,13.305 32.798785,11.776 30.729288,11.776 C29.7917809,11.776 28.8931704,12.064 28.1252125,12.594 C27.5637056,11.445 26.8535939,10.441 26.0058481,9.597 C22.9689235,6.578 18.8139719,5.758 14.8894077,7.404 C11.5283451,8.817 8.99408391,12.712 8.99408391,16.465 C8.99408391,16.589 8.99707596,16.716 9.00306004,16.846 C5.99904799,17.91 4.23473944,20.434 4.23473944,23.743 C4.23473944,23.912 4.24271823,24.081 4.25169436,24.243 C4.41226738,27.164 6.35510121,29.688 9.20153229,30.674 L9.85280051,28.784 C7.77632205,28.064 6.3590906,26.239 6.24240089,24.134 C6.23541945,24.008 6.22943537,23.875 6.22943537,23.743 C6.22943537,20.101 8.7816488,18.92 10.3045991,18.541 C10.7923023,18.419 11.1134483,17.952 11.0546048,17.451 C11.0157082,17.131 10.9887798,16.798 10.9887798,16.465 L10.9887798,16.465 Z M30.975633,24.6 C30.975633,24.288 30.906816,24.112 30.8469751,24.057 C30.7961103,24.009 30.6684498,23.986 30.5088741,23.998 L20.4655802,24 C19.9160414,24 19.4682322,23.552 19.4682322,23 C19.4682322,22.824 19.4113834,22.356 19.3405717,22 L17.0546501,22 C16.9599021,22.349 16.8661514,22.831 16.8591699,23.009 C16.8382256,23.546 16.3973978,24 15.861822,24 L13.5599429,24 C13.3275608,23.987 13.2038897,24.008 13.1520276,24.057 C13.093184,24.112 13.0233697,24.288 13.0233697,24.6 L13.0233697,35 L30.975633,35 L30.975633,24.6 Z M32.9703289,27 L32.9703289,31.764 L35.3460117,27 L32.9703289,27 Z M32.8656074,36.447 L32.8566312,36.443 C32.6920688,36.77 32.3639413,37 31.9729809,37 L12.0260217,37 C11.4754856,37 11.0286738,36.552 11.0286738,36 L11.0286738,24.6 C11.0286738,23.532 11.4435705,22.92 11.7916449,22.595 C12.1187751,22.29 12.6962395,21.939 13.6297572,22.002 L14.9811637,22.001 C15.1477208,21.128 15.543668,20 16.4821724,20 L19.9738876,20 C20.0387152,20 20.1015482,20.006 20.1643811,20.019 C20.9622594,20.174 21.2714373,21.183 21.3901217,22 L30.4390598,22 C31.3087472,21.934 31.8822223,22.289 32.2083551,22.595 C32.5554321,22.92 32.9703289,23.532 32.9703289,24.6 L32.9703289,25 L36.9597207,25 C37.3058005,25 37.6259492,25.18 37.8084639,25.474 C37.9909785,25.769 38.0069361,26.137 37.8523472,26.447 L32.8656074,36.447 Z M8.80059841,36.707 L3.52163565,42 L7.97878369,42 L7.97878369,44 L0.997347961,44 C0.445814539,44 0,43.552 0,43 L0,36 L1.99469592,36 L1.99469592,40.703 L7.39034839,35.293 L8.80059841,36.707 Z" id="Amazon-EFS_Icon_48_Squid"/>
        </g>
    </g>
</svg><rect x="91" y="5" width="24" height="16" rx="8" ry="8" fill="#37bb65"/><text x="103" y="14" style="font-family: sans-serif; font-size: 12px; fill: black; text-anchor: middle; dominant-baseline: middle;">1</text><text x="5" y="14" style="font-family: sans-serif; font-size: 14px; fill: black;" dominant-baseline="middle">mount_ta...</text></g></g></g><g clip-path="url(#_xYSA061ToSWjQAWLxwhX)"><g transform="matrix(1, 0, 0, 1, 0, 0)" opacity="1"><g><defs><mask id="shape_module.lambda-file-systems.aws_efs_file_system.efs_for_lambda-module.lambda-file-systems.aws_efs_mount_target.mount_target_az2:1712327048398_clip"><rect x="2251.875" y="80" width="217.0518543169901" height="309.1318676287379" fill="white"/><path d="M 2371.0887246178 283.53487586507805 L 2368.92685431699 289.1318676287379 L 2365.1606524152935 284.4611371467195" fill="none" stroke="none"/></mask></defs><g mask="url(#shape_module.lambda-file-systems.aws_efs_file_system.efs_for_lambda-module.lambda-file-systems.aws_efs_mount_target.mount_target_az2:1712327048398_clip)"><rect x="-100" y="-100" width="217.0518543169901" height="309.1318676287379" fill="transparent" stroke="none"/><path d="M2351.875,180L2368.92685431699,289.1318676287379" fill="none" stroke="#1d1d1d" stroke-width="2" stroke-dasharray="none" stroke-dashoffset="none"/></g><path d="M 2371.0887246178 283.53487586507805 L 2368.92685431699 289.1318676287379 L 2365.1606524152935 284.4611371467195" fill="none" stroke="#1d1d1d" stroke-width="2"/></g></g></g><g clip-path="url(#eij5pGY40bAsBiIG8Xh7a)"><g transform="matrix(1, 0, 0, 1, 2405, 540)" opacity="1"><g><rect width="120" height="120" rx="4" fill="white" stroke="black" stroke-width="2"/><text x="5" y="28" style="font-family: sans-serif; font-size: 10px; fill: #504758;" dominant-baseline="middle">Lambda Function</text><clipPath id="clip-round-corners-0uf45qsjf"><rect x="0" y="0" width="64" height="64" rx="4" ry="4"/></clipPath><svg width="58" height="58" viewBox="0 0 64 64" version="1.1" xmlns="http://www.w3.org/2000/svg" xmlns:xlink="http://www.w3.org/1999/xlink" x="31" y="48" clip-path="url(#clip-round-corners-0uf45qsjf)">
    <title>Icon-Architecture/48/Arch_AWS-Lambda_48</title>
    <g id="Icon-Architecture/48/Arch_AWS-Lambda_48" stroke="none" stroke-width="1" fill="none" fill-rule="evenodd">
        <g id="Icon-Architecture-BG/48/Compute" fill="#ED7100">
            <rect id="Rectangle" x="0" y="0" width="64" height="64"/>
        </g>
        <path d="M22.6794094,52 L13.5740701,52 L23.8376189,30.41 L28.3997494,39.861 L22.6794094,52 Z M24.7269406,27.667 C24.5606285,27.321 24.2120702,27.103 23.8306478,27.103 L23.8276601,27.103 C23.4452418,27.104 23.0966835,27.325 22.9323632,27.672 L11.0973143,52.569 C10.9499239,52.879 10.9708374,53.243 11.1540795,53.534 C11.3353298,53.824 11.6540117,54 11.9955989,54 L23.309802,54 C23.695208,54 24.0447622,53.777 24.2100784,53.428 L30.4044577,40.284 C30.5329264,40.01 30.5319305,39.692 30.3994783,39.42 L24.7269406,27.667 Z M51.0082382,52 L41.985557,52 L26.9547262,19.578 C26.7914017,19.226 26.4388599,19 26.0524581,19 L20.1279625,19 L20.1349337,12 L31.8146251,12 L46.7747483,44.42 C46.9380728,44.774 47.2906147,45 47.6790082,45 L51.0082382,45 L51.0082382,52 Z M52.0041191,43 L48.3143803,43 L33.354257,10.58 C33.1909326,10.226 32.8383907,10 32.450993,10 L19.1400486,10 C18.5913182,10 18.1451636,10.447 18.1441677,10.999 L18.1362006,19.999 C18.1362006,20.265 18.2407681,20.519 18.4269979,20.707 C18.6142235,20.895 18.8671772,21 19.1310857,21 L25.4170861,21 L40.4479168,53.422 C40.6112413,53.774 40.9627873,54 41.350185,54 L52.0041191,54 C52.5548412,54 53,53.552 53,53 L53,44 C53,43.448 52.5548412,43 52.0041191,43 L52.0041191,43 Z" id="AWS-Lambda_Icon_48_Squid" fill="#FFFFFF"/>
    </g>
</svg><rect x="91" y="5" width="24" height="16" rx="8" ry="8" fill="#37bb65"/><text x="103" y="14" style="font-family: sans-serif; font-size: 12px; fill: black; text-anchor: middle; dominant-baseline: middle;">1</text><text x="5" y="14" style="font-family: sans-serif; font-size: 14px; fill: black;" dominant-baseline="middle">example...</text></g></g></g><g clip-path="url(#sQT1yMaEFJSL7jdcze5tQ)"><g transform="matrix(1, 0, 0, 1, 0, 0)" opacity="1"><g><defs><mask id="shape_module.lambda-file-systems.aws_efs_mount_target.mount_target_az2-module.lambda-file-systems.aws_lambda_function.example_lambda:1712327048398_clip"><rect x="2301.25" y="320" width="238.8276814353094" height="309.6311005232267" fill="white"/><path d="M 2441.170842473805 523.7315243567622 L 2440.0776814353094 529.6311005232267 L 2435.5150791228375 525.7346072102299" fill="none" stroke="none"/></mask></defs><g mask="url(#shape_module.lambda-file-systems.aws_efs_mount_target.mount_target_az2-module.lambda-file-systems.aws_lambda_function.example_lambda:1712327048398_clip)"><rect x="-100" y="-100" width="238.8276814353094" height="309.6311005232267" fill="transparent" stroke="none"/><path d="M2401.25,420L2440.0776814353094,529.6311005232267" fill="none" stroke="#1d1d1d" stroke-width="2" stroke-dasharray="none" stroke-dashoffset="none"/></g><path d="M 2441.170842473805 523.7315243567622 L 2440.0776814353094 529.6311005232267 L 2435.5150791228375 525.7346072102299" fill="none" stroke="#1d1d1d" stroke-width="2"/></g></g></g><g clip-path="url(#OSSBqWYfJFDJLoOuf_nDz)"><g transform="matrix(1, 0, 0, 1, 0, 0)" opacity="1"><g><defs><mask id="shape_module.lambda-file-systems.aws_efs_mount_target.mount_target_az1-module.lambda-file-systems.aws_lambda_function.example_lambda:1712327048398_clip"><rect x="2170" y="316.47058823529414" width="326.98980008037915" height="319.51981184035685" fill="white"/><path d="M 2395.2620560211485 530.2445406564001 L 2396.989800080379 535.990400075651 L 2391.149867827118 534.6137406125571" fill="none" stroke="none"/></mask></defs><g mask="url(#shape_module.lambda-file-systems.aws_efs_mount_target.mount_target_az1-module.lambda-file-systems.aws_lambda_function.example_lambda:1712327048398_clip)"><rect x="-100" y="-100" width="326.98980008037915" height="319.51981184035685" fill="transparent" stroke="none"/><path d="M2270,416.47058823529414L2396.989800080379,535.990400075651" fill="none" stroke="#1d1d1d" stroke-width="2" stroke-dasharray="none" stroke-dashoffset="none"/></g><path d="M 2395.2620560211485 530.2445406564001 L 2396.989800080379 535.990400075651 L 2391.149867827118 534.6137406125571" fill="none" stroke="#1d1d1d" stroke-width="2"/></g></g></g><g clip-path="url(#sSX6VlSSC23cBV22klHdC)"><g transform="matrix(1, 0, 0, 1, 0, 0)" opacity="1"><g><defs><mask id="shape_module.lambda-file-systems.aws_efs_file_system.efs_for_lambda-module.lambda-file-systems.aws_lambda_function.example_lambda:1712327048398_clip"><rect x="2257.8125" y="80" width="289.1548931489665" height="549.3416221347261" fill="white"/><path d="M 2448.589306220949 523.5649969965565 L 2446.9673931489665 529.3416221347261 L 2442.775645567163 525.0486916425747" fill="none" stroke="none"/></mask></defs><g mask="url(#shape_module.lambda-file-systems.aws_efs_file_system.efs_for_lambda-module.lambda-file-systems.aws_lambda_function.example_lambda:1712327048398_clip)"><rect x="-100" y="-100" width="289.1548931489665" height="549.3416221347261" fill="transparent" stroke="none"/><path d="M2357.8125,180L2446.9673931489665,529.3416221347261" fill="none" stroke="#1d1d1d" stroke-width="2" stroke-dasharray="none" stroke-dashoffset="none"/></g><path d="M 2448.589306220949 523.5649969965565 L 2446.9673931489665 529.3416221347261 L 2442.775645567163 525.0486916425747" fill="none" stroke="#1d1d1d" stroke-width="2"/></g></g></g><g clip-path="url(#Idox1R9cHWb41FnF_1feO)"><g transform="matrix(1, 0, 0, 1, 2490, 300)" opacity="1"><g><rect width="120" height="120" rx="4" fill="white" stroke="black" stroke-width="2"/><text x="5" y="28" style="font-family: sans-serif; font-size: 10px; fill: #504758;" dominant-baseline="middle">Iam Role</text><clipPath id="clip-round-corners-oh3o6kmbm"><rect x="0" y="0" width="64" height="64" rx="4" ry="4"/></clipPath><svg width="58" height="58" viewBox="0 0 64 64" version="1.1" xmlns="http://www.w3.org/2000/svg" xmlns:xlink="http://www.w3.org/1999/xlink" x="31" y="48" clip-path="url(#clip-round-corners-oh3o6kmbm)">
    <title>Icon-Architecture/48/Arch_AWS-Identity-and-Access-Management_48</title>
    <g id="Icon-Architecture/48/Arch_AWS-Identity-and-Access-Management_48" stroke="none" stroke-width="1" fill="none" fill-rule="evenodd">
        <g id="Icon-Architecture-BG/48/Security-Identity-Compliance" fill="#DD344C">
            <rect id="Rectangle" x="0" y="0" width="64" height="64"/>
        </g>
        <path d="M12,47 L52,47 L52,18 L12,18 L12,47 Z M54,17 L54,48 C54,48.552 53.553,49 53,49 L11,49 C10.447,49 10,48.552 10,48 L10,17 C10,16.448 10.447,16 11,16 L53,16 C53.553,16 54,16.448 54,17 L54,17 Z M35,39 L47,39 L47,37 L35,37 L35,39 Z M45,35 L49,35 L49,33 L45,33 L45,35 Z M35,35 L41,35 L41,33 L35,33 L35,35 Z M22.5,37.5 C22.5,37.776 22.725,38 23,38 C23.275,38 23.5,37.776 23.5,37.5 C23.5,37.224 23.275,37 23,37 C22.725,37 22.5,37.224 22.5,37.5 L22.5,37.5 Z M25.5,37.5 C25.5,38.522 24.882,39.401 24,39.788 L24,42 L22,42 L22,39.788 C21.118,39.401 20.5,38.522 20.5,37.5 C20.5,36.122 21.621,35 23,35 C24.379,35 25.5,36.122 25.5,37.5 L25.5,37.5 Z M16,42.995 L29.995,43 L29.996,41 L27,41 L27,39 L29.997,39 L29.998,37 L27,37 L27,35 L29.999,35 L30,33.005 L16.005,33 L16,42.995 Z M18,31.001 L28.001,31.004 L28.002,26 C28.002,24.976 27.2,24.273 26.722,23.945 C25.847,23.345 24.174,23 23.002,23 L23,23 C20.873,23 18.003,24.232 18.002,26 L18,31.001 Z M14.293,44.701 C14.105,44.513 14,44.259 14,43.994 L14.005,32 C14.005,31.447 14.453,31 15.005,31 L16,31 L16.002,26 C16.003,22.911 19.876,21 23,21 L23.002,21 C24.567,21 26.653,21.473 27.854,22.295 C29.239,23.246 30.003,24.562 30.002,26 L30.001,31.005 L31,31.006 C31.266,31.006 31.52,31.111 31.707,31.299 C31.895,31.487 32,31.741 32,32.006 L31.995,44 C31.995,44.553 31.547,45 30.995,45 L15,44.994 C14.734,44.994 14.48,44.889 14.293,44.701 L14.293,44.701 Z M47,30 L49,30 L49,28 L47,28 L47,30 Z M35,30 L44,30 L44,28 L35,28 L35,30 Z" id="AWS-Identity-and-Access-Management_Icon_48_Squid" fill="#FFFFFF"/>
    </g>
</svg><rect x="91" y="5" width="24" height="16" rx="8" ry="8" fill="#37bb65"/><text x="103" y="14" style="font-family: sans-serif; font-size: 12px; fill: black; text-anchor: middle; dominant-baseline: middle;">3</text><text x="5" y="14" style="font-family: sans-serif; font-size: 14px; fill: black;" dominant-baseline="middle">iam_role...</text></g></g></g><g clip-path="url(#ERX0AFkqGuJoGdxyaR0SL)"><g transform="matrix(1, 0, 0, 1, 0, 0)" opacity="1"><g><defs><mask id="shape_module.lambda-file-systems.aws_iam_role.iam_role_for_lambda-module.lambda-file-systems.aws_iam_role.iam_role_for_lambda:1712327048398_clip"><rect x="2450" y="260" width="200" height="200" fill="white"/><path d="M NaN NaN L 2550 360 L NaN NaN" fill="none" stroke="none"/></mask></defs><g mask="url(#shape_module.lambda-file-systems.aws_iam_role.iam_role_for_lambda-module.lambda-file-systems.aws_iam_role.iam_role_for_lambda:1712327048398_clip)"><rect x="-100" y="-100" width="200" height="200" fill="transparent" stroke="none"/><path d="M2550,360L2550,360" fill="none" stroke="#1d1d1d" stroke-width="2" stroke-dasharray="none" stroke-dashoffset="none"/></g><path d="M NaN NaN L 2550 360 L NaN NaN" fill="none" stroke="#1d1d1d" stroke-width="2"/></g></g></g><g clip-path="url(#tUIP1djg_8rc3V7_j9QXd)"><g transform="matrix(1, 0, 0, 1, 0, 0)" opacity="1"><g><defs><mask id="shape_module.lambda-file-systems.aws_iam_role.iam_role_for_lambda-module.lambda-file-systems.aws_lambda_function.example_lambda:1712327048398_clip"><rect x="2389.9223185646906" y="320" width="238.8276814353094" height="309.6311005232267" fill="white"/><path d="M 2494.4849208771625 525.7346072102299 L 2489.9223185646906 529.6311005232267 L 2488.829157526195 523.7315243567622" fill="none" stroke="none"/></mask></defs><g mask="url(#shape_module.lambda-file-systems.aws_iam_role.iam_role_for_lambda-module.lambda-file-systems.aws_lambda_function.example_lambda:1712327048398_clip)"><rect x="-100" y="-100" width="238.8276814353094" height="309.6311005232267" fill="transparent" stroke="none"/><path d="M2528.75,420L2489.9223185646906,529.6311005232267" fill="none" stroke="#1d1d1d" stroke-width="2" stroke-dasharray="none" stroke-dashoffset="none"/></g><path d="M 2494.4849208771625 525.7346072102299 L 2489.9223185646906 529.6311005232267 L 2488.829157526195 523.7315243567622" fill="none" stroke="#1d1d1d" stroke-width="2"/></g></g></g></svg>