<svg xmlns="http://www.w3.org/2000/svg" direction="ltr" width="477.5" height="720" viewBox="2752.5 0 477.5 720" stroke-linecap="round" stroke-linejoin="round" style="background: rgb(252, 255, 254);" encoding="UTF-8&quot;"><defs><clipPath id="efCZ0l4CB5n94oSaJIocY"><path d="M2752.5,0L3230,0L3230,720L2752.5,720Z"/></clipPath><clipPath id="NCeqCg_DZ0u71c_virAyy"><path d="M2752.5,0L3230,0L3230,720L2752.5,720Z"/></clipPath><clipPath id="7E5pYJ8HMGaHfSrBkNFwP"><path d="M2752.5,0L3230,0L3230,720L2752.5,720Z"/></clipPath><clipPath id="LsWJf5r55y6_GRMoppWaF"><path d="M2752.5,0L3230,0L3230,720L2752.5,720Z"/></clipPath><clipPath id="_x1iuhO96pCKeFjwWrMVu"><path d="M2752.5,0L3230,0L3230,720L2752.5,720Z"/></clipPath><clipPath id="RgK1ZnWQhcLsb5DguMFCX"><path d="M2752.5,0L3230,0L3230,720L2752.5,720Z"/></clipPath><clipPath id="fcYv-PatXswcDnYykaJgP"><path d="M2752.5,0L3230,0L3230,720L2752.5,720Z"/></clipPath><clipPath id="LxslRbmw3NufR1p0mkvKJ"><path d="M2752.5,0L3230,0L3230,720L2752.5,720Z"/></clipPath><clipPath id="0Xy_DcatUWtSjf2SnAJuH"><path d="M2752.5,0L3230,0L3230,720L2752.5,720Z"/></clipPath><clipPath id="Osk5d6_krwDiJNiR0Vptg"><path d="M2752.5,0L3230,0L3230,720L2752.5,720Z"/></clipPath><clipPath id="99_yG2-2yhhTqnU6ZrMlw"><path d="M2752.5,0L3230,0L3230,720L2752.5,720Z"/></clipPath><clipPath id="xx-gV1FlDY8EabPWnrcxr"><path d="M2752.5,0L3230,0L3230,720L2752.5,720Z"/></clipPath><clipPath id="Eir5q3yxom_7fLWYgLZWq"><path d="M2752.5,0L3230,0L3230,720L2752.5,720Z"/></clipPath></defs><g clip-path="url(#0Xy_DcatUWtSjf2SnAJuH)"><g transform="matrix(1, 0, 0, 1, 2825, 300)" opacity="1"><g><rect width="120" height="120" rx="4" fill="white" stroke="black" stroke-width="2"/><text x="5" y="28" style="font-family: sans-serif; font-size: 10px; fill: #504758;" dominant-baseline="middle">Iam Policy</text><clipPath id="clip-round-corners-jdvgc0liy"><rect x="0" y="0" width="64" height="64" rx="4" ry="4"/></clipPath><svg width="58" height="58" viewBox="0 0 64 64" version="1.1" xmlns="http://www.w3.org/2000/svg" xmlns:xlink="http://www.w3.org/1999/xlink" x="31" y="48" clip-path="url(#clip-round-corners-jdvgc0liy)">
    <title>Icon-Architecture/48/Arch_AWS-Identity-and-Access-Management_48</title>
    <g id="Icon-Architecture/48/Arch_AWS-Identity-and-Access-Management_48" stroke="none" stroke-width="1" fill="none" fill-rule="evenodd">
        <g id="Icon-Architecture-BG/48/Security-Identity-Compliance" fill="#DD344C">
            <rect id="Rectangle" x="0" y="0" width="64" height="64"/>
        </g>
        <path d="M12,47 L52,47 L52,18 L12,18 L12,47 Z M54,17 L54,48 C54,48.552 53.553,49 53,49 L11,49 C10.447,49 10,48.552 10,48 L10,17 C10,16.448 10.447,16 11,16 L53,16 C53.553,16 54,16.448 54,17 L54,17 Z M35,39 L47,39 L47,37 L35,37 L35,39 Z M45,35 L49,35 L49,33 L45,33 L45,35 Z M35,35 L41,35 L41,33 L35,33 L35,35 Z M22.5,37.5 C22.5,37.776 22.725,38 23,38 C23.275,38 23.5,37.776 23.5,37.5 C23.5,37.224 23.275,37 23,37 C22.725,37 22.5,37.224 22.5,37.5 L22.5,37.5 Z M25.5,37.5 C25.5,38.522 24.882,39.401 24,39.788 L24,42 L22,42 L22,39.788 C21.118,39.401 20.5,38.522 20.5,37.5 C20.5,36.122 21.621,35 23,35 C24.379,35 25.5,36.122 25.5,37.5 L25.5,37.5 Z M16,42.995 L29.995,43 L29.996,41 L27,41 L27,39 L29.997,39 L29.998,37 L27,37 L27,35 L29.999,35 L30,33.005 L16.005,33 L16,42.995 Z M18,31.001 L28.001,31.004 L28.002,26 C28.002,24.976 27.2,24.273 26.722,23.945 C25.847,23.345 24.174,23 23.002,23 L23,23 C20.873,23 18.003,24.232 18.002,26 L18,31.001 Z M14.293,44.701 C14.105,44.513 14,44.259 14,43.994 L14.005,32 C14.005,31.447 14.453,31 15.005,31 L16,31 L16.002,26 C16.003,22.911 19.876,21 23,21 L23.002,21 C24.567,21 26.653,21.473 27.854,22.295 C29.239,23.246 30.003,24.562 30.002,26 L30.001,31.005 L31,31.006 C31.266,31.006 31.52,31.111 31.707,31.299 C31.895,31.487 32,31.741 32,32.006 L31.995,44 C31.995,44.553 31.547,45 30.995,45 L15,44.994 C14.734,44.994 14.48,44.889 14.293,44.701 L14.293,44.701 Z M47,30 L49,30 L49,28 L47,28 L47,30 Z M35,30 L44,30 L44,28 L35,28 L35,30 Z" id="AWS-Identity-and-Access-Management_Icon_48_Squid" fill="#FFFFFF"/>
    </g>
</svg><rect x="91" y="5" width="24" height="16" rx="8" ry="8" fill="#37bb65"/><text x="103" y="14" style="font-family: sans-serif; font-size: 12px; fill: black; text-anchor: middle; dominant-baseline: middle;">2</text><text x="5" y="14" style="font-family: sans-serif; font-size: 14px; fill: black;" dominant-baseline="middle">foo</text></g></g></g><g clip-path="url(#efCZ0l4CB5n94oSaJIocY)"><g transform="matrix(1, 0, 0, 1, 0, 0)" opacity="1"><g><defs><mask id="shape_module.sagemaker.aws_iam_policy.foo-module.sagemaker.aws_iam_policy.foo:1712327048398_clip"><rect x="2785" y="260" width="200" height="200" fill="white"/><path d="M NaN NaN L 2885 360 L NaN NaN" fill="none" stroke="none"/></mask></defs><g mask="url(#shape_module.sagemaker.aws_iam_policy.foo-module.sagemaker.aws_iam_policy.foo:1712327048398_clip)"><rect x="-100" y="-100" width="200" height="200" fill="transparent" stroke="none"/><path d="M2885,360L2885,360" fill="none" stroke="#1d1d1d" stroke-width="2" stroke-dasharray="none" stroke-dashoffset="none"/></g><path d="M NaN NaN L 2885 360 L NaN NaN" fill="none" stroke="#1d1d1d" stroke-width="2"/></g></g></g><g clip-path="url(#Osk5d6_krwDiJNiR0Vptg)"><g transform="matrix(1, 0, 0, 1, 2787.5, 60)" opacity="1"><g><rect width="120" height="120" rx="4" fill="white" stroke="black" stroke-width="2"/><text x="5" y="28" style="font-family: sans-serif; font-size: 10px; fill: #504758;" dominant-baseline="middle">Iam Role</text><clipPath id="clip-round-corners-dl5cifo1g"><rect x="0" y="0" width="64" height="64" rx="4" ry="4"/></clipPath><svg width="58" height="58" viewBox="0 0 64 64" version="1.1" xmlns="http://www.w3.org/2000/svg" xmlns:xlink="http://www.w3.org/1999/xlink" x="31" y="48" clip-path="url(#clip-round-corners-dl5cifo1g)">
    <title>Icon-Architecture/48/Arch_AWS-Identity-and-Access-Management_48</title>
    <g id="Icon-Architecture/48/Arch_AWS-Identity-and-Access-Management_48" stroke="none" stroke-width="1" fill="none" fill-rule="evenodd">
        <g id="Icon-Architecture-BG/48/Security-Identity-Compliance" fill="#DD344C">
            <rect id="Rectangle" x="0" y="0" width="64" height="64"/>
        </g>
        <path d="M12,47 L52,47 L52,18 L12,18 L12,47 Z M54,17 L54,48 C54,48.552 53.553,49 53,49 L11,49 C10.447,49 10,48.552 10,48 L10,17 C10,16.448 10.447,16 11,16 L53,16 C53.553,16 54,16.448 54,17 L54,17 Z M35,39 L47,39 L47,37 L35,37 L35,39 Z M45,35 L49,35 L49,33 L45,33 L45,35 Z M35,35 L41,35 L41,33 L35,33 L35,35 Z M22.5,37.5 C22.5,37.776 22.725,38 23,38 C23.275,38 23.5,37.776 23.5,37.5 C23.5,37.224 23.275,37 23,37 C22.725,37 22.5,37.224 22.5,37.5 L22.5,37.5 Z M25.5,37.5 C25.5,38.522 24.882,39.401 24,39.788 L24,42 L22,42 L22,39.788 C21.118,39.401 20.5,38.522 20.5,37.5 C20.5,36.122 21.621,35 23,35 C24.379,35 25.5,36.122 25.5,37.5 L25.5,37.5 Z M16,42.995 L29.995,43 L29.996,41 L27,41 L27,39 L29.997,39 L29.998,37 L27,37 L27,35 L29.999,35 L30,33.005 L16.005,33 L16,42.995 Z M18,31.001 L28.001,31.004 L28.002,26 C28.002,24.976 27.2,24.273 26.722,23.945 C25.847,23.345 24.174,23 23.002,23 L23,23 C20.873,23 18.003,24.232 18.002,26 L18,31.001 Z M14.293,44.701 C14.105,44.513 14,44.259 14,43.994 L14.005,32 C14.005,31.447 14.453,31 15.005,31 L16,31 L16.002,26 C16.003,22.911 19.876,21 23,21 L23.002,21 C24.567,21 26.653,21.473 27.854,22.295 C29.239,23.246 30.003,24.562 30.002,26 L30.001,31.005 L31,31.006 C31.266,31.006 31.52,31.111 31.707,31.299 C31.895,31.487 32,31.741 32,32.006 L31.995,44 C31.995,44.553 31.547,45 30.995,45 L15,44.994 C14.734,44.994 14.48,44.889 14.293,44.701 L14.293,44.701 Z M47,30 L49,30 L49,28 L47,28 L47,30 Z M35,30 L44,30 L44,28 L35,28 L35,30 Z" id="AWS-Identity-and-Access-Management_Icon_48_Squid" fill="#FFFFFF"/>
    </g>
</svg><rect x="91" y="5" width="24" height="16" rx="8" ry="8" fill="#37bb65"/><text x="103" y="14" style="font-family: sans-serif; font-size: 12px; fill: black; text-anchor: middle; dominant-baseline: middle;">1</text><text x="5" y="14" style="font-family: sans-serif; font-size: 14px; fill: black;" dominant-baseline="middle">foo</text></g></g></g><g clip-path="url(#NCeqCg_DZ0u71c_virAyy)"><g transform="matrix(1, 0, 0, 1, 0, 0)" opacity="1"><g><defs><mask id="shape_module.sagemaker.aws_iam_role.foo-module.sagemaker.aws_iam_policy.foo:1712327048398_clip"><rect x="2756.875" y="80" width="217.0518543169901" height="309.1318676287379" fill="white"/><path d="M 2876.0887246178 283.53487586507805 L 2873.92685431699 289.1318676287379 L 2870.1606524152935 284.4611371467195" fill="none" stroke="none"/></mask></defs><g mask="url(#shape_module.sagemaker.aws_iam_role.foo-module.sagemaker.aws_iam_policy.foo:1712327048398_clip)"><rect x="-100" y="-100" width="217.0518543169901" height="309.1318676287379" fill="transparent" stroke="none"/><path d="M2856.875,180L2873.92685431699,289.1318676287379" fill="none" stroke="#1d1d1d" stroke-width="2" stroke-dasharray="none" stroke-dashoffset="none"/></g><path d="M 2876.0887246178 283.53487586507805 L 2873.92685431699 289.1318676287379 L 2870.1606524152935 284.4611371467195" fill="none" stroke="#1d1d1d" stroke-width="2"/></g></g></g><g clip-path="url(#99_yG2-2yhhTqnU6ZrMlw)"><g transform="matrix(1, 0, 0, 1, 3025, 300)" opacity="1"><g><rect width="120" height="120" rx="4" fill="white" stroke="black" stroke-width="2"/><text x="5" y="28" style="font-family: sans-serif; font-size: 10px; fill: #504758;" dominant-baseline="middle">Sagemaker Model</text><clipPath id="clip-round-corners-lwhng4sxr"><rect x="0" y="0" width="64" height="64" rx="4" ry="4"/></clipPath><svg width="58" height="58" viewBox="0 0 64 64" version="1.1" xmlns="http://www.w3.org/2000/svg" xmlns:xlink="http://www.w3.org/1999/xlink" x="31" y="48" clip-path="url(#clip-round-corners-lwhng4sxr)">
    <title>Icon-Architecture/48/Arch_Amazon-SageMaker_48</title>
    <g id="Icon-Architecture/48/Arch_Amazon-SageMaker_48" stroke="none" stroke-width="1" fill="none" fill-rule="evenodd">
        <g id="Icon-Architecture-BG/48/Machine-Learning" fill="#01A88D">
            <rect id="Rectangle" x="0" y="0" width="64" height="64"/>
        </g>
        <path d="M43.00075,19.999906 C43.00075,20.5509101 42.5527398,20.999906 42.0007273,20.999906 C41.4487147,20.999906 41.0007046,20.5509101 41.0007046,19.999906 C41.0007046,19.4489072 41.4487147,18.999906 42.0007273,18.999906 C42.5527398,18.999906 43.00075,19.4489072 43.00075,19.999906 L43.00075,19.999906 Z M39.0006591,27.9999301 C39.5526717,27.9999301 40.0006818,28.4489313 40.0006818,28.9999301 C40.0006818,29.5509343 39.5526717,29.9999301 39.0006591,29.9999301 C38.4486466,29.9999301 38.0006364,29.5509343 38.0006364,28.9999301 C38.0006364,28.4489313 38.4486466,27.9999301 39.0006591,27.9999301 L39.0006591,27.9999301 Z M39.0006591,42.9999678 C39.0006591,42.448969 39.4486693,41.9999678 40.0006818,41.9999678 C40.5526944,41.9999678 41.0007046,42.448969 41.0007046,42.9999678 C41.0007046,43.5509719 40.5526944,43.9999678 40.0006818,43.9999678 C39.4486693,43.9999678 39.0006591,43.5509719 39.0006591,42.9999678 L39.0006591,42.9999678 Z M46.0588195,32.9679408 C46.0588195,33.519945 45.6098093,33.9679408 45.0587968,33.9679408 C44.5067842,33.9679408 44.0587741,33.519945 44.0587741,32.9679408 C44.0587741,32.416942 44.5067842,31.9679408 45.0587968,31.9679408 C45.6098093,31.9679408 46.0588195,32.416942 46.0588195,32.9679408 L46.0588195,32.9679408 Z M51.9999545,35.3669499 L48.0218641,33.3369445 C48.0358645,33.2149442 48.058865,33.0949438 48.058865,32.9679435 C48.058865,31.313939 46.7128344,29.9679354 45.0587968,29.9679354 C43.4037592,29.9679354 42.0587286,31.313939 42.0587286,32.9679435 C42.0587286,34.6229479 43.4037592,35.9679516 45.0587968,35.9679516 C45.8628151,35.9679516 46.5918316,35.6459507 47.1318439,35.1279493 L50.9379304,37.0709545 L47.485852,39.1429601 C47.1858451,39.3229606 47.0008409,39.6489614 47.0008409,39.9999624 L47.0008409,46.4339797 L37.9566354,51.8599943 L33.0005227,49.3819876 L33.0005227,43.9999731 L37.1856179,43.9999731 C37.5996273,45.1619763 38.6986522,45.9999785 40.0006818,45.9999785 C41.6547194,45.9999785 43.00075,44.6539749 43.00075,42.9999704 C43.00075,41.345966 41.6547194,39.9999624 40.0006818,39.9999624 C38.6986522,39.9999624 37.5996273,40.8379646 37.1856179,41.9999678 L33.0005227,41.9999678 L33.0005227,31.9999409 C33.0005227,31.68494 32.8525194,31.3889392 32.6005136,31.1999387 L28.6004227,28.1999307 L27.4003955,29.799935 L31.0004773,32.4999422 L31.0004773,36.4509528 L27.0003864,38.9959597 L27.0003864,33.9809462 C27.0003864,33.6009452 26.7843815,33.2529443 26.4433737,33.0849438 L23.0002955,31.3799392 L23.0002955,27.565929 L27.5153981,24.8569217 C27.8154049,24.6769212 28.0004091,24.3509203 28.0004091,23.9999194 L28.0004091,18.999906 L26.0003636,18.999906 L26.0003636,23.4339179 L22.0002727,25.8339243 L18.0001818,23.4339179 L18.0001818,16.5878995 L21.00025,14.921895 L21.00025,20.9999113 L23.0002955,20.9999113 L23.0002955,13.810892 L26.0243642,12.1298875 L31.0004773,14.6158942 L31.0014773,23.9999194 C31.0014773,24.3369203 31.1714812,24.6509211 31.4524876,24.8359216 L36.1995954,27.95193 C36.0765926,28.2799309 36.0005909,28.6299318 36.0005909,28.9999328 C36.0005909,30.6539373 37.3466215,31.9999409 39.0006591,31.9999409 C40.6546967,31.9999409 42.0007273,30.6539373 42.0007273,28.9999328 C42.0007273,27.3459284 40.6546967,25.9999248 39.0006591,25.9999248 C38.4526467,25.9999248 37.9456351,26.1579252 37.5036251,26.4159259 L33.0015228,23.4599179 L33.0005227,14.6178942 L37.9286347,12.1538876 L46.0008182,17.534902 L46.0008182,18.999906 L44.8157913,18.999906 C44.4017819,17.8379028 43.3027569,16.9999006 42.0007273,16.9999006 C40.3466897,16.9999006 39.0006591,18.3459042 39.0006591,19.9999086 C39.0006591,21.6539131 40.3466897,22.9999167 42.0007273,22.9999167 C43.3027569,22.9999167 44.4017819,22.1619145 44.8157913,20.9999113 L46.0008182,20.9999113 L46.0008182,23.9999194 C46.0008182,24.3789204 46.2148231,24.7249213 46.5538308,24.8949218 L51.9999545,27.6179291 L51.9999545,35.3669499 Z M26.9773858,51.8479942 L23.7743131,50.1019895 L27.5153981,47.8569835 L26.4853747,46.1429789 L21.7382668,48.9909865 L17.0001591,46.4059796 L17.0001591,40.5659639 L21.5152617,37.8569566 L20.4852383,36.142952 L16.0001364,38.8339593 L12.0000455,36.4339528 L12.0000455,32.5659424 L16.5151481,29.8569351 L15.4851247,28.1429305 L12.0000455,30.2339361 L12.0000455,27.6179291 L16.9561581,25.1399225 L21.00025,27.565929 L21.00025,31.3819392 L17.5531717,33.1049439 L18.447192,34.8949487 L22.0032728,33.1169439 L25.0003409,34.6019479 L25.0003409,40.2689631 L20.4632378,43.1559709 L21.5372622,44.8439754 L31.0004773,38.8219592 L31.0004773,49.4339877 L26.9773858,51.8479942 Z M53.4469874,26.1049251 L48.0008637,23.3819177 L48.0008637,16.9999006 C48.0008637,16.6658997 47.8338599,16.3538989 47.5558535,16.1678984 L38.555649,10.1678822 C38.2576422,9.9698817 37.8756335,9.94488163 37.5536262,10.1048821 L32.0035001,12.8798895 L26.4473738,10.1048821 C26.1503671,9.95788167 25.8033592,9.96588169 25.5153526,10.1258821 L16.5151481,15.1258956 C16.1971408,15.301896 16.0001364,15.6368969 16.0001364,15.9998979 L16.0001364,23.3819177 L10.5530126,26.1049251 C10.2140049,26.2749255 10,26.6209264 10,26.9999275 L10,36.9999543 C10,37.3509553 10.1850042,37.6769561 10.485011,37.8569566 L15.0001136,40.5659639 L15.0001136,46.9999812 C15.0001136,47.3659822 15.2001182,47.7029831 15.5211255,47.8779836 L26.5213755,53.8779997 C26.6713789,53.9589999 26.8353826,54 27.0003864,54 C27.1793904,54 27.3563945,53.9519999 27.5153981,53.8569996 L32.044501,51.1399923 L37.5536262,53.8949997 C37.6946294,53.9649999 37.8476329,54 38.0006364,54 C38.1796404,54 38.3566445,53.9519999 38.5156481,53.8569996 L48.5158754,47.8569835 C48.8158822,47.676983 49.0008864,47.3509821 49.0008864,46.9999812 L49.0008864,40.5659639 L53.514989,37.8569566 C53.8149958,37.6769561 54,37.3509553 54,36.9999543 L54,26.9999275 C54,26.6209264 53.7859951,26.2749255 53.4469874,26.1049251 L53.4469874,26.1049251 Z" id="Amazon-SageMaker_Icon_48_Squid" fill="#FFFFFF"/>
    </g>
</svg><rect x="91" y="5" width="24" height="16" rx="8" ry="8" fill="#37bb65"/><text x="103" y="14" style="font-family: sans-serif; font-size: 12px; fill: black; text-anchor: middle; dominant-baseline: middle;">1</text><text x="5" y="14" style="font-family: sans-serif; font-size: 14px; fill: black;" dominant-baseline="middle">foo</text></g></g></g><g clip-path="url(#7E5pYJ8HMGaHfSrBkNFwP)"><g transform="matrix(1, 0, 0, 1, 0, 0)" opacity="1"><g><defs><mask id="shape_module.sagemaker.aws_iam_role.foo-module.sagemaker.aws_sagemaker_model.foo:1712327048398_clip"><rect x="2806.875" y="80" width="311.0126548796411" height="312.1812091415322" fill="white"/><path d="M 3016.365104696272 286.37760328490134 L 3017.887654879641 292.1812091415322 L 3012.100309682562 290.5979733505514" fill="none" stroke="none"/></mask></defs><g mask="url(#shape_module.sagemaker.aws_iam_role.foo-module.sagemaker.aws_sagemaker_model.foo:1712327048398_clip)"><rect x="-100" y="-100" width="311.0126548796411" height="312.1812091415322" fill="transparent" stroke="none"/><path d="M2906.875,180L3017.887654879641,292.1812091415322" fill="none" stroke="#1d1d1d" stroke-width="2" stroke-dasharray="none" stroke-dashoffset="none"/></g><path d="M 3016.365104696272 286.37760328490134 L 3017.887654879641 292.1812091415322 L 3012.100309682562 290.5979733505514" fill="none" stroke="#1d1d1d" stroke-width="2"/></g></g></g><g clip-path="url(#xx-gV1FlDY8EabPWnrcxr)"><g transform="matrix(1, 0, 0, 1, 3007.5, 60)" opacity="1"><g><rect width="120" height="120" rx="4" fill="white" stroke="black" stroke-width="2"/><text x="5" y="28" style="font-family: sans-serif; font-size: 10px; fill: #504758;" dominant-baseline="middle">S3 Bucket</text><clipPath id="clip-round-corners-zc8hv35oh"><rect x="0" y="0" width="64" height="64" rx="4" ry="4"/></clipPath><svg width="58" height="58" viewBox="0 0 64 64" version="1.1" xmlns="http://www.w3.org/2000/svg" xmlns:xlink="http://www.w3.org/1999/xlink" x="31" y="48" clip-path="url(#clip-round-corners-zc8hv35oh)">
    <title>Icon-Architecture/48/Arch_Amazon-Simple-Storage-Service_48</title>
    <g id="Icon-Architecture/48/Arch_Amazon-Simple-Storage-Service_48" stroke="none" stroke-width="1" fill="none" fill-rule="evenodd">
        <g id="Icon-Architecture-BG/48/Storage" fill="#7AA116">
            <rect id="Rectangle" x="0" y="0" width="64" height="64"/>
        </g>
        <g id="Icon-Service/48/Amazon-Simple-Storage-Service_48" transform="translate(10.999800, 10.000200)" fill="#FFFFFF">
            <path d="M36.759,23.948 L36.993,22.131 C39.166,23.385 39.842,24.121 40.037,24.424 C39.713,24.485 38.832,24.509 36.759,23.948 L36.759,23.948 Z M19.5,11 C9.125,11 2.382,8.488 2,6.696 L2,6.511 C2.349,5.392 8.14,2 19.5,2 C30.84,2 36.632,5.381 37,6.505 L37,6.616 C36.724,8.446 29.961,11 19.5,11 L19.5,11 Z M34.818,23.362 C30.053,21.797 23.912,18.979 21.594,17.888 C21.535,16.786 20.628,15.906 19.512,15.906 C18.358,15.906 17.418,16.845 17.418,18 C17.418,19.154 18.358,20.094 19.512,20.094 C19.969,20.094 20.389,19.942 20.733,19.693 C23.132,20.822 29.619,23.798 34.558,25.38 L32.837,38.724 C32.583,40.352 27.919,42 19.497,42 C11.072,42 6.405,40.352 6.155,38.751 L2.435,9.814 C5.945,11.915 12.749,13 19.5,13 C26.25,13 33.054,11.915 36.565,9.815 L34.818,23.362 Z M39,6.5 C39,3.431 30.661,0 19.5,0 C8.339,0 -3.55271368e-15,3.431 -3.55271368e-15,6.5 L-3.55271368e-15,7.043 L4.174,39.033 C4.875,43.516 15.123,44 19.497,44 C23.869,44 34.113,43.516 34.818,39.007 L36.501,25.947 C37.778,26.279 38.812,26.456 39.616,26.455 C40.606,26.455 41.273,26.203 41.697,25.697 C42.047,25.281 42.185,24.756 42.085,24.221 C41.857,23 40.403,21.712 37.37,20.044 L37.27,19.989 L39,7.044 L39,6.5 Z" id="Amazon-Simple-Storage-Service-Icon_48_Squid"/>
        </g>
    </g>
</svg><rect x="91" y="5" width="24" height="16" rx="8" ry="8" fill="#37bb65"/><text x="103" y="14" style="font-family: sans-serif; font-size: 12px; fill: black; text-anchor: middle; dominant-baseline: middle;">3</text><text x="5" y="14" style="font-family: sans-serif; font-size: 14px; fill: black;" dominant-baseline="middle">foo</text></g></g></g><g clip-path="url(#LsWJf5r55y6_GRMoppWaF)"><g transform="matrix(1, 0, 0, 1, 0, 0)" opacity="1"><g><defs><mask id="shape_module.sagemaker.aws_s3_bucket.foo-module.sagemaker.aws_iam_policy.foo:1712327048398_clip"><rect x="2837.2832283022685" y="80" width="284.5917716977315" height="311.24397373948256" fill="white"/><path d="M 2942.8164326572974 288.9237044522038 L 2937.2832283022685 291.24397373948256 L 2938.040418333379 285.2919435600575" fill="none" stroke="none"/></mask></defs><g mask="url(#shape_module.sagemaker.aws_s3_bucket.foo-module.sagemaker.aws_iam_policy.foo:1712327048398_clip)"><rect x="-100" y="-100" width="284.5917716977315" height="311.24397373948256" fill="transparent" stroke="none"/><path d="M3021.875,180L2937.2832283022685,291.24397373948256" fill="none" stroke="#1d1d1d" stroke-width="2" stroke-dasharray="none" stroke-dashoffset="none"/></g><path d="M 2942.8164326572974 288.9237044522038 L 2937.2832283022685 291.24397373948256 L 2938.040418333379 285.2919435600575" fill="none" stroke="#1d1d1d" stroke-width="2"/></g></g></g><g clip-path="url(#_x1iuhO96pCKeFjwWrMVu)"><g transform="matrix(1, 0, 0, 1, 0, 0)" opacity="1"><g><defs><mask id="shape_module.sagemaker.aws_s3_bucket.foo-module.sagemaker.aws_sagemaker_model.foo:1712327048398_clip"><rect x="2971.875" y="80" width="207.95004047592965" height="309.0291265270331" fill="white"/><path d="M 3082.4392140031873 283.62856204085335 L 3079.8250404759297 289.0291265270331 L 3076.455101199751 284.06490359943734" fill="none" stroke="none"/></mask></defs><g mask="url(#shape_module.sagemaker.aws_s3_bucket.foo-module.sagemaker.aws_sagemaker_model.foo:1712327048398_clip)"><rect x="-100" y="-100" width="207.95004047592965" height="309.0291265270331" fill="transparent" stroke="none"/><path d="M3071.875,180L3079.8250404759297,289.0291265270331" fill="none" stroke="#1d1d1d" stroke-width="2" stroke-dasharray="none" stroke-dashoffset="none"/></g><path d="M 3082.4392140031873 283.62856204085335 L 3079.8250404759297 289.0291265270331 L 3076.455101199751 284.06490359943734" fill="none" stroke="#1d1d1d" stroke-width="2"/></g></g></g><g clip-path="url(#RgK1ZnWQhcLsb5DguMFCX)"><g transform="matrix(1, 0, 0, 1, 0, 0)" opacity="1"><g><defs><mask id="shape_module.sagemaker.aws_s3_bucket.foo-module.sagemaker.aws_s3_bucket.foo:1712327048398_clip"><rect x="2967.5" y="20" width="200" height="200" fill="white"/><path d="M NaN NaN L 3067.5 120 L NaN NaN" fill="none" stroke="none"/></mask></defs><g mask="url(#shape_module.sagemaker.aws_s3_bucket.foo-module.sagemaker.aws_s3_bucket.foo:1712327048398_clip)"><rect x="-100" y="-100" width="200" height="200" fill="transparent" stroke="none"/><path d="M3067.5,120L3067.5,120" fill="none" stroke="#1d1d1d" stroke-width="2" stroke-dasharray="none" stroke-dashoffset="none"/></g><path d="M NaN NaN L 3067.5 120 L NaN NaN" fill="none" stroke="#1d1d1d" stroke-width="2"/></g></g></g><g clip-path="url(#Eir5q3yxom_7fLWYgLZWq)"><g transform="matrix(1, 0, 0, 1, 3025, 540)" opacity="1"><g><rect width="120" height="120" rx="4" fill="white" stroke="black" stroke-width="2"/><text x="5" y="28" style="font-family: sans-serif; font-size: 10px; fill: #504758;" dominant-baseline="middle">Sagemaker Endpoint</text><clipPath id="clip-round-corners-w0oh09h8h"><rect x="0" y="0" width="64" height="64" rx="4" ry="4"/></clipPath><svg width="58" height="58" viewBox="0 0 64 64" version="1.1" xmlns="http://www.w3.org/2000/svg" xmlns:xlink="http://www.w3.org/1999/xlink" x="31" y="48" clip-path="url(#clip-round-corners-w0oh09h8h)">
    <title>Icon-Architecture/48/Arch_Amazon-SageMaker_48</title>
    <g id="Icon-Architecture/48/Arch_Amazon-SageMaker_48" stroke="none" stroke-width="1" fill="none" fill-rule="evenodd">
        <g id="Icon-Architecture-BG/48/Machine-Learning" fill="#01A88D">
            <rect id="Rectangle" x="0" y="0" width="64" height="64"/>
        </g>
        <path d="M43.00075,19.999906 C43.00075,20.5509101 42.5527398,20.999906 42.0007273,20.999906 C41.4487147,20.999906 41.0007046,20.5509101 41.0007046,19.999906 C41.0007046,19.4489072 41.4487147,18.999906 42.0007273,18.999906 C42.5527398,18.999906 43.00075,19.4489072 43.00075,19.999906 L43.00075,19.999906 Z M39.0006591,27.9999301 C39.5526717,27.9999301 40.0006818,28.4489313 40.0006818,28.9999301 C40.0006818,29.5509343 39.5526717,29.9999301 39.0006591,29.9999301 C38.4486466,29.9999301 38.0006364,29.5509343 38.0006364,28.9999301 C38.0006364,28.4489313 38.4486466,27.9999301 39.0006591,27.9999301 L39.0006591,27.9999301 Z M39.0006591,42.9999678 C39.0006591,42.448969 39.4486693,41.9999678 40.0006818,41.9999678 C40.5526944,41.9999678 41.0007046,42.448969 41.0007046,42.9999678 C41.0007046,43.5509719 40.5526944,43.9999678 40.0006818,43.9999678 C39.4486693,43.9999678 39.0006591,43.5509719 39.0006591,42.9999678 L39.0006591,42.9999678 Z M46.0588195,32.9679408 C46.0588195,33.519945 45.6098093,33.9679408 45.0587968,33.9679408 C44.5067842,33.9679408 44.0587741,33.519945 44.0587741,32.9679408 C44.0587741,32.416942 44.5067842,31.9679408 45.0587968,31.9679408 C45.6098093,31.9679408 46.0588195,32.416942 46.0588195,32.9679408 L46.0588195,32.9679408 Z M51.9999545,35.3669499 L48.0218641,33.3369445 C48.0358645,33.2149442 48.058865,33.0949438 48.058865,32.9679435 C48.058865,31.313939 46.7128344,29.9679354 45.0587968,29.9679354 C43.4037592,29.9679354 42.0587286,31.313939 42.0587286,32.9679435 C42.0587286,34.6229479 43.4037592,35.9679516 45.0587968,35.9679516 C45.8628151,35.9679516 46.5918316,35.6459507 47.1318439,35.1279493 L50.9379304,37.0709545 L47.485852,39.1429601 C47.1858451,39.3229606 47.0008409,39.6489614 47.0008409,39.9999624 L47.0008409,46.4339797 L37.9566354,51.8599943 L33.0005227,49.3819876 L33.0005227,43.9999731 L37.1856179,43.9999731 C37.5996273,45.1619763 38.6986522,45.9999785 40.0006818,45.9999785 C41.6547194,45.9999785 43.00075,44.6539749 43.00075,42.9999704 C43.00075,41.345966 41.6547194,39.9999624 40.0006818,39.9999624 C38.6986522,39.9999624 37.5996273,40.8379646 37.1856179,41.9999678 L33.0005227,41.9999678 L33.0005227,31.9999409 C33.0005227,31.68494 32.8525194,31.3889392 32.6005136,31.1999387 L28.6004227,28.1999307 L27.4003955,29.799935 L31.0004773,32.4999422 L31.0004773,36.4509528 L27.0003864,38.9959597 L27.0003864,33.9809462 C27.0003864,33.6009452 26.7843815,33.2529443 26.4433737,33.0849438 L23.0002955,31.3799392 L23.0002955,27.565929 L27.5153981,24.8569217 C27.8154049,24.6769212 28.0004091,24.3509203 28.0004091,23.9999194 L28.0004091,18.999906 L26.0003636,18.999906 L26.0003636,23.4339179 L22.0002727,25.8339243 L18.0001818,23.4339179 L18.0001818,16.5878995 L21.00025,14.921895 L21.00025,20.9999113 L23.0002955,20.9999113 L23.0002955,13.810892 L26.0243642,12.1298875 L31.0004773,14.6158942 L31.0014773,23.9999194 C31.0014773,24.3369203 31.1714812,24.6509211 31.4524876,24.8359216 L36.1995954,27.95193 C36.0765926,28.2799309 36.0005909,28.6299318 36.0005909,28.9999328 C36.0005909,30.6539373 37.3466215,31.9999409 39.0006591,31.9999409 C40.6546967,31.9999409 42.0007273,30.6539373 42.0007273,28.9999328 C42.0007273,27.3459284 40.6546967,25.9999248 39.0006591,25.9999248 C38.4526467,25.9999248 37.9456351,26.1579252 37.5036251,26.4159259 L33.0015228,23.4599179 L33.0005227,14.6178942 L37.9286347,12.1538876 L46.0008182,17.534902 L46.0008182,18.999906 L44.8157913,18.999906 C44.4017819,17.8379028 43.3027569,16.9999006 42.0007273,16.9999006 C40.3466897,16.9999006 39.0006591,18.3459042 39.0006591,19.9999086 C39.0006591,21.6539131 40.3466897,22.9999167 42.0007273,22.9999167 C43.3027569,22.9999167 44.4017819,22.1619145 44.8157913,20.9999113 L46.0008182,20.9999113 L46.0008182,23.9999194 C46.0008182,24.3789204 46.2148231,24.7249213 46.5538308,24.8949218 L51.9999545,27.6179291 L51.9999545,35.3669499 Z M26.9773858,51.8479942 L23.7743131,50.1019895 L27.5153981,47.8569835 L26.4853747,46.1429789 L21.7382668,48.9909865 L17.0001591,46.4059796 L17.0001591,40.5659639 L21.5152617,37.8569566 L20.4852383,36.142952 L16.0001364,38.8339593 L12.0000455,36.4339528 L12.0000455,32.5659424 L16.5151481,29.8569351 L15.4851247,28.1429305 L12.0000455,30.2339361 L12.0000455,27.6179291 L16.9561581,25.1399225 L21.00025,27.565929 L21.00025,31.3819392 L17.5531717,33.1049439 L18.447192,34.8949487 L22.0032728,33.1169439 L25.0003409,34.6019479 L25.0003409,40.2689631 L20.4632378,43.1559709 L21.5372622,44.8439754 L31.0004773,38.8219592 L31.0004773,49.4339877 L26.9773858,51.8479942 Z M53.4469874,26.1049251 L48.0008637,23.3819177 L48.0008637,16.9999006 C48.0008637,16.6658997 47.8338599,16.3538989 47.5558535,16.1678984 L38.555649,10.1678822 C38.2576422,9.9698817 37.8756335,9.94488163 37.5536262,10.1048821 L32.0035001,12.8798895 L26.4473738,10.1048821 C26.1503671,9.95788167 25.8033592,9.96588169 25.5153526,10.1258821 L16.5151481,15.1258956 C16.1971408,15.301896 16.0001364,15.6368969 16.0001364,15.9998979 L16.0001364,23.3819177 L10.5530126,26.1049251 C10.2140049,26.2749255 10,26.6209264 10,26.9999275 L10,36.9999543 C10,37.3509553 10.1850042,37.6769561 10.485011,37.8569566 L15.0001136,40.5659639 L15.0001136,46.9999812 C15.0001136,47.3659822 15.2001182,47.7029831 15.5211255,47.8779836 L26.5213755,53.8779997 C26.6713789,53.9589999 26.8353826,54 27.0003864,54 C27.1793904,54 27.3563945,53.9519999 27.5153981,53.8569996 L32.044501,51.1399923 L37.5536262,53.8949997 C37.6946294,53.9649999 37.8476329,54 38.0006364,54 C38.1796404,54 38.3566445,53.9519999 38.5156481,53.8569996 L48.5158754,47.8569835 C48.8158822,47.676983 49.0008864,47.3509821 49.0008864,46.9999812 L49.0008864,40.5659639 L53.514989,37.8569566 C53.8149958,37.6769561 54,37.3509553 54,36.9999543 L54,26.9999275 C54,26.6209264 53.7859951,26.2749255 53.4469874,26.1049251 L53.4469874,26.1049251 Z" id="Amazon-SageMaker_Icon_48_Squid" fill="#FFFFFF"/>
    </g>
</svg><rect x="91" y="5" width="24" height="16" rx="8" ry="8" fill="#37bb65"/><text x="103" y="14" style="font-family: sans-serif; font-size: 12px; fill: black; text-anchor: middle; dominant-baseline: middle;">2</text><text x="5" y="14" style="font-family: sans-serif; font-size: 14px; fill: black;" dominant-baseline="middle">foo</text></g></g></g><g clip-path="url(#fcYv-PatXswcDnYykaJgP)"><g transform="matrix(1, 0, 0, 1, 0, 0)" opacity="1"><g><defs><mask id="shape_module.sagemaker.aws_sagemaker_endpoint.foo-module.sagemaker.aws_sagemaker_endpoint.foo:1712327048398_clip"><rect x="2985" y="500" width="200" height="200" fill="white"/><path d="M NaN NaN L 3085 600 L NaN NaN" fill="none" stroke="none"/></mask></defs><g mask="url(#shape_module.sagemaker.aws_sagemaker_endpoint.foo-module.sagemaker.aws_sagemaker_endpoint.foo:1712327048398_clip)"><rect x="-100" y="-100" width="200" height="200" fill="transparent" stroke="none"/><path d="M3085,600L3085,600" fill="none" stroke="#1d1d1d" stroke-width="2" stroke-dasharray="none" stroke-dashoffset="none"/></g><path d="M NaN NaN L 3085 600 L NaN NaN" fill="none" stroke="#1d1d1d" stroke-width="2"/></g></g></g><g clip-path="url(#LxslRbmw3NufR1p0mkvKJ)"><g transform="matrix(1, 0, 0, 1, 0, 0)" opacity="1"><g><defs><mask id="shape_module.sagemaker.aws_sagemaker_model.foo-module.sagemaker.aws_sagemaker_endpoint.foo:1712327048398_clip"><rect x="2985" y="320" width="200" height="309" fill="white"/><path d="M 3088 523.8038475772934 L 3085 529 L 3082 523.8038475772934" fill="none" stroke="none"/></mask></defs><g mask="url(#shape_module.sagemaker.aws_sagemaker_model.foo-module.sagemaker.aws_sagemaker_endpoint.foo:1712327048398_clip)"><rect x="-100" y="-100" width="200" height="309" fill="transparent" stroke="none"/><path d="M3085,420L3085,529" fill="none" stroke="#1d1d1d" stroke-width="2" stroke-dasharray="none" stroke-dashoffset="none"/></g><path d="M 3088 523.8038475772934 L 3085 529 L 3082 523.8038475772934" fill="none" stroke="#1d1d1d" stroke-width="2"/></g></g></g></svg>