<svg xmlns="http://www.w3.org/2000/svg" direction="ltr" width="862.5" height="720" viewBox="1232.5 0 862.5 720" stroke-linecap="round" stroke-linejoin="round" style="background: rgb(252, 255, 254);" encoding="UTF-8&quot;"><defs><clipPath id="MSSdzT4RptntgV7EKb44_"><path d="M1232.5,0L2095,0L2095,720L1232.5,720Z"/></clipPath><clipPath id="HcKMMuARxOVt6Ve3osjub"><path d="M1232.5,0L2095,0L2095,720L1232.5,720Z"/></clipPath><clipPath id="4mCqGVe5yI-cmiOPGOZJQ"><path d="M1232.5,0L2095,0L2095,720L1232.5,720Z"/></clipPath><clipPath id="f847JG9gO2VhpDpdOmAmd"><path d="M1232.5,0L2095,0L2095,720L1232.5,720Z"/></clipPath><clipPath id="mkl5uQyFgUaix6Z460rTw"><path d="M1232.5,0L2095,0L2095,720L1232.5,720Z"/></clipPath><clipPath id="OvNrSzu4bpMet1NxwzBwi"><path d="M1232.5,0L2095,0L2095,720L1232.5,720Z"/></clipPath><clipPath id="XYOqfngiriIOvIQsN0rHf"><path d="M1232.5,0L2095,0L2095,720L1232.5,720Z"/></clipPath><clipPath id="hgditt8gP2NSM6RhsyYOC"><path d="M1232.5,0L2095,0L2095,720L1232.5,720Z"/></clipPath><clipPath id="Ol5dl3ZkBecHQcixwg6_Y"><path d="M1232.5,0L2095,0L2095,720L1232.5,720Z"/></clipPath><clipPath id="zcbWx_JlHOI60e3txqTqn"><path d="M1232.5,0L2095,0L2095,720L1232.5,720Z"/></clipPath><clipPath id="-k2W7uxqxiv1H9RbUkVGl"><path d="M1232.5,0L2095,0L2095,720L1232.5,720Z"/></clipPath><clipPath id="hiq_NKYYC-kYmnaTvJOlQ"><path d="M1232.5,0L2095,0L2095,720L1232.5,720Z"/></clipPath><clipPath id="nKWth3SnX5hQ0MdeNo16-"><path d="M1232.5,0L2095,0L2095,720L1232.5,720Z"/></clipPath><clipPath id="F1Q8eNBGehFx3eHTd0H33"><path d="M1232.5,0L2095,0L2095,720L1232.5,720Z"/></clipPath><clipPath id="YxHmndx4mVGyqgKft_Rqe"><path d="M1232.5,0L2095,0L2095,720L1232.5,720Z"/></clipPath><clipPath id="_AiK47hyrXXWdhudoQZYm"><path d="M1232.5,0L2095,0L2095,720L1232.5,720Z"/></clipPath><clipPath id="Zv3vslwdkpFukj_HMy_WY"><path d="M1232.5,0L2095,0L2095,720L1232.5,720Z"/></clipPath><clipPath id="V1LQ2LB9vRuqb17tpNXFu"><path d="M1232.5,0L2095,0L2095,720L1232.5,720Z"/></clipPath><clipPath id="6_6LCXY8PmbGlQxEWIent"><path d="M1232.5,0L2095,0L2095,720L1232.5,720Z"/></clipPath><clipPath id="M3wQTCsYh3LA5AdF0xv6P"><path d="M1232.5,0L2095,0L2095,720L1232.5,720Z"/></clipPath></defs><g clip-path="url(#F1Q8eNBGehFx3eHTd0H33)"><g transform="matrix(1, 0, 0, 1, 1517.5, 540)" opacity="1"><g><rect width="120" height="120" rx="4" fill="white" stroke="black" stroke-width="2"/><text x="5" y="28" style="font-family: sans-serif; font-size: 10px; fill: #504758;" dominant-baseline="middle">Eks Cluster</text><clipPath id="clip-round-corners-dvdkac3cp"><rect x="0" y="0" width="64" height="64" rx="4" ry="4"/></clipPath><svg width="58" height="58" viewBox="0 0 64 64" version="1.1" xmlns="http://www.w3.org/2000/svg" xmlns:xlink="http://www.w3.org/1999/xlink" x="31" y="48" clip-path="url(#clip-round-corners-dvdkac3cp)">
    <title>Icon-Architecture/48/Arch_Amazon-Elastic-Kubernetes-Service_48</title>
    <g id="Icon-Architecture/48/Arch_Amazon-Elastic-Kubernetes-Service_48" stroke="none" stroke-width="1" fill="none" fill-rule="evenodd">
        <g id="Icon-Architecture-BG/48/Compute" fill="#ED7100">
            <rect id="Rectangle" x="0" y="0" width="64" height="64"/>
        </g>
        <path d="M37.708,25.0004058 L32.65,31.3403171 L37.967,38.0212236 L35.752,38.0212236 L31,32.0003079 L31,38.0002239 L29,38.0002239 L29,25.0004058 L31,25.0004058 L31,30.2413325 L35.463,25.0004058 L37.708,25.0004058 Z M50,36.3822466 L44,33.3822885 L44,25.0004058 C44,24.6374109 43.803,24.3024156 43.485,24.1264181 L35,19.412484 L35,12.7495773 L50,21.5724538 L50,36.3822466 Z M51.507,20.1384739 L34.507,10.1386138 C34.199,9.95761637 33.815,9.95461641 33.504,10.1326139 C33.192,10.3106114 33,10.6416068 33,11.0006018 L33,20.0004758 C33,20.3634707 33.197,20.6984661 33.515,20.8744636 L42,25.5883976 L42,34.0002799 C42,34.3792746 42.214,34.7252697 42.553,34.8952674 L50.553,38.8952114 C50.694,38.9652104 50.847,39.0002099 51,39.0002099 C51.183,39.0002099 51.365,38.9502106 51.525,38.851212 C51.82,38.6682146 52,38.3472191 52,38.0002239 L52,21.0004618 C52,20.6464668 51.812,20.3184714 51.507,20.1384739 L51.507,20.1384739 Z M32,51.8280304 L15,41.4391758 L15,21.5544541 L29,12.8045765 L29,19.4464836 L21.47,24.1524177 C21.178,24.3354152 21,24.6554107 21,25.0004058 L21,38.0002239 C21,38.351219 21.185,38.6772144 21.485,38.8572119 L31.485,44.857128 C31.789,45.0401254 32.167,45.0481253 32.479,44.8781277 L42.988,39.1462079 L48.035,42.0291675 L32,51.8280304 Z M50.496,41.1321801 L43.496,37.1322361 C43.194,36.9592385 42.825,36.9562385 42.521,37.1222362 L32.023,42.8481561 L23,37.4342318 L23,25.5543981 L30.53,20.848464 C30.822,20.6654665 31,20.345471 31,20.0004758 L31,11.0006018 C31,10.6366069 30.803,10.3026115 30.484,10.125614 C30.168,9.9486165 29.778,9.95961634 29.47,10.1526136 L13.47,20.1524737 C13.178,20.3354711 13,20.6554667 13,21.0004618 L13,42.0001679 C13,42.3481631 13.182,42.6711585 13.479,42.854156 L31.479,53.854002 C31.639,53.9510007 31.819,54 32,54 C32.181,54 32.361,53.9510007 32.521,53.854002 L50.521,42.854156 C50.823,42.6691586 51.005,42.3391632 51.0001004,41.9851681 C50.995,41.6321731 50.803,41.3071776 50.496,41.1321801 L50.496,41.1321801 Z" id="Amazon-Elastic-Kubernetes-Service_Icon_48_Squid" fill="#FFFFFF"/>
    </g>
</svg><rect x="91" y="5" width="24" height="16" rx="8" ry="8" fill="#37bb65"/><text x="103" y="14" style="font-family: sans-serif; font-size: 12px; fill: black; text-anchor: middle; dominant-baseline: middle;">2</text><text x="5" y="14" style="font-family: sans-serif; font-size: 14px; fill: black;" dominant-baseline="middle">demo</text></g></g></g><g clip-path="url(#MSSdzT4RptntgV7EKb44_)"><g transform="matrix(1, 0, 0, 1, 0, 0)" opacity="1"><g><defs><mask id="shape_module.eks.aws_eks_cluster.demo-module.eks.aws_eks_cluster.demo:1712325753935_clip"><rect x="1477.5" y="500" width="200" height="200" fill="white"/><path d="M NaN NaN L 1577.5 600 L NaN NaN" fill="none" stroke="none"/></mask></defs><g mask="url(#shape_module.eks.aws_eks_cluster.demo-module.eks.aws_eks_cluster.demo:1712325753935_clip)"><rect x="-100" y="-100" width="200" height="200" fill="transparent" stroke="none"/><path d="M1577.5,600L1577.5,600" fill="none" stroke="#1d1d1d" stroke-width="2" stroke-dasharray="none" stroke-dashoffset="none"/></g><path d="M NaN NaN L 1577.5 600 L NaN NaN" fill="none" stroke="#1d1d1d" stroke-width="2"/></g></g></g><g clip-path="url(#YxHmndx4mVGyqgKft_Rqe)"><g transform="matrix(1, 0, 0, 1, 1267.5, 300)" opacity="1"><g><rect width="120" height="120" rx="4" fill="white" stroke="black" stroke-width="2"/><text x="5" y="28" style="font-family: sans-serif; font-size: 10px; fill: #504758;" dominant-baseline="middle">Iam Role</text><clipPath id="clip-round-corners-xv4pvargl"><rect x="0" y="0" width="64" height="64" rx="4" ry="4"/></clipPath><svg width="58" height="58" viewBox="0 0 64 64" version="1.1" xmlns="http://www.w3.org/2000/svg" xmlns:xlink="http://www.w3.org/1999/xlink" x="31" y="48" clip-path="url(#clip-round-corners-xv4pvargl)">
    <title>Icon-Architecture/48/Arch_AWS-Identity-and-Access-Management_48</title>
    <g id="Icon-Architecture/48/Arch_AWS-Identity-and-Access-Management_48" stroke="none" stroke-width="1" fill="none" fill-rule="evenodd">
        <g id="Icon-Architecture-BG/48/Security-Identity-Compliance" fill="#DD344C">
            <rect id="Rectangle" x="0" y="0" width="64" height="64"/>
        </g>
        <path d="M12,47 L52,47 L52,18 L12,18 L12,47 Z M54,17 L54,48 C54,48.552 53.553,49 53,49 L11,49 C10.447,49 10,48.552 10,48 L10,17 C10,16.448 10.447,16 11,16 L53,16 C53.553,16 54,16.448 54,17 L54,17 Z M35,39 L47,39 L47,37 L35,37 L35,39 Z M45,35 L49,35 L49,33 L45,33 L45,35 Z M35,35 L41,35 L41,33 L35,33 L35,35 Z M22.5,37.5 C22.5,37.776 22.725,38 23,38 C23.275,38 23.5,37.776 23.5,37.5 C23.5,37.224 23.275,37 23,37 C22.725,37 22.5,37.224 22.5,37.5 L22.5,37.5 Z M25.5,37.5 C25.5,38.522 24.882,39.401 24,39.788 L24,42 L22,42 L22,39.788 C21.118,39.401 20.5,38.522 20.5,37.5 C20.5,36.122 21.621,35 23,35 C24.379,35 25.5,36.122 25.5,37.5 L25.5,37.5 Z M16,42.995 L29.995,43 L29.996,41 L27,41 L27,39 L29.997,39 L29.998,37 L27,37 L27,35 L29.999,35 L30,33.005 L16.005,33 L16,42.995 Z M18,31.001 L28.001,31.004 L28.002,26 C28.002,24.976 27.2,24.273 26.722,23.945 C25.847,23.345 24.174,23 23.002,23 L23,23 C20.873,23 18.003,24.232 18.002,26 L18,31.001 Z M14.293,44.701 C14.105,44.513 14,44.259 14,43.994 L14.005,32 C14.005,31.447 14.453,31 15.005,31 L16,31 L16.002,26 C16.003,22.911 19.876,21 23,21 L23.002,21 C24.567,21 26.653,21.473 27.854,22.295 C29.239,23.246 30.003,24.562 30.002,26 L30.001,31.005 L31,31.006 C31.266,31.006 31.52,31.111 31.707,31.299 C31.895,31.487 32,31.741 32,32.006 L31.995,44 C31.995,44.553 31.547,45 30.995,45 L15,44.994 C14.734,44.994 14.48,44.889 14.293,44.701 L14.293,44.701 Z M47,30 L49,30 L49,28 L47,28 L47,30 Z M35,30 L44,30 L44,28 L35,28 L35,30 Z" id="AWS-Identity-and-Access-Management_Icon_48_Squid" fill="#FFFFFF"/>
    </g>
</svg><rect x="91" y="5" width="24" height="16" rx="8" ry="8" fill="#37bb65"/><text x="103" y="14" style="font-family: sans-serif; font-size: 12px; fill: black; text-anchor: middle; dominant-baseline: middle;">3</text><text x="5" y="14" style="font-family: sans-serif; font-size: 14px; fill: black;" dominant-baseline="middle">demo-clu...</text></g></g></g><g clip-path="url(#HcKMMuARxOVt6Ve3osjub)"><g transform="matrix(1, 0, 0, 1, 0, 0)" opacity="1"><g><defs><mask id="shape_module.eks.aws_iam_role.demo-cluster-module.eks.aws_iam_role.demo-cluster:1712325753935_clip"><rect x="1227.5" y="260" width="200" height="200" fill="white"/><path d="M NaN NaN L 1327.5 360 L NaN NaN" fill="none" stroke="none"/></mask></defs><g mask="url(#shape_module.eks.aws_iam_role.demo-cluster-module.eks.aws_iam_role.demo-cluster:1712325753935_clip)"><rect x="-100" y="-100" width="200" height="200" fill="transparent" stroke="none"/><path d="M1327.5,360L1327.5,360" fill="none" stroke="#1d1d1d" stroke-width="2" stroke-dasharray="none" stroke-dashoffset="none"/></g><path d="M NaN NaN L 1327.5 360 L NaN NaN" fill="none" stroke="#1d1d1d" stroke-width="2"/></g></g></g><g clip-path="url(#4mCqGVe5yI-cmiOPGOZJQ)"><g transform="matrix(1, 0, 0, 1, 0, 0)" opacity="1"><g><defs><mask id="shape_module.eks.aws_iam_role.demo-cluster-module.eks.aws_eks_cluster.demo:1712325753935_clip"><rect x="1287.5" y="317.6" width="322.0647394686596" height="317.18214988991315" fill="white"/><path d="M 1507.893896477344 529.0194869899709 L 1509.5647394686596 534.7821498899132 L 1503.7387055082056 533.3478109161566" fill="none" stroke="none"/></mask></defs><g mask="url(#shape_module.eks.aws_iam_role.demo-cluster-module.eks.aws_eks_cluster.demo:1712325753935_clip)"><rect x="-100" y="-100" width="322.0647394686596" height="317.18214988991315" fill="transparent" stroke="none"/><path d="M1387.5,417.6L1509.5647394686596,534.7821498899132" fill="none" stroke="#1d1d1d" stroke-width="2" stroke-dasharray="none" stroke-dashoffset="none"/></g><path d="M 1507.893896477344 529.0194869899709 L 1509.5647394686596 534.7821498899132 L 1503.7387055082056 533.3478109161566" fill="none" stroke="#1d1d1d" stroke-width="2"/></g></g></g><g clip-path="url(#_AiK47hyrXXWdhudoQZYm)"><g transform="matrix(1, 0, 0, 1, 1467.5, 300)" opacity="1"><g><rect width="120" height="120" rx="4" fill="white" stroke="black" stroke-width="2"/><text x="5" y="28" style="font-family: sans-serif; font-size: 10px; fill: #504758;" dominant-baseline="middle">Iam Role</text><clipPath id="clip-round-corners-ztr4jyb1e"><rect x="0" y="0" width="64" height="64" rx="4" ry="4"/></clipPath><svg width="58" height="58" viewBox="0 0 64 64" version="1.1" xmlns="http://www.w3.org/2000/svg" xmlns:xlink="http://www.w3.org/1999/xlink" x="31" y="48" clip-path="url(#clip-round-corners-ztr4jyb1e)">
    <title>Icon-Architecture/48/Arch_AWS-Identity-and-Access-Management_48</title>
    <g id="Icon-Architecture/48/Arch_AWS-Identity-and-Access-Management_48" stroke="none" stroke-width="1" fill="none" fill-rule="evenodd">
        <g id="Icon-Architecture-BG/48/Security-Identity-Compliance" fill="#DD344C">
            <rect id="Rectangle" x="0" y="0" width="64" height="64"/>
        </g>
        <path d="M12,47 L52,47 L52,18 L12,18 L12,47 Z M54,17 L54,48 C54,48.552 53.553,49 53,49 L11,49 C10.447,49 10,48.552 10,48 L10,17 C10,16.448 10.447,16 11,16 L53,16 C53.553,16 54,16.448 54,17 L54,17 Z M35,39 L47,39 L47,37 L35,37 L35,39 Z M45,35 L49,35 L49,33 L45,33 L45,35 Z M35,35 L41,35 L41,33 L35,33 L35,35 Z M22.5,37.5 C22.5,37.776 22.725,38 23,38 C23.275,38 23.5,37.776 23.5,37.5 C23.5,37.224 23.275,37 23,37 C22.725,37 22.5,37.224 22.5,37.5 L22.5,37.5 Z M25.5,37.5 C25.5,38.522 24.882,39.401 24,39.788 L24,42 L22,42 L22,39.788 C21.118,39.401 20.5,38.522 20.5,37.5 C20.5,36.122 21.621,35 23,35 C24.379,35 25.5,36.122 25.5,37.5 L25.5,37.5 Z M16,42.995 L29.995,43 L29.996,41 L27,41 L27,39 L29.997,39 L29.998,37 L27,37 L27,35 L29.999,35 L30,33.005 L16.005,33 L16,42.995 Z M18,31.001 L28.001,31.004 L28.002,26 C28.002,24.976 27.2,24.273 26.722,23.945 C25.847,23.345 24.174,23 23.002,23 L23,23 C20.873,23 18.003,24.232 18.002,26 L18,31.001 Z M14.293,44.701 C14.105,44.513 14,44.259 14,43.994 L14.005,32 C14.005,31.447 14.453,31 15.005,31 L16,31 L16.002,26 C16.003,22.911 19.876,21 23,21 L23.002,21 C24.567,21 26.653,21.473 27.854,22.295 C29.239,23.246 30.003,24.562 30.002,26 L30.001,31.005 L31,31.006 C31.266,31.006 31.52,31.111 31.707,31.299 C31.895,31.487 32,31.741 32,32.006 L31.995,44 C31.995,44.553 31.547,45 30.995,45 L15,44.994 C14.734,44.994 14.48,44.889 14.293,44.701 L14.293,44.701 Z M47,30 L49,30 L49,28 L47,28 L47,30 Z M35,30 L44,30 L44,28 L35,28 L35,30 Z" id="AWS-Identity-and-Access-Management_Icon_48_Squid" fill="#FFFFFF"/>
    </g>
</svg><rect x="91" y="5" width="24" height="16" rx="8" ry="8" fill="#37bb65"/><text x="103" y="14" style="font-family: sans-serif; font-size: 12px; fill: black; text-anchor: middle; dominant-baseline: middle;">4</text><text x="5" y="14" style="font-family: sans-serif; font-size: 14px; fill: black;" dominant-baseline="middle">demo-node</text></g></g></g><g clip-path="url(#f847JG9gO2VhpDpdOmAmd)"><g transform="matrix(1, 0, 0, 1, 0, 0)" opacity="1"><g><defs><mask id="shape_module.eks.aws_iam_role.demo-node-module.eks.aws_iam_role.demo-node:1712325753935_clip"><rect x="1427.5" y="260" width="200" height="200" fill="white"/><path d="M NaN NaN L 1527.5 360 L NaN NaN" fill="none" stroke="none"/></mask></defs><g mask="url(#shape_module.eks.aws_iam_role.demo-node-module.eks.aws_iam_role.demo-node:1712325753935_clip)"><rect x="-100" y="-100" width="200" height="200" fill="transparent" stroke="none"/><path d="M1527.5,360L1527.5,360" fill="none" stroke="#1d1d1d" stroke-width="2" stroke-dasharray="none" stroke-dashoffset="none"/></g><path d="M NaN NaN L 1527.5 360 L NaN NaN" fill="none" stroke="#1d1d1d" stroke-width="2"/></g></g></g><g clip-path="url(#mkl5uQyFgUaix6Z460rTw)"><g transform="matrix(1, 0, 0, 1, 0, 0)" opacity="1"><g><defs><mask id="shape_module.eks.aws_iam_role.demo-node-module.eks.aws_eks_cluster.demo:1712325753935_clip"><rect x="1440" y="320" width="222.75650320476802" height="309.2312153828864" fill="white"/><path d="M 1564.6336670723554 523.5324211407484 L 1562.756503204768 529.2312153828864 L 1558.7597845539296 524.7561466654205" fill="none" stroke="none"/></mask></defs><g mask="url(#shape_module.eks.aws_iam_role.demo-node-module.eks.aws_eks_cluster.demo:1712325753935_clip)"><rect x="-100" y="-100" width="222.75650320476802" height="309.2312153828864" fill="transparent" stroke="none"/><path d="M1540,420L1562.756503204768,529.2312153828864" fill="none" stroke="#1d1d1d" stroke-width="2" stroke-dasharray="none" stroke-dashoffset="none"/></g><path d="M 1564.6336670723554 523.5324211407484 L 1562.756503204768 529.2312153828864 L 1558.7597845539296 524.7561466654205" fill="none" stroke="#1d1d1d" stroke-width="2"/></g></g></g><g clip-path="url(#Zv3vslwdkpFukj_HMy_WY)"><g transform="matrix(1, 0, 0, 1, 1740, 540)" opacity="1"><g><rect width="120" height="120" rx="4" fill="white" stroke="black" stroke-width="2"/><text x="5" y="28" style="font-family: sans-serif; font-size: 10px; fill: #504758;" dominant-baseline="middle">Internet Gateway</text><clipPath id="clip-round-corners-181y77r1r"><rect x="0" y="0" width="64" height="64" rx="4" ry="4"/></clipPath><svg width="58" height="58" viewBox="0 0 64 64" version="1.1" xmlns="http://www.w3.org/2000/svg" xmlns:xlink="http://www.w3.org/1999/xlink" x="31" y="48" clip-path="url(#clip-round-corners-181y77r1r)">
    <title>Icon-Architecture/48/Arch_Amazon-Virtual-Private-Cloud_48</title>
    <g id="Icon-Architecture/48/Arch_Amazon-Virtual-Private-Cloud_48" stroke="none" stroke-width="1" fill="none" fill-rule="evenodd">
        <g id="Icon-Architecture-BG/48/Networking-Content-Delivery" fill="#8C4FFF">
            <rect id="Rectangle" x="0" y="0" width="64" height="64"/>
        </g>
        <path d="M48,33.9772867 L44.499,32.5082867 L44.499,46.8782867 C47.906,46.1472867 47.998,42.1812867 48,41.9952867 L48,33.9772867 Z M42.499,46.9232867 L42.499,32.5082867 L39,33.9772867 L39,42.0042867 C39.008,42.4662867 39.183,46.3392867 42.499,46.9232867 L42.499,46.9232867 Z M43.112,30.0822867 C43.358,29.9772867 43.638,29.9782867 43.886,30.0812867 L49.387,32.3902867 C49.759,32.5462867 50,32.9092867 50,33.3122867 L50,42.0042867 C49.978,44.4312867 48.562,49.0042867 43.37,49.0042867 C38.393,49.0042867 37.026,44.4322867 37,42.0152867 L37,33.3122867 C37,32.9092867 37.241,32.5462867 37.613,32.3902867 L43.112,30.0822867 Z M52,30.7922867 L43.492,27.0922867 L34.9998912,30.6682867 L34.9998912,41.0252867 C34.999,41.0902867 34.963,46.0092867 37.807,48.8942867 C39.187,50.2942867 41.059,51.0042867 43.37,51.0042867 C51.808,51.0042867 51.996,41.4252867 52,41.0182867 L52,30.7922867 Z M54,30.1362867 L54,41.0252867 C53.973,45.1732867 51.716,53.0042867 43.37,53.0042867 C40.498,53.0042867 38.145,52.0902867 36.373,50.2882867 C32.941,46.7972867 32.996,41.2432867 33,41.0082867 L33,30.0042867 C33,29.6022867 33.241,29.2382867 33.612,29.0822867 L43.111,25.0822867 C43.363,24.9762867 43.647,24.9782867 43.897,25.0872867 L53.398,29.2192867 C53.764,29.3782867 54,29.7382867 54,30.1362867 L54,30.1362867 Z M19,38.0042867 L30,38.0042867 L30,40.0042867 L19,40.0042867 C14.216,40.0042867 10.271,36.4832867 10.02,31.9882867 C10.002,31.8132867 10,31.5992867 10,31.3852867 C10,26.0862867 13.654,24.0382867 15.919,23.2782867 C15.902,23.0632867 15.891,22.8432867 15.891,22.6262867 C15.891,18.0392867 18.658,13.7012867 22.621,12.0792867 C27.58,10.0492867 33.235,10.9372867 36.695,14.2852867 C37.718,15.2822867 38.604,16.5962867 39.343,18.2062867 C40.299,17.4222867 41.392,17.0042867 42.523,17.0042867 C45.234,17.0042867 48.281,19.2962867 48.9,23.0622867 C51.069,23.3442867 52.936,24.6392867 53.896,26.5822867 L52.104,27.4692867 C51.34,25.9252867 49.806,25.0042867 48,25.0042867 C47.471,25.0042867 47.033,24.5912867 47.002,24.0632867 C46.807,20.7622867 44.275,19.0042867 42.523,19.0042867 C41.55,19.0042867 40.582,19.5742867 39.797,20.6082867 C39.575,20.8992867 39.215,21.0482867 38.852,20.9932867 C38.49,20.9382867 38.187,20.6912867 38.062,20.3482867 C37.327,18.3462867 36.398,16.7892867 35.302,15.7202867 C32.406,12.9172867 27.615,12.1962867 23.379,13.9302867 C19.775,15.4052867 17.891,19.4212867 17.891,22.6262867 C17.891,23.0262867 17.947,23.5032867 17.993,23.8862867 C18.053,24.3862867 17.73,24.8532867 17.24,24.9752867 C15.283,25.4592867 12,26.9372867 12,31.3852867 C12,31.5352867 11.998,31.6852867 12.013,31.8362867 C12.209,35.3122867 15.276,38.0042867 19,38.0042867 L19,38.0042867 Z" id="Amazon-Virtual-Private-Cloud_Icon_48_Squid" fill="#FFFFFF"/>
    </g>
</svg><rect x="91" y="5" width="24" height="16" rx="8" ry="8" fill="#37bb65"/><text x="103" y="14" style="font-family: sans-serif; font-size: 12px; fill: black; text-anchor: middle; dominant-baseline: middle;">4</text><text x="5" y="14" style="font-family: sans-serif; font-size: 14px; fill: black;" dominant-baseline="middle">demo</text></g></g></g><g clip-path="url(#OvNrSzu4bpMet1NxwzBwi)"><g transform="matrix(1, 0, 0, 1, 0, 0)" opacity="1"><g><defs><mask id="shape_module.eks.aws_internet_gateway.demo-module.eks.aws_internet_gateway.demo:1712325753935_clip"><rect x="1700" y="500" width="200" height="200" fill="white"/><path d="M NaN NaN L 1800 600 L NaN NaN" fill="none" stroke="none"/></mask></defs><g mask="url(#shape_module.eks.aws_internet_gateway.demo-module.eks.aws_internet_gateway.demo:1712325753935_clip)"><rect x="-100" y="-100" width="200" height="200" fill="transparent" stroke="none"/><path d="M1800,600L1800,600" fill="none" stroke="#1d1d1d" stroke-width="2" stroke-dasharray="none" stroke-dashoffset="none"/></g><path d="M NaN NaN L 1800 600 L NaN NaN" fill="none" stroke="#1d1d1d" stroke-width="2"/></g></g></g><g clip-path="url(#V1LQ2LB9vRuqb17tpNXFu)"><g transform="matrix(1, 0, 0, 1, 1725, 300)" opacity="1"><g><rect width="120" height="120" rx="4" fill="white" stroke="black" stroke-width="2"/><text x="5" y="28" style="font-family: sans-serif; font-size: 10px; fill: #504758;" dominant-baseline="middle">Security Group</text><clipPath id="clip-round-corners-nxmlqkhkr"><rect x="0" y="0" width="64" height="64" rx="4" ry="4"/></clipPath><svg width="58" height="58" viewBox="0 0 64 64" version="1.1" xmlns="http://www.w3.org/2000/svg" xmlns:xlink="http://www.w3.org/1999/xlink" x="31" y="48" clip-path="url(#clip-round-corners-nxmlqkhkr)">
    <title>Icon-Architecture/48/Arch_Amazon-Virtual-Private-Cloud_48</title>
    <g id="Icon-Architecture/48/Arch_Amazon-Virtual-Private-Cloud_48" stroke="none" stroke-width="1" fill="none" fill-rule="evenodd">
        <g id="Icon-Architecture-BG/48/Networking-Content-Delivery" fill="#8C4FFF">
            <rect id="Rectangle" x="0" y="0" width="64" height="64"/>
        </g>
        <path d="M48,33.9772867 L44.499,32.5082867 L44.499,46.8782867 C47.906,46.1472867 47.998,42.1812867 48,41.9952867 L48,33.9772867 Z M42.499,46.9232867 L42.499,32.5082867 L39,33.9772867 L39,42.0042867 C39.008,42.4662867 39.183,46.3392867 42.499,46.9232867 L42.499,46.9232867 Z M43.112,30.0822867 C43.358,29.9772867 43.638,29.9782867 43.886,30.0812867 L49.387,32.3902867 C49.759,32.5462867 50,32.9092867 50,33.3122867 L50,42.0042867 C49.978,44.4312867 48.562,49.0042867 43.37,49.0042867 C38.393,49.0042867 37.026,44.4322867 37,42.0152867 L37,33.3122867 C37,32.9092867 37.241,32.5462867 37.613,32.3902867 L43.112,30.0822867 Z M52,30.7922867 L43.492,27.0922867 L34.9998912,30.6682867 L34.9998912,41.0252867 C34.999,41.0902867 34.963,46.0092867 37.807,48.8942867 C39.187,50.2942867 41.059,51.0042867 43.37,51.0042867 C51.808,51.0042867 51.996,41.4252867 52,41.0182867 L52,30.7922867 Z M54,30.1362867 L54,41.0252867 C53.973,45.1732867 51.716,53.0042867 43.37,53.0042867 C40.498,53.0042867 38.145,52.0902867 36.373,50.2882867 C32.941,46.7972867 32.996,41.2432867 33,41.0082867 L33,30.0042867 C33,29.6022867 33.241,29.2382867 33.612,29.0822867 L43.111,25.0822867 C43.363,24.9762867 43.647,24.9782867 43.897,25.0872867 L53.398,29.2192867 C53.764,29.3782867 54,29.7382867 54,30.1362867 L54,30.1362867 Z M19,38.0042867 L30,38.0042867 L30,40.0042867 L19,40.0042867 C14.216,40.0042867 10.271,36.4832867 10.02,31.9882867 C10.002,31.8132867 10,31.5992867 10,31.3852867 C10,26.0862867 13.654,24.0382867 15.919,23.2782867 C15.902,23.0632867 15.891,22.8432867 15.891,22.6262867 C15.891,18.0392867 18.658,13.7012867 22.621,12.0792867 C27.58,10.0492867 33.235,10.9372867 36.695,14.2852867 C37.718,15.2822867 38.604,16.5962867 39.343,18.2062867 C40.299,17.4222867 41.392,17.0042867 42.523,17.0042867 C45.234,17.0042867 48.281,19.2962867 48.9,23.0622867 C51.069,23.3442867 52.936,24.6392867 53.896,26.5822867 L52.104,27.4692867 C51.34,25.9252867 49.806,25.0042867 48,25.0042867 C47.471,25.0042867 47.033,24.5912867 47.002,24.0632867 C46.807,20.7622867 44.275,19.0042867 42.523,19.0042867 C41.55,19.0042867 40.582,19.5742867 39.797,20.6082867 C39.575,20.8992867 39.215,21.0482867 38.852,20.9932867 C38.49,20.9382867 38.187,20.6912867 38.062,20.3482867 C37.327,18.3462867 36.398,16.7892867 35.302,15.7202867 C32.406,12.9172867 27.615,12.1962867 23.379,13.9302867 C19.775,15.4052867 17.891,19.4212867 17.891,22.6262867 C17.891,23.0262867 17.947,23.5032867 17.993,23.8862867 C18.053,24.3862867 17.73,24.8532867 17.24,24.9752867 C15.283,25.4592867 12,26.9372867 12,31.3852867 C12,31.5352867 11.998,31.6852867 12.013,31.8362867 C12.209,35.3122867 15.276,38.0042867 19,38.0042867 L19,38.0042867 Z" id="Amazon-Virtual-Private-Cloud_Icon_48_Squid" fill="#FFFFFF"/>
    </g>
</svg><rect x="91" y="5" width="24" height="16" rx="8" ry="8" fill="#37bb65"/><text x="103" y="14" style="font-family: sans-serif; font-size: 12px; fill: black; text-anchor: middle; dominant-baseline: middle;">2</text><text x="5" y="14" style="font-family: sans-serif; font-size: 14px; fill: black;" dominant-baseline="middle">demo-clu...</text></g></g></g><g clip-path="url(#XYOqfngiriIOvIQsN0rHf)"><g transform="matrix(1, 0, 0, 1, 0, 0)" opacity="1"><g><defs><mask id="shape_module.eks.aws_security_group.demo-cluster-module.eks.aws_security_group.demo-cluster:1712325753935_clip"><rect x="1685" y="260" width="200" height="200" fill="white"/><path d="M NaN NaN L 1785 360 L NaN NaN" fill="none" stroke="none"/></mask></defs><g mask="url(#shape_module.eks.aws_security_group.demo-cluster-module.eks.aws_security_group.demo-cluster:1712325753935_clip)"><rect x="-100" y="-100" width="200" height="200" fill="transparent" stroke="none"/><path d="M1785,360L1785,360" fill="none" stroke="#1d1d1d" stroke-width="2" stroke-dasharray="none" stroke-dashoffset="none"/></g><path d="M NaN NaN L 1785 360 L NaN NaN" fill="none" stroke="#1d1d1d" stroke-width="2"/></g></g></g><g clip-path="url(#hgditt8gP2NSM6RhsyYOC)"><g transform="matrix(1, 0, 0, 1, 0, 0)" opacity="1"><g><defs><mask id="shape_module.eks.aws_security_group.demo-cluster-module.eks.aws_eks_cluster.demo:1712325753935_clip"><rect x="1536.5693309635462" y="320" width="296.55566903645376" height="311.67884611445265" fill="white"/><path d="M 1642.2371765928758 529.7102105661378 L 1636.5693309635462 531.6788461144527 L 1637.6983653825773 525.7860300405672" fill="none" stroke="none"/></mask></defs><g mask="url(#shape_module.eks.aws_security_group.demo-cluster-module.eks.aws_eks_cluster.demo:1712325753935_clip)"><rect x="-100" y="-100" width="296.55566903645376" height="311.67884611445265" fill="transparent" stroke="none"/><path d="M1733.125,420L1636.5693309635462,531.6788461144527" fill="none" stroke="#1d1d1d" stroke-width="2" stroke-dasharray="none" stroke-dashoffset="none"/></g><path d="M 1642.2371765928758 529.7102105661378 L 1636.5693309635462 531.6788461144527 L 1637.6983653825773 525.7860300405672" fill="none" stroke="#1d1d1d" stroke-width="2"/></g></g></g><g clip-path="url(#6_6LCXY8PmbGlQxEWIent)"><g transform="matrix(1, 0, 0, 1, 1925, 300)" opacity="1"><g><rect width="120" height="120" rx="4" fill="white" stroke="black" stroke-width="2"/><text x="5" y="28" style="font-family: sans-serif; font-size: 10px; fill: #504758;" dominant-baseline="middle">Subnet</text><clipPath id="clip-round-corners-nm2ql1lc6"><rect x="0" y="0" width="64" height="64" rx="4" ry="4"/></clipPath><svg width="58" height="58" viewBox="0 0 64 64" version="1.1" xmlns="http://www.w3.org/2000/svg" xmlns:xlink="http://www.w3.org/1999/xlink" x="31" y="48" clip-path="url(#clip-round-corners-nm2ql1lc6)">
    <title>Icon-Architecture/48/Arch_Amazon-Virtual-Private-Cloud_48</title>
    <g id="Icon-Architecture/48/Arch_Amazon-Virtual-Private-Cloud_48" stroke="none" stroke-width="1" fill="none" fill-rule="evenodd">
        <g id="Icon-Architecture-BG/48/Networking-Content-Delivery" fill="#8C4FFF">
            <rect id="Rectangle" x="0" y="0" width="64" height="64"/>
        </g>
        <path d="M48,33.9772867 L44.499,32.5082867 L44.499,46.8782867 C47.906,46.1472867 47.998,42.1812867 48,41.9952867 L48,33.9772867 Z M42.499,46.9232867 L42.499,32.5082867 L39,33.9772867 L39,42.0042867 C39.008,42.4662867 39.183,46.3392867 42.499,46.9232867 L42.499,46.9232867 Z M43.112,30.0822867 C43.358,29.9772867 43.638,29.9782867 43.886,30.0812867 L49.387,32.3902867 C49.759,32.5462867 50,32.9092867 50,33.3122867 L50,42.0042867 C49.978,44.4312867 48.562,49.0042867 43.37,49.0042867 C38.393,49.0042867 37.026,44.4322867 37,42.0152867 L37,33.3122867 C37,32.9092867 37.241,32.5462867 37.613,32.3902867 L43.112,30.0822867 Z M52,30.7922867 L43.492,27.0922867 L34.9998912,30.6682867 L34.9998912,41.0252867 C34.999,41.0902867 34.963,46.0092867 37.807,48.8942867 C39.187,50.2942867 41.059,51.0042867 43.37,51.0042867 C51.808,51.0042867 51.996,41.4252867 52,41.0182867 L52,30.7922867 Z M54,30.1362867 L54,41.0252867 C53.973,45.1732867 51.716,53.0042867 43.37,53.0042867 C40.498,53.0042867 38.145,52.0902867 36.373,50.2882867 C32.941,46.7972867 32.996,41.2432867 33,41.0082867 L33,30.0042867 C33,29.6022867 33.241,29.2382867 33.612,29.0822867 L43.111,25.0822867 C43.363,24.9762867 43.647,24.9782867 43.897,25.0872867 L53.398,29.2192867 C53.764,29.3782867 54,29.7382867 54,30.1362867 L54,30.1362867 Z M19,38.0042867 L30,38.0042867 L30,40.0042867 L19,40.0042867 C14.216,40.0042867 10.271,36.4832867 10.02,31.9882867 C10.002,31.8132867 10,31.5992867 10,31.3852867 C10,26.0862867 13.654,24.0382867 15.919,23.2782867 C15.902,23.0632867 15.891,22.8432867 15.891,22.6262867 C15.891,18.0392867 18.658,13.7012867 22.621,12.0792867 C27.58,10.0492867 33.235,10.9372867 36.695,14.2852867 C37.718,15.2822867 38.604,16.5962867 39.343,18.2062867 C40.299,17.4222867 41.392,17.0042867 42.523,17.0042867 C45.234,17.0042867 48.281,19.2962867 48.9,23.0622867 C51.069,23.3442867 52.936,24.6392867 53.896,26.5822867 L52.104,27.4692867 C51.34,25.9252867 49.806,25.0042867 48,25.0042867 C47.471,25.0042867 47.033,24.5912867 47.002,24.0632867 C46.807,20.7622867 44.275,19.0042867 42.523,19.0042867 C41.55,19.0042867 40.582,19.5742867 39.797,20.6082867 C39.575,20.8992867 39.215,21.0482867 38.852,20.9932867 C38.49,20.9382867 38.187,20.6912867 38.062,20.3482867 C37.327,18.3462867 36.398,16.7892867 35.302,15.7202867 C32.406,12.9172867 27.615,12.1962867 23.379,13.9302867 C19.775,15.4052867 17.891,19.4212867 17.891,22.6262867 C17.891,23.0262867 17.947,23.5032867 17.993,23.8862867 C18.053,24.3862867 17.73,24.8532867 17.24,24.9752867 C15.283,25.4592867 12,26.9372867 12,31.3852867 C12,31.5352867 11.998,31.6852867 12.013,31.8362867 C12.209,35.3122867 15.276,38.0042867 19,38.0042867 L19,38.0042867 Z" id="Amazon-Virtual-Private-Cloud_Icon_48_Squid" fill="#FFFFFF"/>
    </g>
</svg><rect x="91" y="5" width="24" height="16" rx="8" ry="8" fill="#37bb65"/><text x="103" y="14" style="font-family: sans-serif; font-size: 12px; fill: black; text-anchor: middle; dominant-baseline: middle;">2</text><text x="5" y="14" style="font-family: sans-serif; font-size: 14px; fill: black;" dominant-baseline="middle">demo</text></g></g></g><g clip-path="url(#Ol5dl3ZkBecHQcixwg6_Y)"><g transform="matrix(1, 0, 0, 1, 0, 0)" opacity="1"><g><defs><mask id="shape_module.eks.aws_subnet.demo-module.eks.aws_internet_gateway.demo:1712325753935_clip"><rect x="1752.9655864637323" y="320" width="285.7844135362677" height="311.2878878308337" fill="white"/><path d="M 1858.5139089529066 529.0040057068784 L 1852.9655864637323 531.2878878308337 L 1853.761847769725 525.3409585448426" fill="none" stroke="none"/></mask></defs><g mask="url(#shape_module.eks.aws_subnet.demo-module.eks.aws_internet_gateway.demo:1712325753935_clip)"><rect x="-100" y="-100" width="285.7844135362677" height="311.2878878308337" fill="transparent" stroke="none"/><path d="M1938.75,420L1852.9655864637323,531.2878878308337" fill="none" stroke="#1d1d1d" stroke-width="2" stroke-dasharray="none" stroke-dashoffset="none"/></g><path d="M 1858.5139089529066 529.0040057068784 L 1852.9655864637323 531.2878878308337 L 1853.761847769725 525.3409585448426" fill="none" stroke="#1d1d1d" stroke-width="2"/></g></g></g><g clip-path="url(#zcbWx_JlHOI60e3txqTqn)"><g transform="matrix(1, 0, 0, 1, 0, 0)" opacity="1"><g><defs><mask id="shape_module.eks.aws_subnet.demo-module.eks.aws_eks_cluster.demo:1712325753935_clip"><rect x="1546.9782853392328" y="295.33742331288346" width="478.0217146607672" height="363.74285035235374" fill="white"/><path d="M 1652.97806028416 559.0283062694441 L 1646.9782853392328 559.0802736652372 L 1649.933167726771 553.8583324480444" fill="none" stroke="none"/></mask></defs><g mask="url(#shape_module.eks.aws_subnet.demo-module.eks.aws_eks_cluster.demo:1712325753935_clip)"><rect x="-100" y="-100" width="478.0217146607672" height="363.74285035235374" fill="transparent" stroke="none"/><path d="M1925,395.33742331288346L1646.9782853392328,559.0802736652372" fill="none" stroke="#1d1d1d" stroke-width="2" stroke-dasharray="none" stroke-dashoffset="none"/></g><path d="M 1652.97806028416 559.0283062694441 L 1646.9782853392328 559.0802736652372 L 1649.933167726771 553.8583324480444" fill="none" stroke="#1d1d1d" stroke-width="2"/></g></g></g><g clip-path="url(#M3wQTCsYh3LA5AdF0xv6P)"><g transform="matrix(1, 0, 0, 1, 1730, 60)" opacity="1"><g><rect width="120" height="120" rx="4" fill="white" stroke="black" stroke-width="2"/><text x="5" y="28" style="font-family: sans-serif; font-size: 10px; fill: #504758;" dominant-baseline="middle">Vpc</text><clipPath id="clip-round-corners-i2j3eqmrb"><rect x="0" y="0" width="64" height="64" rx="4" ry="4"/></clipPath><svg width="58" height="58" viewBox="0 0 64 64" version="1.1" xmlns="http://www.w3.org/2000/svg" xmlns:xlink="http://www.w3.org/1999/xlink" x="31" y="48" clip-path="url(#clip-round-corners-i2j3eqmrb)">
    <title>Icon-Architecture/48/Arch_Amazon-Virtual-Private-Cloud_48</title>
    <g id="Icon-Architecture/48/Arch_Amazon-Virtual-Private-Cloud_48" stroke="none" stroke-width="1" fill="none" fill-rule="evenodd">
        <g id="Icon-Architecture-BG/48/Networking-Content-Delivery" fill="#8C4FFF">
            <rect id="Rectangle" x="0" y="0" width="64" height="64"/>
        </g>
        <path d="M48,33.9772867 L44.499,32.5082867 L44.499,46.8782867 C47.906,46.1472867 47.998,42.1812867 48,41.9952867 L48,33.9772867 Z M42.499,46.9232867 L42.499,32.5082867 L39,33.9772867 L39,42.0042867 C39.008,42.4662867 39.183,46.3392867 42.499,46.9232867 L42.499,46.9232867 Z M43.112,30.0822867 C43.358,29.9772867 43.638,29.9782867 43.886,30.0812867 L49.387,32.3902867 C49.759,32.5462867 50,32.9092867 50,33.3122867 L50,42.0042867 C49.978,44.4312867 48.562,49.0042867 43.37,49.0042867 C38.393,49.0042867 37.026,44.4322867 37,42.0152867 L37,33.3122867 C37,32.9092867 37.241,32.5462867 37.613,32.3902867 L43.112,30.0822867 Z M52,30.7922867 L43.492,27.0922867 L34.9998912,30.6682867 L34.9998912,41.0252867 C34.999,41.0902867 34.963,46.0092867 37.807,48.8942867 C39.187,50.2942867 41.059,51.0042867 43.37,51.0042867 C51.808,51.0042867 51.996,41.4252867 52,41.0182867 L52,30.7922867 Z M54,30.1362867 L54,41.0252867 C53.973,45.1732867 51.716,53.0042867 43.37,53.0042867 C40.498,53.0042867 38.145,52.0902867 36.373,50.2882867 C32.941,46.7972867 32.996,41.2432867 33,41.0082867 L33,30.0042867 C33,29.6022867 33.241,29.2382867 33.612,29.0822867 L43.111,25.0822867 C43.363,24.9762867 43.647,24.9782867 43.897,25.0872867 L53.398,29.2192867 C53.764,29.3782867 54,29.7382867 54,30.1362867 L54,30.1362867 Z M19,38.0042867 L30,38.0042867 L30,40.0042867 L19,40.0042867 C14.216,40.0042867 10.271,36.4832867 10.02,31.9882867 C10.002,31.8132867 10,31.5992867 10,31.3852867 C10,26.0862867 13.654,24.0382867 15.919,23.2782867 C15.902,23.0632867 15.891,22.8432867 15.891,22.6262867 C15.891,18.0392867 18.658,13.7012867 22.621,12.0792867 C27.58,10.0492867 33.235,10.9372867 36.695,14.2852867 C37.718,15.2822867 38.604,16.5962867 39.343,18.2062867 C40.299,17.4222867 41.392,17.0042867 42.523,17.0042867 C45.234,17.0042867 48.281,19.2962867 48.9,23.0622867 C51.069,23.3442867 52.936,24.6392867 53.896,26.5822867 L52.104,27.4692867 C51.34,25.9252867 49.806,25.0042867 48,25.0042867 C47.471,25.0042867 47.033,24.5912867 47.002,24.0632867 C46.807,20.7622867 44.275,19.0042867 42.523,19.0042867 C41.55,19.0042867 40.582,19.5742867 39.797,20.6082867 C39.575,20.8992867 39.215,21.0482867 38.852,20.9932867 C38.49,20.9382867 38.187,20.6912867 38.062,20.3482867 C37.327,18.3462867 36.398,16.7892867 35.302,15.7202867 C32.406,12.9172867 27.615,12.1962867 23.379,13.9302867 C19.775,15.4052867 17.891,19.4212867 17.891,22.6262867 C17.891,23.0262867 17.947,23.5032867 17.993,23.8862867 C18.053,24.3862867 17.73,24.8532867 17.24,24.9752867 C15.283,25.4592867 12,26.9372867 12,31.3852867 C12,31.5352867 11.998,31.6852867 12.013,31.8362867 C12.209,35.3122867 15.276,38.0042867 19,38.0042867 L19,38.0042867 Z" id="Amazon-Virtual-Private-Cloud_Icon_48_Squid" fill="#FFFFFF"/>
    </g>
</svg><rect x="91" y="5" width="24" height="16" rx="8" ry="8" fill="#37bb65"/><text x="103" y="14" style="font-family: sans-serif; font-size: 12px; fill: black; text-anchor: middle; dominant-baseline: middle;">1</text><text x="5" y="14" style="font-family: sans-serif; font-size: 14px; fill: black;" dominant-baseline="middle">demo</text></g></g></g><g clip-path="url(#-k2W7uxqxiv1H9RbUkVGl)"><g transform="matrix(1, 0, 0, 1, 0, 0)" opacity="1"><g><defs><mask id="shape_module.eks.aws_vpc.demo-module.eks.aws_internet_gateway.demo:1712325753935_clip"><rect x="1691.25" y="80" width="207.27088304949984" height="549.0023863759908" fill="white"/><path d="M 1801.4120025290092 523.7448747825464 L 1798.5208830494998 529.0023863759908 L 1795.4133041886405 523.8698476646374" fill="none" stroke="none"/></mask></defs><g mask="url(#shape_module.eks.aws_vpc.demo-module.eks.aws_internet_gateway.demo:1712325753935_clip)"><rect x="-100" y="-100" width="207.27088304949984" height="549.0023863759908" fill="transparent" stroke="none"/><path d="M1791.25,180L1798.5208830494998,529.0023863759908" fill="none" stroke="#1d1d1d" stroke-width="2" stroke-dasharray="none" stroke-dashoffset="none"/></g><path d="M 1801.4120025290092 523.7448747825464 L 1798.5208830494998 529.0023863759908 L 1795.4133041886405 523.8698476646374" fill="none" stroke="#1d1d1d" stroke-width="2"/></g></g></g><g clip-path="url(#hiq_NKYYC-kYmnaTvJOlQ)"><g transform="matrix(1, 0, 0, 1, 0, 0)" opacity="1"><g><defs><mask id="shape_module.eks.aws_vpc.demo-module.eks.aws_security_group.demo-cluster:1712325753935_clip"><rect x="1686.4791169505002" y="80" width="202.27088304949984" height="309.0023863759908" fill="white"/><path d="M 1789.5866958113595 283.8698476646375 L 1786.4791169505002 289.0023863759908 L 1783.5879974709908 283.7448747825465" fill="none" stroke="none"/></mask></defs><g mask="url(#shape_module.eks.aws_vpc.demo-module.eks.aws_security_group.demo-cluster:1712325753935_clip)"><rect x="-100" y="-100" width="202.27088304949984" height="309.0023863759908" fill="transparent" stroke="none"/><path d="M1788.75,180L1786.4791169505002,289.0023863759908" fill="none" stroke="#1d1d1d" stroke-width="2" stroke-dasharray="none" stroke-dashoffset="none"/></g><path d="M 1789.5866958113595 283.8698476646375 L 1786.4791169505002 289.0023863759908 L 1783.5879974709908 283.7448747825465" fill="none" stroke="#1d1d1d" stroke-width="2"/></g></g></g><g clip-path="url(#nKWth3SnX5hQ0MdeNo16-)"><g transform="matrix(1, 0, 0, 1, 0, 0)" opacity="1"><g><defs><mask id="shape_module.eks.aws_vpc.demo-module.eks.aws_subnet.demo:1712325753935_clip"><rect x="1738.75" y="80" width="290.56348112396086" height="311.46274599872106" fill="white"/><path d="M 1928.3651677276841 285.538161481437 L 1929.3134811239609 291.46274599872106 L 1923.7084837269865 289.32171723200383" fill="none" stroke="none"/></mask></defs><g mask="url(#shape_module.eks.aws_vpc.demo-module.eks.aws_subnet.demo:1712325753935_clip)"><rect x="-100" y="-100" width="290.56348112396086" height="311.46274599872106" fill="transparent" stroke="none"/><path d="M1838.75,180L1929.3134811239609,291.46274599872106" fill="none" stroke="#1d1d1d" stroke-width="2" stroke-dasharray="none" stroke-dashoffset="none"/></g><path d="M 1928.3651677276841 285.538161481437 L 1929.3134811239609 291.46274599872106 L 1923.7084837269865 289.32171723200383" fill="none" stroke="#1d1d1d" stroke-width="2"/></g></g></g></svg>