<svg xmlns="http://www.w3.org/2000/svg" direction="ltr" width="1212.5" height="1020" viewBox="0 0 1212.5 1020" stroke-linecap="round" stroke-linejoin="round" style="background: rgb(252, 255, 254);" encoding="UTF-8&quot;"><defs><clipPath id="-KjjNMTcV_m7vJFSmOvW2"><path d="M0,0L1212.5,0L1212.5,1020L0,1020Z"/></clipPath><clipPath id="XgkJLcGY3DKkJV7fK8Rbf"><path d="M0,0L1212.5,0L1212.5,1020L0,1020Z"/></clipPath><clipPath id="4lLpsTvZ6zfYn_8m2i-YR"><path d="M0,0L1212.5,0L1212.5,1020L0,1020Z"/></clipPath><clipPath id="CZTStH8shF8rkNAwK9LSu"><path d="M0,0L1212.5,0L1212.5,1020L0,1020Z"/></clipPath><clipPath id="2RPOnIqI68eq95yxedALX"><path d="M0,0L1212.5,0L1212.5,1020L0,1020Z"/></clipPath><clipPath id="SamRe6c_1svyjET1o7GFx"><path d="M0,0L1212.5,0L1212.5,1020L0,1020Z"/></clipPath><clipPath id="gu3Mbd5Z977ZEqYBZhM3z"><path d="M0,0L1212.5,0L1212.5,1020L0,1020Z"/></clipPath><clipPath id="ieyT1vSQX_wKK5xY2MBws"><path d="M0,0L1212.5,0L1212.5,1020L0,1020Z"/></clipPath><clipPath id="Z836drOvLsF6cqa6FeSS5"><path d="M0,0L1212.5,0L1212.5,1020L0,1020Z"/></clipPath><clipPath id="qXutcJSrsMNVHdOKtQmj9"><path d="M0,0L1212.5,0L1212.5,1020L0,1020Z"/></clipPath><clipPath id="Vz5SIRSAO6nBZ7P3Vu17W"><path d="M0,0L1212.5,0L1212.5,1020L0,1020Z"/></clipPath><clipPath id="9unSU4YYCfWIH5wvxxuQe"><path d="M0,0L1212.5,0L1212.5,1020L0,1020Z"/></clipPath><clipPath id="DXGhAtOvTF4yE_rDBNEhq"><path d="M0,0L1212.5,0L1212.5,1020L0,1020Z"/></clipPath><clipPath id="3H8M_mIqhJdiNMhYkuRYc"><path d="M0,0L1212.5,0L1212.5,1020L0,1020Z"/></clipPath><clipPath id="oDC3RPj48hf0K0azp-NTe"><path d="M0,0L1212.5,0L1212.5,1020L0,1020Z"/></clipPath><clipPath id="bZfHLeenh3wI9VSfrxAJM"><path d="M0,0L1212.5,0L1212.5,1020L0,1020Z"/></clipPath><clipPath id="oBgFr0J1AcCsRpLzHXyo5"><path d="M0,0L1212.5,0L1212.5,1020L0,1020Z"/></clipPath><clipPath id="tZSAHpyK2ifQIH_BkHvpD"><path d="M0,0L1212.5,0L1212.5,1020L0,1020Z"/></clipPath><clipPath id="wUyftme-Op7ilm71lYhn8"><path d="M0,0L1212.5,0L1212.5,1020L0,1020Z"/></clipPath><clipPath id="at2EQc1x5Z1H8dEKCupqE"><path d="M0,0L1212.5,0L1212.5,1020L0,1020Z"/></clipPath><clipPath id="ZL04IleWIIgIS1uHWCU_m"><path d="M0,0L1212.5,0L1212.5,1020L0,1020Z"/></clipPath><clipPath id="oOqkeU0-L3u7XOt5mC5w6"><path d="M0,0L1212.5,0L1212.5,1020L0,1020Z"/></clipPath><clipPath id="KyjvnHfp8MJEePQ2EAyg9"><path d="M0,0L1212.5,0L1212.5,1020L0,1020Z"/></clipPath><clipPath id="9h061mrTVnFbiwo4WOCvT"><path d="M0,0L1212.5,0L1212.5,1020L0,1020Z"/></clipPath><clipPath id="rF_iKrbXnwGAdF2Giufd5"><path d="M0,0L1212.5,0L1212.5,1020L0,1020Z"/></clipPath><clipPath id="xfHfu54YvznirAGr9lyIW"><path d="M0,0L1212.5,0L1212.5,1020L0,1020Z"/></clipPath><clipPath id="lpPiMBM216MU0An3FieYo"><path d="M0,0L1212.5,0L1212.5,1020L0,1020Z"/></clipPath><clipPath id="ff2HZjyc3X3k-LwKqYTsE"><path d="M0,0L1212.5,0L1212.5,1020L0,1020Z"/></clipPath><clipPath id="cUSvEiUr1KDvn8-t35_k1"><path d="M0,0L1212.5,0L1212.5,1020L0,1020Z"/></clipPath><clipPath id="EbT3XRd7Xte2I3QYmh-ir"><path d="M0,0L1212.5,0L1212.5,1020L0,1020Z"/></clipPath><clipPath id="EyH363k-Hfraaqgiyifqc"><path d="M0,0L1212.5,0L1212.5,1020L0,1020Z"/></clipPath><clipPath id="bY1GhuH3hlVwOZDoXig7T"><path d="M0,0L1212.5,0L1212.5,1020L0,1020Z"/></clipPath></defs><g clip-path="url(#ZL04IleWIIgIS1uHWCU_m)"><g transform="matrix(1, 0, 0, 1, 587.5, 840)" opacity="1"><g><rect width="120" height="120" rx="4" fill="white" stroke="black" stroke-width="2"/><text x="5" y="28" style="font-family: sans-serif; font-size: 10px; fill: #504758;" dominant-baseline="middle">Autoscaling Group</text><clipPath id="clip-round-corners-z24gxkuku"><rect x="0" y="0" width="64" height="64" rx="4" ry="4"/></clipPath><svg width="58" height="58" viewBox="0 0 64 64" version="1.1" xmlns="http://www.w3.org/2000/svg" xmlns:xlink="http://www.w3.org/1999/xlink" x="31" y="48" clip-path="url(#clip-round-corners-z24gxkuku)">
    <title>Icon-Architecture/48/Arch_Amazon-EC2-Auto-Scaling_48</title>
    <g id="Icon-Architecture/48/Arch_Amazon-EC2-Auto-Scaling_48" stroke="none" stroke-width="1" fill="none" fill-rule="evenodd">
        <g id="Icon-Architecture-BG/48/Compute" fill="#ED7100">
            <rect id="Rectangle" x="0" y="0" width="64" height="64"/>
        </g>
        <path d="M54,31.4308059 L46.6003289,31.4308059 L49.9101791,28.1201749 L48.4889437,26.6986042 L42.7527412,32.43616 L48.4889437,38.1737158 L49.9101791,36.7521451 L46.6003289,33.4415141 L54,33.4415141 L54,31.4308059 Z M14.0898209,28.1201749 L17.3996711,31.4308059 L10,31.4308059 L10,33.4415141 L17.3996711,33.4415141 L14.0898209,36.7521451 L15.5110563,38.1737158 L21.2472588,32.43616 L15.5110563,26.6986042 L14.0898209,28.1201749 Z M25.8567251,39.4736387 L37.9181287,39.4736387 L37.9181287,27.4093895 L25.8567251,27.4093895 L25.8567251,39.4736387 Z M39.9283626,26.4040354 L41.9385965,26.4040354 L41.9385965,28.4147436 L39.9283626,28.4147436 L39.9283626,30.4254518 L41.9385965,30.4254518 L41.9385965,32.43616 L39.9283626,32.43616 L39.9283626,34.4468682 L41.9385965,34.4468682 L41.9385965,36.4575764 L39.9283626,36.4575764 L39.9283626,38.4682846 L41.9385965,38.4682846 L41.9385965,40.4789928 L39.9283626,40.4789928 L39.9283626,39.7842931 C39.9283626,40.7222885 39.1654788,41.4843469 38.2297149,41.4843469 L38.9232456,41.4843469 L38.9232456,43.4950551 L36.9130117,43.4950551 L36.9130117,41.4843469 L34.9027778,41.4843469 L34.9027778,43.4950551 L32.8925439,43.4950551 L32.8925439,41.4843469 L30.8823099,41.4843469 L30.8823099,43.4950551 L28.872076,43.4950551 L28.872076,41.4843469 L26.8618421,41.4843469 L26.8618421,43.4950551 L24.8516082,43.4950551 L24.8516082,41.4843469 L25.5451389,41.4843469 C24.609375,41.4843469 23.8464912,40.7222885 23.8464912,39.7842931 L23.8464912,40.4789928 L21.8362573,40.4789928 L21.8362573,38.4682846 L23.8464912,38.4682846 L23.8464912,36.4575764 L21.8362573,36.4575764 L21.8362573,34.4468682 L23.8464912,34.4468682 L23.8464912,32.43616 L21.8362573,32.43616 L21.8362573,30.4254518 L23.8464912,30.4254518 L23.8464912,28.4147436 L21.8362573,28.4147436 L21.8362573,26.4040354 L23.8464912,26.4040354 L23.8464912,27.0987351 C23.8464912,26.1607398 24.609375,25.3986813 25.5451389,25.3986813 L24.8516082,25.3986813 L24.8516082,23.3879732 L26.8618421,23.3879732 L26.8618421,25.3986813 L28.872076,25.3986813 L28.872076,23.3879732 L30.8823099,23.3879732 L30.8823099,25.3986813 L32.8925439,25.3986813 L32.8925439,23.3879732 L34.9027778,23.3879732 L34.9027778,25.3986813 L36.9130117,25.3986813 L36.9130117,23.3879732 L38.9232456,23.3879732 L38.9232456,25.3986813 L38.2297149,25.3986813 C39.1654788,25.3986813 39.9283626,26.1607398 39.9283626,27.0987351 L39.9283626,26.4040354 Z M32.8925439,50.1515045 L32.8925439,44.5004092 L30.8823099,44.5004092 L30.8823099,50.1515045 L27.281981,46.5503262 L25.8607456,47.9718968 L31.8874269,54 L37.9141082,47.9718968 L36.4928728,46.5503262 L32.8925439,50.1515045 Z M27.204587,17.3870146 L25.9381396,15.8246943 L31.8874269,11 L37.8367142,15.8246943 L36.5702668,17.3870146 L32.8925439,14.404129 L32.8925439,21.377265 L30.8823099,21.377265 L30.8823099,14.404129 L27.204587,17.3870146 Z" id="Amazon-EC2-Auto-Scaling_Icon_48_Squid" fill="#FFFFFF"/>
    </g>
</svg><rect x="91" y="5" width="24" height="16" rx="8" ry="8" fill="#37bb65"/><text x="103" y="14" style="font-family: sans-serif; font-size: 12px; fill: black; text-anchor: middle; dominant-baseline: middle;">2</text><text x="5" y="14" style="font-family: sans-serif; font-size: 14px; fill: black;" dominant-baseline="middle">app</text></g></g></g><g clip-path="url(#-KjjNMTcV_m7vJFSmOvW2)"><g transform="matrix(1, 0, 0, 1, 0, 0)" opacity="1"><g><defs><mask id="shape_module.ecs-alb.aws_autoscaling_group.app-module.ecs-alb.aws_autoscaling_group.app:1712325753935_clip"><rect x="547.5" y="800" width="200" height="200" fill="white"/><path d="M NaN NaN L 647.5 900 L NaN NaN" fill="none" stroke="none"/></mask></defs><g mask="url(#shape_module.ecs-alb.aws_autoscaling_group.app-module.ecs-alb.aws_autoscaling_group.app:1712325753935_clip)"><rect x="-100" y="-100" width="200" height="200" fill="transparent" stroke="none"/><path d="M647.5,900L647.5,900" fill="none" stroke="#1d1d1d" stroke-width="2" stroke-dasharray="none" stroke-dashoffset="none"/></g><path d="M NaN NaN L 647.5 900 L NaN NaN" fill="none" stroke="#1d1d1d" stroke-width="2"/></g></g></g><g clip-path="url(#oOqkeU0-L3u7XOt5mC5w6)"><g transform="matrix(1, 0, 0, 1, 35, 300)" opacity="1"><g><rect width="120" height="120" rx="4" fill="white" stroke="black" stroke-width="2"/><text x="5" y="28" style="font-family: sans-serif; font-size: 10px; fill: #504758;" dominant-baseline="middle">Cloudwatch Log Group</text><clipPath id="clip-round-corners-1w1efujcz"><rect x="0" y="0" width="64" height="64" rx="4" ry="4"/></clipPath><svg width="58" height="58" viewBox="0 0 64 64" version="1.1" xmlns="http://www.w3.org/2000/svg" xmlns:xlink="http://www.w3.org/1999/xlink" x="31" y="48" clip-path="url(#clip-round-corners-1w1efujcz)">
    <title>Icon-Architecture/48/Arch_Amazon-CloudWatch_48</title>
    <g id="Icon-Architecture/48/Arch_Amazon-CloudWatch_48" stroke="none" stroke-width="1" fill="none" fill-rule="evenodd">
        <g id="Icon-Architecture-BG/48/Management-Governance" fill="#E7157B">
            <rect id="Rectangle" x="0" y="0" width="64" height="64"/>
        </g>
        <path d="M42.184,39.3811216 C42.184,37.1282698 40.347,35.2954581 38.089,35.2954581 C35.831,35.2954581 33.995,37.1282698 33.995,39.3811216 C33.995,41.6339735 35.831,43.4667852 38.089,43.4667852 C40.347,43.4667852 42.184,41.6339735 42.184,39.3811216 L42.184,39.3811216 Z M44.184,39.3811216 C44.184,42.7344587 41.45,45.4622252 38.089,45.4622252 C34.729,45.4622252 31.995,42.7344587 31.995,39.3811216 C31.995,36.0277846 34.729,33.3000181 38.089,33.3000181 C41.45,33.3000181 44.184,36.0277846 44.184,39.3811216 L44.184,39.3811216 Z M50.743,49.6157337 L45.846,45.2157884 C45.524,45.6398194 45.17,46.0379097 44.785,46.4050706 L49.671,50.8030205 C49.997,51.0953525 50.505,51.0714072 50.802,50.744155 C51.096,50.4179006 51.07,49.9110588 50.743,49.6157337 L50.743,49.6157337 Z M38.089,47.091502 C42.351,47.091502 45.818,43.6324067 45.818,39.3811216 C45.818,35.1298366 42.351,31.6707413 38.089,31.6707413 C33.829,31.6707413 30.362,35.1298366 30.362,39.3811216 C30.362,43.6324067 33.829,47.091502 38.089,47.091502 L38.089,47.091502 Z M52.081,48.1341194 C53.227,49.1667597 53.319,50.9357173 52.288,52.0801021 C51.735,52.6897091 50.971,53 50.205,53 C49.538,53 48.868,52.7655358 48.333,52.2866302 L43.172,47.6412457 C41.691,48.5521641 39.954,49.0869421 38.089,49.0869421 C32.725,49.0869421 28.362,44.7328919 28.362,39.3811216 C28.362,34.0293514 32.725,29.6753012 38.089,29.6753012 C43.454,29.6753012 47.818,34.0293514 47.818,39.3811216 C47.818,40.8447769 47.482,42.2286146 46.897,43.4757646 L52.081,48.1341194 Z M17.697,23.5383254 C17.697,23.9394088 17.72,24.3384968 17.767,24.722619 C17.802,25.0059715 17.713,25.2913194 17.524,25.5048315 C17.375,25.6714508 17.177,25.7831954 16.961,25.8241019 C15.084,26.3079961 12,27.7716514 12,32.1566309 C12,35.4800363 13.836,37.3138458 15.377,38.2676661 C16.049,38.6897017 16.64,38.9052092 17.138,38.9101978 L26.127,38.9101978 L26.127,40.9056378 L17.127,40.9056378 C16.243,40.8966584 15.3,40.577388 14.317,39.9588015 C12.708,38.9640747 10,36.6214281 10,32.1566309 C10,26.8876715 13.526,24.8642953 15.71,24.117003 C15.702,23.924443 15.697,23.7308853 15.697,23.5383254 C15.697,19.1603299 18.673,14.6217015 22.621,12.9784566 C27.232,11.0508615 32.119,12.0066773 35.687,15.5336176 C36.734,16.5672555 37.604,17.8084192 38.285,19.2361566 C39.203,18.5507229 40.304,18.1745825 41.459,18.1745825 C43.874,18.1745825 46.587,19.9684831 47.122,23.8895228 C50.58,24.7216213 54,27.27778 54,32.2174919 C54,35.1078868 52.864,37.4565197 50.713,39.0089721 L49.541,37.3926656 C51.173,36.2143583 52,34.4733368 52,32.2174919 C52,27.2388689 47.811,25.9997007 46.01,25.6983892 C45.743,25.6534918 45.505,25.5018384 45.351,25.2793468 C45.208,25.071821 45.15,24.8184001 45.186,24.5709656 C44.931,21.5319104 43.141,20.1700225 41.459,20.1700225 C40.402,20.1700225 39.409,20.6858438 38.734,21.5857873 C38.514,21.8791169 38.156,22.0297727 37.786,21.9748981 C37.422,21.9210212 37.118,21.6715912 36.993,21.3263801 C36.359,19.5743837 35.446,18.1027466 34.281,16.9513777 C32.851,15.5396039 28.933,12.506535 23.391,14.81925 C20.198,16.1492108 17.697,19.9784603 17.697,23.5383254 L17.697,23.5383254 Z" id="Amazon-CloudWatch_Icon_48_Squid" fill="#FFFFFF"/>
    </g>
</svg><rect x="91" y="5" width="24" height="16" rx="8" ry="8" fill="#37bb65"/><text x="103" y="14" style="font-family: sans-serif; font-size: 12px; fill: black; text-anchor: middle; dominant-baseline: middle;">1</text><text x="5" y="14" style="font-family: sans-serif; font-size: 14px; fill: black;" dominant-baseline="middle">app</text></g></g></g><g clip-path="url(#KyjvnHfp8MJEePQ2EAyg9)"><g transform="matrix(1, 0, 0, 1, 67.5, 840)" opacity="1"><g><rect width="120" height="120" rx="4" fill="white" stroke="black" stroke-width="2"/><text x="5" y="28" style="font-family: sans-serif; font-size: 10px; fill: #504758;" dominant-baseline="middle">Ecs Service</text><clipPath id="clip-round-corners-6g5jil24r"><rect x="0" y="0" width="64" height="64" rx="4" ry="4"/></clipPath><svg width="58" height="58" viewBox="0 0 64 64" version="1.1" xmlns="http://www.w3.org/2000/svg" xmlns:xlink="http://www.w3.org/1999/xlink" x="31" y="48" clip-path="url(#clip-round-corners-6g5jil24r)">
    <title>Icon-Architecture/48/Arch_Amazon-Elastic-Container-Service_48</title>
    <g id="Icon-Architecture/48/Arch_Amazon-Elastic-Container-Service_48" stroke="none" stroke-width="1" fill="none" fill-rule="evenodd">
        <g id="Icon-Architecture-BG/48/Compute" fill="#ED7100">
            <rect id="Rectangle" x="0" y="0" width="64" height="64"/>
        </g>
        <path d="M50,36.3822466 L44,33.3822885 L44,25.0004058 C44,24.6374109 43.803,24.3024156 43.485,24.1264181 L35,19.412484 L35,12.7495773 L50,21.5724538 L50,36.3822466 Z M51.507,20.1384739 L34.507,10.1386138 C34.199,9.95761637 33.815,9.95461641 33.504,10.1326139 C33.192,10.3106114 33,10.6416068 33,11.0006018 L33,20.0004758 C33,20.3634707 33.197,20.6984661 33.515,20.8744636 L42,25.5883976 L42,34.0002799 C42,34.3792746 42.214,34.7252697 42.553,34.8952674 L50.553,38.8952114 C50.694,38.9652104 50.847,39.0002099 51,39.0002099 C51.183,39.0002099 51.365,38.9502106 51.525,38.851212 C51.82,38.6682146 52,38.3472191 52,38.0002239 L52,21.0004618 C52,20.6464668 51.812,20.3184714 51.507,20.1384739 L51.507,20.1384739 Z M32,51.8280304 L15,41.4391758 L15,21.5544541 L29,12.8045765 L29,19.4464836 L21.47,24.1524177 C21.178,24.3354152 21,24.6554107 21,25.0004058 L21,38.0002239 C21,38.351219 21.185,38.6772144 21.485,38.8572119 L31.485,44.857128 C31.789,45.0401254 32.167,45.0481253 32.479,44.8781277 L42.988,39.1462079 L48.035,42.0291675 L32,51.8280304 Z M50.496,41.1321801 L43.496,37.1322361 C43.194,36.9592385 42.825,36.9562385 42.521,37.1222362 L32.023,42.8481561 L23,37.4342318 L23,25.5543981 L30.53,20.848464 C30.822,20.6654665 31,20.345471 31,20.0004758 L31,11.0006018 C31,10.6366069 30.803,10.3026115 30.484,10.125614 C30.168,9.9486165 29.778,9.95961634 29.47,10.1526136 L13.47,20.1524737 C13.178,20.3354711 13,20.6554667 13,21.0004618 L13,42.0001679 C13,42.3481631 13.182,42.6711585 13.479,42.854156 L31.479,53.854002 C31.639,53.9510007 31.819,54 32,54 C32.181,54 32.361,53.9510007 32.521,53.854002 L50.521,42.854156 C50.823,42.6691586 51.005,42.3391632 51.0001004,41.9851681 C50.995,41.6321731 50.803,41.3071776 50.496,41.1321801 L50.496,41.1321801 Z" id="Amazon-Elastic-Container-Service_Icon_48_Squid" fill="#FFFFFF"/>
    </g>
</svg><rect x="91" y="5" width="24" height="16" rx="8" ry="8" fill="#37bb65"/><text x="103" y="14" style="font-family: sans-serif; font-size: 12px; fill: black; text-anchor: middle; dominant-baseline: middle;">2</text><text x="5" y="14" style="font-family: sans-serif; font-size: 14px; fill: black;" dominant-baseline="middle">test</text></g></g></g><g clip-path="url(#XgkJLcGY3DKkJV7fK8Rbf)"><g transform="matrix(1, 0, 0, 1, 0, 0)" opacity="1"><g><defs><mask id="shape_module.ecs-alb.aws_ecs_service.test-module.ecs-alb.aws_ecs_service.test:1712325753935_clip"><rect x="27.5" y="800" width="200" height="200" fill="white"/><path d="M NaN NaN L 127.5 900 L NaN NaN" fill="none" stroke="none"/></mask></defs><g mask="url(#shape_module.ecs-alb.aws_ecs_service.test-module.ecs-alb.aws_ecs_service.test:1712325753935_clip)"><rect x="-100" y="-100" width="200" height="200" fill="transparent" stroke="none"/><path d="M127.5,900L127.5,900" fill="none" stroke="#1d1d1d" stroke-width="2" stroke-dasharray="none" stroke-dashoffset="none"/></g><path d="M NaN NaN L 127.5 900 L NaN NaN" fill="none" stroke="#1d1d1d" stroke-width="2"/></g></g></g><g clip-path="url(#4lLpsTvZ6zfYn_8m2i-YR)"><g transform="matrix(1, 0, 0, 1, 0, 0)" opacity="1"><g><defs><mask id="shape_module.ecs-alb.aws_cloudwatch_log_group.app-module.ecs-alb.aws_ecs_service.test:1712325753935_clip"><rect x="-1.3888888888888857" y="320" width="224.61693652712137" height="609.0198684506317" fill="white"/><path d="M 125.91046243663989 823.6528720048267 L 123.22804763823247 829.0198684506317 L 119.92129977334817 824.0133308688211" fill="none" stroke="none"/></mask></defs><g mask="url(#shape_module.ecs-alb.aws_cloudwatch_log_group.app-module.ecs-alb.aws_ecs_service.test:1712325753935_clip)"><rect x="-100" y="-100" width="224.61693652712137" height="609.0198684506317" fill="transparent" stroke="none"/><path d="M98.61111111111111,420L123.22804763823247,829.0198684506317" fill="none" stroke="#1d1d1d" stroke-width="2" stroke-dasharray="none" stroke-dashoffset="none"/></g><path d="M 125.91046243663989 823.6528720048267 L 123.22804763823247 829.0198684506317 L 119.92129977334817 824.0133308688211" fill="none" stroke="#1d1d1d" stroke-width="2"/></g></g></g><g clip-path="url(#9h061mrTVnFbiwo4WOCvT)"><g transform="matrix(1, 0, 0, 1, 462.5, 540)" opacity="1"><g><rect width="120" height="120" rx="4" fill="white" stroke="black" stroke-width="2"/><text x="5" y="28" style="font-family: sans-serif; font-size: 10px; fill: #504758;" dominant-baseline="middle">Iam Role</text><clipPath id="clip-round-corners-qe4o5hy8y"><rect x="0" y="0" width="64" height="64" rx="4" ry="4"/></clipPath><svg width="58" height="58" viewBox="0 0 64 64" version="1.1" xmlns="http://www.w3.org/2000/svg" xmlns:xlink="http://www.w3.org/1999/xlink" x="31" y="48" clip-path="url(#clip-round-corners-qe4o5hy8y)">
    <title>Icon-Architecture/48/Arch_AWS-Identity-and-Access-Management_48</title>
    <g id="Icon-Architecture/48/Arch_AWS-Identity-and-Access-Management_48" stroke="none" stroke-width="1" fill="none" fill-rule="evenodd">
        <g id="Icon-Architecture-BG/48/Security-Identity-Compliance" fill="#DD344C">
            <rect id="Rectangle" x="0" y="0" width="64" height="64"/>
        </g>
        <path d="M12,47 L52,47 L52,18 L12,18 L12,47 Z M54,17 L54,48 C54,48.552 53.553,49 53,49 L11,49 C10.447,49 10,48.552 10,48 L10,17 C10,16.448 10.447,16 11,16 L53,16 C53.553,16 54,16.448 54,17 L54,17 Z M35,39 L47,39 L47,37 L35,37 L35,39 Z M45,35 L49,35 L49,33 L45,33 L45,35 Z M35,35 L41,35 L41,33 L35,33 L35,35 Z M22.5,37.5 C22.5,37.776 22.725,38 23,38 C23.275,38 23.5,37.776 23.5,37.5 C23.5,37.224 23.275,37 23,37 C22.725,37 22.5,37.224 22.5,37.5 L22.5,37.5 Z M25.5,37.5 C25.5,38.522 24.882,39.401 24,39.788 L24,42 L22,42 L22,39.788 C21.118,39.401 20.5,38.522 20.5,37.5 C20.5,36.122 21.621,35 23,35 C24.379,35 25.5,36.122 25.5,37.5 L25.5,37.5 Z M16,42.995 L29.995,43 L29.996,41 L27,41 L27,39 L29.997,39 L29.998,37 L27,37 L27,35 L29.999,35 L30,33.005 L16.005,33 L16,42.995 Z M18,31.001 L28.001,31.004 L28.002,26 C28.002,24.976 27.2,24.273 26.722,23.945 C25.847,23.345 24.174,23 23.002,23 L23,23 C20.873,23 18.003,24.232 18.002,26 L18,31.001 Z M14.293,44.701 C14.105,44.513 14,44.259 14,43.994 L14.005,32 C14.005,31.447 14.453,31 15.005,31 L16,31 L16.002,26 C16.003,22.911 19.876,21 23,21 L23.002,21 C24.567,21 26.653,21.473 27.854,22.295 C29.239,23.246 30.003,24.562 30.002,26 L30.001,31.005 L31,31.006 C31.266,31.006 31.52,31.111 31.707,31.299 C31.895,31.487 32,31.741 32,32.006 L31.995,44 C31.995,44.553 31.547,45 30.995,45 L15,44.994 C14.734,44.994 14.48,44.889 14.293,44.701 L14.293,44.701 Z M47,30 L49,30 L49,28 L47,28 L47,30 Z M35,30 L44,30 L44,28 L35,28 L35,30 Z" id="AWS-Identity-and-Access-Management_Icon_48_Squid" fill="#FFFFFF"/>
    </g>
</svg><rect x="91" y="5" width="24" height="16" rx="8" ry="8" fill="#37bb65"/><text x="103" y="14" style="font-family: sans-serif; font-size: 12px; fill: black; text-anchor: middle; dominant-baseline: middle;">3</text><text x="5" y="14" style="font-family: sans-serif; font-size: 14px; fill: black;" dominant-baseline="middle">app_inst...</text></g></g></g><g clip-path="url(#CZTStH8shF8rkNAwK9LSu)"><g transform="matrix(1, 0, 0, 1, 0, 0)" opacity="1"><g><defs><mask id="shape_module.ecs-alb.aws_iam_role.app_instance-module.ecs-alb.aws_autoscaling_group.app:1712325753935_clip"><rect x="447.5" y="560" width="270.7692307692307" height="369.8461538461538" fill="white"/><path d="M 619.0399413758821 823.895859302117 L 618.2692307692307 829.8461538461538 L 613.5014798374206 826.2035516098092" fill="none" stroke="none"/></mask></defs><g mask="url(#shape_module.ecs-alb.aws_iam_role.app_instance-module.ecs-alb.aws_autoscaling_group.app:1712325753935_clip)"><rect x="-100" y="-100" width="270.7692307692307" height="369.8461538461538" fill="transparent" stroke="none"/><path d="M547.5,660L618.2692307692307,829.8461538461538" fill="none" stroke="#1d1d1d" stroke-width="2" stroke-dasharray="none" stroke-dashoffset="none"/></g><path d="M 619.0399413758821 823.895859302117 L 618.2692307692307 829.8461538461538 L 613.5014798374206 826.2035516098092" fill="none" stroke="#1d1d1d" stroke-width="2"/></g></g></g><g clip-path="url(#2RPOnIqI68eq95yxedALX)"><g transform="matrix(1, 0, 0, 1, 0, 0)" opacity="1"><g><defs><mask id="shape_module.ecs-alb.aws_iam_role.app_instance-module.ecs-alb.aws_iam_role.app_instance:1712325753935_clip"><rect x="422.5" y="500" width="200" height="200" fill="white"/><path d="M NaN NaN L 522.5 600 L NaN NaN" fill="none" stroke="none"/></mask></defs><g mask="url(#shape_module.ecs-alb.aws_iam_role.app_instance-module.ecs-alb.aws_iam_role.app_instance:1712325753935_clip)"><rect x="-100" y="-100" width="200" height="200" fill="transparent" stroke="none"/><path d="M522.5,600L522.5,600" fill="none" stroke="#1d1d1d" stroke-width="2" stroke-dasharray="none" stroke-dashoffset="none"/></g><path d="M NaN NaN L 522.5 600 L NaN NaN" fill="none" stroke="#1d1d1d" stroke-width="2"/></g></g></g><g clip-path="url(#SamRe6c_1svyjET1o7GFx)"><g transform="matrix(1, 0, 0, 1, 0, 0)" opacity="1"><g><defs><mask id="shape_module.ecs-alb.aws_cloudwatch_log_group.app-module.ecs-alb.aws_iam_role.app_instance:1712325753935_clip"><rect x="55" y="293.6842105263158" width="497.90817836075973" height="367.24669662358434" fill="white"/><path d="M 449.845821971891 555.7712585816782 L 452.90817836075973 560.9309071499001 L 446.90861343164516 561.0031612939911" fill="none" stroke="none"/></mask></defs><g mask="url(#shape_module.ecs-alb.aws_cloudwatch_log_group.app-module.ecs-alb.aws_iam_role.app_instance:1712325753935_clip)"><rect x="-100" y="-100" width="497.90817836075973" height="367.24669662358434" fill="transparent" stroke="none"/><path d="M155,393.6842105263158L452.90817836075973,560.9309071499001" fill="none" stroke="#1d1d1d" stroke-width="2" stroke-dasharray="none" stroke-dashoffset="none"/></g><path d="M 449.845821971891 555.7712585816782 L 452.90817836075973 560.9309071499001 L 446.90861343164516 561.0031612939911" fill="none" stroke="#1d1d1d" stroke-width="2"/></g></g></g><g clip-path="url(#rF_iKrbXnwGAdF2Giufd5)"><g transform="matrix(1, 0, 0, 1, 550, 300)" opacity="1"><g><rect width="120" height="120" rx="4" fill="white" stroke="black" stroke-width="2"/><text x="5" y="28" style="font-family: sans-serif; font-size: 10px; fill: #504758;" dominant-baseline="middle">Cloudwatch Log Group</text><clipPath id="clip-round-corners-k7x68rpv2"><rect x="0" y="0" width="64" height="64" rx="4" ry="4"/></clipPath><svg width="58" height="58" viewBox="0 0 64 64" version="1.1" xmlns="http://www.w3.org/2000/svg" xmlns:xlink="http://www.w3.org/1999/xlink" x="31" y="48" clip-path="url(#clip-round-corners-k7x68rpv2)">
    <title>Icon-Architecture/48/Arch_Amazon-CloudWatch_48</title>
    <g id="Icon-Architecture/48/Arch_Amazon-CloudWatch_48" stroke="none" stroke-width="1" fill="none" fill-rule="evenodd">
        <g id="Icon-Architecture-BG/48/Management-Governance" fill="#E7157B">
            <rect id="Rectangle" x="0" y="0" width="64" height="64"/>
        </g>
        <path d="M42.184,39.3811216 C42.184,37.1282698 40.347,35.2954581 38.089,35.2954581 C35.831,35.2954581 33.995,37.1282698 33.995,39.3811216 C33.995,41.6339735 35.831,43.4667852 38.089,43.4667852 C40.347,43.4667852 42.184,41.6339735 42.184,39.3811216 L42.184,39.3811216 Z M44.184,39.3811216 C44.184,42.7344587 41.45,45.4622252 38.089,45.4622252 C34.729,45.4622252 31.995,42.7344587 31.995,39.3811216 C31.995,36.0277846 34.729,33.3000181 38.089,33.3000181 C41.45,33.3000181 44.184,36.0277846 44.184,39.3811216 L44.184,39.3811216 Z M50.743,49.6157337 L45.846,45.2157884 C45.524,45.6398194 45.17,46.0379097 44.785,46.4050706 L49.671,50.8030205 C49.997,51.0953525 50.505,51.0714072 50.802,50.744155 C51.096,50.4179006 51.07,49.9110588 50.743,49.6157337 L50.743,49.6157337 Z M38.089,47.091502 C42.351,47.091502 45.818,43.6324067 45.818,39.3811216 C45.818,35.1298366 42.351,31.6707413 38.089,31.6707413 C33.829,31.6707413 30.362,35.1298366 30.362,39.3811216 C30.362,43.6324067 33.829,47.091502 38.089,47.091502 L38.089,47.091502 Z M52.081,48.1341194 C53.227,49.1667597 53.319,50.9357173 52.288,52.0801021 C51.735,52.6897091 50.971,53 50.205,53 C49.538,53 48.868,52.7655358 48.333,52.2866302 L43.172,47.6412457 C41.691,48.5521641 39.954,49.0869421 38.089,49.0869421 C32.725,49.0869421 28.362,44.7328919 28.362,39.3811216 C28.362,34.0293514 32.725,29.6753012 38.089,29.6753012 C43.454,29.6753012 47.818,34.0293514 47.818,39.3811216 C47.818,40.8447769 47.482,42.2286146 46.897,43.4757646 L52.081,48.1341194 Z M17.697,23.5383254 C17.697,23.9394088 17.72,24.3384968 17.767,24.722619 C17.802,25.0059715 17.713,25.2913194 17.524,25.5048315 C17.375,25.6714508 17.177,25.7831954 16.961,25.8241019 C15.084,26.3079961 12,27.7716514 12,32.1566309 C12,35.4800363 13.836,37.3138458 15.377,38.2676661 C16.049,38.6897017 16.64,38.9052092 17.138,38.9101978 L26.127,38.9101978 L26.127,40.9056378 L17.127,40.9056378 C16.243,40.8966584 15.3,40.577388 14.317,39.9588015 C12.708,38.9640747 10,36.6214281 10,32.1566309 C10,26.8876715 13.526,24.8642953 15.71,24.117003 C15.702,23.924443 15.697,23.7308853 15.697,23.5383254 C15.697,19.1603299 18.673,14.6217015 22.621,12.9784566 C27.232,11.0508615 32.119,12.0066773 35.687,15.5336176 C36.734,16.5672555 37.604,17.8084192 38.285,19.2361566 C39.203,18.5507229 40.304,18.1745825 41.459,18.1745825 C43.874,18.1745825 46.587,19.9684831 47.122,23.8895228 C50.58,24.7216213 54,27.27778 54,32.2174919 C54,35.1078868 52.864,37.4565197 50.713,39.0089721 L49.541,37.3926656 C51.173,36.2143583 52,34.4733368 52,32.2174919 C52,27.2388689 47.811,25.9997007 46.01,25.6983892 C45.743,25.6534918 45.505,25.5018384 45.351,25.2793468 C45.208,25.071821 45.15,24.8184001 45.186,24.5709656 C44.931,21.5319104 43.141,20.1700225 41.459,20.1700225 C40.402,20.1700225 39.409,20.6858438 38.734,21.5857873 C38.514,21.8791169 38.156,22.0297727 37.786,21.9748981 C37.422,21.9210212 37.118,21.6715912 36.993,21.3263801 C36.359,19.5743837 35.446,18.1027466 34.281,16.9513777 C32.851,15.5396039 28.933,12.506535 23.391,14.81925 C20.198,16.1492108 17.697,19.9784603 17.697,23.5383254 L17.697,23.5383254 Z" id="Amazon-CloudWatch_Icon_48_Squid" fill="#FFFFFF"/>
    </g>
</svg><rect x="91" y="5" width="24" height="16" rx="8" ry="8" fill="#37bb65"/><text x="103" y="14" style="font-family: sans-serif; font-size: 12px; fill: black; text-anchor: middle; dominant-baseline: middle;">1</text><text x="5" y="14" style="font-family: sans-serif; font-size: 14px; fill: black;" dominant-baseline="middle">ecs</text></g></g></g><g clip-path="url(#gu3Mbd5Z977ZEqYBZhM3z)"><g transform="matrix(1, 0, 0, 1, 0, 0)" opacity="1"><g><defs><mask id="shape_module.ecs-alb.aws_cloudwatch_log_group.ecs-module.ecs-alb.aws_autoscaling_group.app:1712325753935_clip"><rect x="514.1666666666666" y="320" width="228.4046130812053" height="609.0264283693555" fill="white"/><path d="M 645.2040950485633 823.6349273174734 L 642.5712797478719 829.0264283693555 L 639.2185105227572 824.0505929095433" fill="none" stroke="none"/></mask></defs><g mask="url(#shape_module.ecs-alb.aws_cloudwatch_log_group.ecs-module.ecs-alb.aws_autoscaling_group.app:1712325753935_clip)"><rect x="-100" y="-100" width="228.4046130812053" height="609.0264283693555" fill="transparent" stroke="none"/><path d="M614.1666666666666,420L642.5712797478719,829.0264283693555" fill="none" stroke="#1d1d1d" stroke-width="2" stroke-dasharray="none" stroke-dashoffset="none"/></g><path d="M 645.2040950485633 823.6349273174734 L 642.5712797478719 829.0264283693555 L 639.2185105227572 824.0505929095433" fill="none" stroke="#1d1d1d" stroke-width="2"/></g></g></g><g clip-path="url(#ieyT1vSQX_wKK5xY2MBws)"><g transform="matrix(1, 0, 0, 1, 0, 0)" opacity="1"><g><defs><mask id="shape_module.ecs-alb.aws_cloudwatch_log_group.ecs-module.ecs-alb.aws_iam_role.app_instance:1712325753935_clip"><rect x="448.14281596191756" y="320" width="239.98218403808244" height="309.66541907588316" fill="white"/><path d="M 552.7411694902067 525.8111818194509 L 548.1428159619176 529.6654190758832 L 547.1041253497793 523.7560094765868" fill="none" stroke="none"/></mask></defs><g mask="url(#shape_module.ecs-alb.aws_cloudwatch_log_group.ecs-module.ecs-alb.aws_iam_role.app_instance:1712325753935_clip)"><rect x="-100" y="-100" width="239.98218403808244" height="309.66541907588316" fill="transparent" stroke="none"/><path d="M588.125,420L548.1428159619176,529.6654190758832" fill="none" stroke="#1d1d1d" stroke-width="2" stroke-dasharray="none" stroke-dashoffset="none"/></g><path d="M 552.7411694902067 525.8111818194509 L 548.1428159619176 529.6654190758832 L 547.1041253497793 523.7560094765868" fill="none" stroke="#1d1d1d" stroke-width="2"/></g></g></g><g clip-path="url(#xfHfu54YvznirAGr9lyIW)"><g transform="matrix(1, 0, 0, 1, 92.5, 540)" opacity="1"><g><rect width="120" height="120" rx="4" fill="white" stroke="black" stroke-width="2"/><text x="5" y="28" style="font-family: sans-serif; font-size: 10px; fill: #504758;" dominant-baseline="middle">Ecs Cluster</text><clipPath id="clip-round-corners-62juhj9zj"><rect x="0" y="0" width="64" height="64" rx="4" ry="4"/></clipPath><svg width="58" height="58" viewBox="0 0 64 64" version="1.1" xmlns="http://www.w3.org/2000/svg" xmlns:xlink="http://www.w3.org/1999/xlink" x="31" y="48" clip-path="url(#clip-round-corners-62juhj9zj)">
    <title>Icon-Architecture/48/Arch_Amazon-Elastic-Container-Service_48</title>
    <g id="Icon-Architecture/48/Arch_Amazon-Elastic-Container-Service_48" stroke="none" stroke-width="1" fill="none" fill-rule="evenodd">
        <g id="Icon-Architecture-BG/48/Compute" fill="#ED7100">
            <rect id="Rectangle" x="0" y="0" width="64" height="64"/>
        </g>
        <path d="M50,36.3822466 L44,33.3822885 L44,25.0004058 C44,24.6374109 43.803,24.3024156 43.485,24.1264181 L35,19.412484 L35,12.7495773 L50,21.5724538 L50,36.3822466 Z M51.507,20.1384739 L34.507,10.1386138 C34.199,9.95761637 33.815,9.95461641 33.504,10.1326139 C33.192,10.3106114 33,10.6416068 33,11.0006018 L33,20.0004758 C33,20.3634707 33.197,20.6984661 33.515,20.8744636 L42,25.5883976 L42,34.0002799 C42,34.3792746 42.214,34.7252697 42.553,34.8952674 L50.553,38.8952114 C50.694,38.9652104 50.847,39.0002099 51,39.0002099 C51.183,39.0002099 51.365,38.9502106 51.525,38.851212 C51.82,38.6682146 52,38.3472191 52,38.0002239 L52,21.0004618 C52,20.6464668 51.812,20.3184714 51.507,20.1384739 L51.507,20.1384739 Z M32,51.8280304 L15,41.4391758 L15,21.5544541 L29,12.8045765 L29,19.4464836 L21.47,24.1524177 C21.178,24.3354152 21,24.6554107 21,25.0004058 L21,38.0002239 C21,38.351219 21.185,38.6772144 21.485,38.8572119 L31.485,44.857128 C31.789,45.0401254 32.167,45.0481253 32.479,44.8781277 L42.988,39.1462079 L48.035,42.0291675 L32,51.8280304 Z M50.496,41.1321801 L43.496,37.1322361 C43.194,36.9592385 42.825,36.9562385 42.521,37.1222362 L32.023,42.8481561 L23,37.4342318 L23,25.5543981 L30.53,20.848464 C30.822,20.6654665 31,20.345471 31,20.0004758 L31,11.0006018 C31,10.6366069 30.803,10.3026115 30.484,10.125614 C30.168,9.9486165 29.778,9.95961634 29.47,10.1526136 L13.47,20.1524737 C13.178,20.3354711 13,20.6554667 13,21.0004618 L13,42.0001679 C13,42.3481631 13.182,42.6711585 13.479,42.854156 L31.479,53.854002 C31.639,53.9510007 31.819,54 32,54 C32.181,54 32.361,53.9510007 32.521,53.854002 L50.521,42.854156 C50.823,42.6691586 51.005,42.3391632 51.0001004,41.9851681 C50.995,41.6321731 50.803,41.3071776 50.496,41.1321801 L50.496,41.1321801 Z" id="Amazon-Elastic-Container-Service_Icon_48_Squid" fill="#FFFFFF"/>
    </g>
</svg><rect x="91" y="5" width="24" height="16" rx="8" ry="8" fill="#37bb65"/><text x="103" y="14" style="font-family: sans-serif; font-size: 12px; fill: black; text-anchor: middle; dominant-baseline: middle;">1</text><text x="5" y="14" style="font-family: sans-serif; font-size: 14px; fill: black;" dominant-baseline="middle">main</text></g></g></g><g clip-path="url(#Z836drOvLsF6cqa6FeSS5)"><g transform="matrix(1, 0, 0, 1, 0, 0)" opacity="1"><g><defs><mask id="shape_module.ecs-alb.aws_ecs_cluster.main-module.ecs-alb.aws_autoscaling_group.app:1712325753935_clip"><rect x="112.5" y="536.3636363636364" width="565.5928238529058" height="421.5714083957005" fill="white"/><path d="M 575.203990716863 852.6762765469033 L 578.0928238529058 857.9350447593368 L 572.0941804203029 857.8074635362274" fill="none" stroke="none"/></mask></defs><g mask="url(#shape_module.ecs-alb.aws_ecs_cluster.main-module.ecs-alb.aws_autoscaling_group.app:1712325753935_clip)"><rect x="-100" y="-100" width="565.5928238529058" height="421.5714083957005" fill="transparent" stroke="none"/><path d="M212.5,636.3636363636364L578.0928238529058,857.9350447593368" fill="none" stroke="#1d1d1d" stroke-width="2" stroke-dasharray="none" stroke-dashoffset="none"/></g><path d="M 575.203990716863 852.6762765469033 L 578.0928238529058 857.9350447593368 L 572.0941804203029 857.8074635362274" fill="none" stroke="#1d1d1d" stroke-width="2"/></g></g></g><g clip-path="url(#qXutcJSrsMNVHdOKtQmj9)"><g transform="matrix(1, 0, 0, 1, 0, 0)" opacity="1"><g><defs><mask id="shape_module.ecs-alb.aws_ecs_cluster.main-module.ecs-alb.aws_ecs_service.test:1712325753935_clip"><rect x="33.413500278391126" y="560" width="214.08649972160887" height="369.0379966593064" fill="white"/><path d="M 136.83465452446265 824.1089294428255 L 133.41350027839113 829.0379966593064 L 130.85537997499333 823.610656563703" fill="none" stroke="none"/></mask></defs><g mask="url(#shape_module.ecs-alb.aws_ecs_cluster.main-module.ecs-alb.aws_ecs_service.test:1712325753935_clip)"><rect x="-100" y="-100" width="214.08649972160887" height="369.0379966593064" fill="transparent" stroke="none"/><path d="M147.5,660L133.41350027839113,829.0379966593064" fill="none" stroke="#1d1d1d" stroke-width="2" stroke-dasharray="none" stroke-dashoffset="none"/></g><path d="M 136.83465452446265 824.1089294428255 L 133.41350027839113 829.0379966593064 L 130.85537997499333 823.610656563703" fill="none" stroke="#1d1d1d" stroke-width="2"/></g></g></g><g clip-path="url(#lpPiMBM216MU0An3FieYo)"><g transform="matrix(1, 0, 0, 1, 262.5, 540)" opacity="1"><g><rect width="120" height="120" rx="4" fill="white" stroke="black" stroke-width="2"/><text x="5" y="28" style="font-family: sans-serif; font-size: 10px; fill: #504758;" dominant-baseline="middle">Iam Role</text><clipPath id="clip-round-corners-yhztiu2kj"><rect x="0" y="0" width="64" height="64" rx="4" ry="4"/></clipPath><svg width="58" height="58" viewBox="0 0 64 64" version="1.1" xmlns="http://www.w3.org/2000/svg" xmlns:xlink="http://www.w3.org/1999/xlink" x="31" y="48" clip-path="url(#clip-round-corners-yhztiu2kj)">
    <title>Icon-Architecture/48/Arch_AWS-Identity-and-Access-Management_48</title>
    <g id="Icon-Architecture/48/Arch_AWS-Identity-and-Access-Management_48" stroke="none" stroke-width="1" fill="none" fill-rule="evenodd">
        <g id="Icon-Architecture-BG/48/Security-Identity-Compliance" fill="#DD344C">
            <rect id="Rectangle" x="0" y="0" width="64" height="64"/>
        </g>
        <path d="M12,47 L52,47 L52,18 L12,18 L12,47 Z M54,17 L54,48 C54,48.552 53.553,49 53,49 L11,49 C10.447,49 10,48.552 10,48 L10,17 C10,16.448 10.447,16 11,16 L53,16 C53.553,16 54,16.448 54,17 L54,17 Z M35,39 L47,39 L47,37 L35,37 L35,39 Z M45,35 L49,35 L49,33 L45,33 L45,35 Z M35,35 L41,35 L41,33 L35,33 L35,35 Z M22.5,37.5 C22.5,37.776 22.725,38 23,38 C23.275,38 23.5,37.776 23.5,37.5 C23.5,37.224 23.275,37 23,37 C22.725,37 22.5,37.224 22.5,37.5 L22.5,37.5 Z M25.5,37.5 C25.5,38.522 24.882,39.401 24,39.788 L24,42 L22,42 L22,39.788 C21.118,39.401 20.5,38.522 20.5,37.5 C20.5,36.122 21.621,35 23,35 C24.379,35 25.5,36.122 25.5,37.5 L25.5,37.5 Z M16,42.995 L29.995,43 L29.996,41 L27,41 L27,39 L29.997,39 L29.998,37 L27,37 L27,35 L29.999,35 L30,33.005 L16.005,33 L16,42.995 Z M18,31.001 L28.001,31.004 L28.002,26 C28.002,24.976 27.2,24.273 26.722,23.945 C25.847,23.345 24.174,23 23.002,23 L23,23 C20.873,23 18.003,24.232 18.002,26 L18,31.001 Z M14.293,44.701 C14.105,44.513 14,44.259 14,43.994 L14.005,32 C14.005,31.447 14.453,31 15.005,31 L16,31 L16.002,26 C16.003,22.911 19.876,21 23,21 L23.002,21 C24.567,21 26.653,21.473 27.854,22.295 C29.239,23.246 30.003,24.562 30.002,26 L30.001,31.005 L31,31.006 C31.266,31.006 31.52,31.111 31.707,31.299 C31.895,31.487 32,31.741 32,32.006 L31.995,44 C31.995,44.553 31.547,45 30.995,45 L15,44.994 C14.734,44.994 14.48,44.889 14.293,44.701 L14.293,44.701 Z M47,30 L49,30 L49,28 L47,28 L47,30 Z M35,30 L44,30 L44,28 L35,28 L35,30 Z" id="AWS-Identity-and-Access-Management_Icon_48_Squid" fill="#FFFFFF"/>
    </g>
</svg><rect x="91" y="5" width="24" height="16" rx="8" ry="8" fill="#37bb65"/><text x="103" y="14" style="font-family: sans-serif; font-size: 12px; fill: black; text-anchor: middle; dominant-baseline: middle;">2</text><text x="5" y="14" style="font-family: sans-serif; font-size: 14px; fill: black;" dominant-baseline="middle">ecs_ser...</text></g></g></g><g clip-path="url(#Vz5SIRSAO6nBZ7P3Vu17W)"><g transform="matrix(1, 0, 0, 1, 0, 0)" opacity="1"><g><defs><mask id="shape_module.ecs-alb.aws_iam_role.ecs_service-module.ecs-alb.aws_iam_role.ecs_service:1712325753935_clip"><rect x="222.5" y="500" width="200" height="200" fill="white"/><path d="M NaN NaN L 322.5 600 L NaN NaN" fill="none" stroke="none"/></mask></defs><g mask="url(#shape_module.ecs-alb.aws_iam_role.ecs_service-module.ecs-alb.aws_iam_role.ecs_service:1712325753935_clip)"><rect x="-100" y="-100" width="200" height="200" fill="transparent" stroke="none"/><path d="M322.5,600L322.5,600" fill="none" stroke="#1d1d1d" stroke-width="2" stroke-dasharray="none" stroke-dashoffset="none"/></g><path d="M NaN NaN L 322.5 600 L NaN NaN" fill="none" stroke="#1d1d1d" stroke-width="2"/></g></g></g><g clip-path="url(#9unSU4YYCfWIH5wvxxuQe)"><g transform="matrix(1, 0, 0, 1, 0, 0)" opacity="1"><g><defs><mask id="shape_module.ecs-alb.aws_iam_role.ecs_service-module.ecs-alb.aws_ecs_service.test:1712325753935_clip"><rect x="72.49487185654957" y="560" width="311.0051281434504" height="370.77712022069295" fill="white"/><path d="M 177.8420452437447 828.0554044443357 L 172.49487185654957 830.777120220693 L 172.8113835459409 824.7854743407632" fill="none" stroke="none"/></mask></defs><g mask="url(#shape_module.ecs-alb.aws_iam_role.ecs_service-module.ecs-alb.aws_ecs_service.test:1712325753935_clip)"><rect x="-100" y="-100" width="311.0051281434504" height="370.77712022069295" fill="transparent" stroke="none"/><path d="M283.5,660L172.49487185654957,830.777120220693" fill="none" stroke="#1d1d1d" stroke-width="2" stroke-dasharray="none" stroke-dashoffset="none"/></g><path d="M 177.8420452437447 828.0554044443357 L 172.49487185654957 830.777120220693 L 172.8113835459409 824.7854743407632" fill="none" stroke="#1d1d1d" stroke-width="2"/></g></g></g><g clip-path="url(#ff2HZjyc3X3k-LwKqYTsE)"><g transform="matrix(1, 0, 0, 1, 852.5, 540)" opacity="1"><g><rect width="120" height="120" rx="4" fill="white" stroke="black" stroke-width="2"/><text x="5" y="28" style="font-family: sans-serif; font-size: 10px; fill: #504758;" dominant-baseline="middle">Internet Gateway</text><clipPath id="clip-round-corners-d770pioat"><rect x="0" y="0" width="64" height="64" rx="4" ry="4"/></clipPath><svg width="58" height="58" viewBox="0 0 64 64" version="1.1" xmlns="http://www.w3.org/2000/svg" xmlns:xlink="http://www.w3.org/1999/xlink" x="31" y="48" clip-path="url(#clip-round-corners-d770pioat)">
    <title>Icon-Architecture/48/Arch_Amazon-Virtual-Private-Cloud_48</title>
    <g id="Icon-Architecture/48/Arch_Amazon-Virtual-Private-Cloud_48" stroke="none" stroke-width="1" fill="none" fill-rule="evenodd">
        <g id="Icon-Architecture-BG/48/Networking-Content-Delivery" fill="#8C4FFF">
            <rect id="Rectangle" x="0" y="0" width="64" height="64"/>
        </g>
        <path d="M48,33.9772867 L44.499,32.5082867 L44.499,46.8782867 C47.906,46.1472867 47.998,42.1812867 48,41.9952867 L48,33.9772867 Z M42.499,46.9232867 L42.499,32.5082867 L39,33.9772867 L39,42.0042867 C39.008,42.4662867 39.183,46.3392867 42.499,46.9232867 L42.499,46.9232867 Z M43.112,30.0822867 C43.358,29.9772867 43.638,29.9782867 43.886,30.0812867 L49.387,32.3902867 C49.759,32.5462867 50,32.9092867 50,33.3122867 L50,42.0042867 C49.978,44.4312867 48.562,49.0042867 43.37,49.0042867 C38.393,49.0042867 37.026,44.4322867 37,42.0152867 L37,33.3122867 C37,32.9092867 37.241,32.5462867 37.613,32.3902867 L43.112,30.0822867 Z M52,30.7922867 L43.492,27.0922867 L34.9998912,30.6682867 L34.9998912,41.0252867 C34.999,41.0902867 34.963,46.0092867 37.807,48.8942867 C39.187,50.2942867 41.059,51.0042867 43.37,51.0042867 C51.808,51.0042867 51.996,41.4252867 52,41.0182867 L52,30.7922867 Z M54,30.1362867 L54,41.0252867 C53.973,45.1732867 51.716,53.0042867 43.37,53.0042867 C40.498,53.0042867 38.145,52.0902867 36.373,50.2882867 C32.941,46.7972867 32.996,41.2432867 33,41.0082867 L33,30.0042867 C33,29.6022867 33.241,29.2382867 33.612,29.0822867 L43.111,25.0822867 C43.363,24.9762867 43.647,24.9782867 43.897,25.0872867 L53.398,29.2192867 C53.764,29.3782867 54,29.7382867 54,30.1362867 L54,30.1362867 Z M19,38.0042867 L30,38.0042867 L30,40.0042867 L19,40.0042867 C14.216,40.0042867 10.271,36.4832867 10.02,31.9882867 C10.002,31.8132867 10,31.5992867 10,31.3852867 C10,26.0862867 13.654,24.0382867 15.919,23.2782867 C15.902,23.0632867 15.891,22.8432867 15.891,22.6262867 C15.891,18.0392867 18.658,13.7012867 22.621,12.0792867 C27.58,10.0492867 33.235,10.9372867 36.695,14.2852867 C37.718,15.2822867 38.604,16.5962867 39.343,18.2062867 C40.299,17.4222867 41.392,17.0042867 42.523,17.0042867 C45.234,17.0042867 48.281,19.2962867 48.9,23.0622867 C51.069,23.3442867 52.936,24.6392867 53.896,26.5822867 L52.104,27.4692867 C51.34,25.9252867 49.806,25.0042867 48,25.0042867 C47.471,25.0042867 47.033,24.5912867 47.002,24.0632867 C46.807,20.7622867 44.275,19.0042867 42.523,19.0042867 C41.55,19.0042867 40.582,19.5742867 39.797,20.6082867 C39.575,20.8992867 39.215,21.0482867 38.852,20.9932867 C38.49,20.9382867 38.187,20.6912867 38.062,20.3482867 C37.327,18.3462867 36.398,16.7892867 35.302,15.7202867 C32.406,12.9172867 27.615,12.1962867 23.379,13.9302867 C19.775,15.4052867 17.891,19.4212867 17.891,22.6262867 C17.891,23.0262867 17.947,23.5032867 17.993,23.8862867 C18.053,24.3862867 17.73,24.8532867 17.24,24.9752867 C15.283,25.4592867 12,26.9372867 12,31.3852867 C12,31.5352867 11.998,31.6852867 12.013,31.8362867 C12.209,35.3122867 15.276,38.0042867 19,38.0042867 L19,38.0042867 Z" id="Amazon-Virtual-Private-Cloud_Icon_48_Squid" fill="#FFFFFF"/>
    </g>
</svg><rect x="91" y="5" width="24" height="16" rx="8" ry="8" fill="#37bb65"/><text x="103" y="14" style="font-family: sans-serif; font-size: 12px; fill: black; text-anchor: middle; dominant-baseline: middle;">4</text><text x="5" y="14" style="font-family: sans-serif; font-size: 14px; fill: black;" dominant-baseline="middle">gw</text></g></g></g><g clip-path="url(#DXGhAtOvTF4yE_rDBNEhq)"><g transform="matrix(1, 0, 0, 1, 0, 0)" opacity="1"><g><defs><mask id="shape_module.ecs-alb.aws_internet_gateway.gw-module.ecs-alb.aws_internet_gateway.gw:1712325753935_clip"><rect x="812.5" y="500" width="200" height="200" fill="white"/><path d="M NaN NaN L 912.5 600 L NaN NaN" fill="none" stroke="none"/></mask></defs><g mask="url(#shape_module.ecs-alb.aws_internet_gateway.gw-module.ecs-alb.aws_internet_gateway.gw:1712325753935_clip)"><rect x="-100" y="-100" width="200" height="200" fill="transparent" stroke="none"/><path d="M912.5,600L912.5,600" fill="none" stroke="#1d1d1d" stroke-width="2" stroke-dasharray="none" stroke-dashoffset="none"/></g><path d="M NaN NaN L 912.5 600 L NaN NaN" fill="none" stroke="#1d1d1d" stroke-width="2"/></g></g></g><g clip-path="url(#cUSvEiUr1KDvn8-t35_k1)"><g transform="matrix(1, 0, 0, 1, 682.5, 540)" opacity="1"><g><rect width="120" height="120" rx="4" fill="white" stroke="black" stroke-width="2"/><text x="5" y="28" style="font-family: sans-serif; font-size: 10px; fill: #504758;" dominant-baseline="middle">Security Group</text><clipPath id="clip-round-corners-9igereg7f"><rect x="0" y="0" width="64" height="64" rx="4" ry="4"/></clipPath><svg width="58" height="58" viewBox="0 0 64 64" version="1.1" xmlns="http://www.w3.org/2000/svg" xmlns:xlink="http://www.w3.org/1999/xlink" x="31" y="48" clip-path="url(#clip-round-corners-9igereg7f)">
    <title>Icon-Architecture/48/Arch_Amazon-Virtual-Private-Cloud_48</title>
    <g id="Icon-Architecture/48/Arch_Amazon-Virtual-Private-Cloud_48" stroke="none" stroke-width="1" fill="none" fill-rule="evenodd">
        <g id="Icon-Architecture-BG/48/Networking-Content-Delivery" fill="#8C4FFF">
            <rect id="Rectangle" x="0" y="0" width="64" height="64"/>
        </g>
        <path d="M48,33.9772867 L44.499,32.5082867 L44.499,46.8782867 C47.906,46.1472867 47.998,42.1812867 48,41.9952867 L48,33.9772867 Z M42.499,46.9232867 L42.499,32.5082867 L39,33.9772867 L39,42.0042867 C39.008,42.4662867 39.183,46.3392867 42.499,46.9232867 L42.499,46.9232867 Z M43.112,30.0822867 C43.358,29.9772867 43.638,29.9782867 43.886,30.0812867 L49.387,32.3902867 C49.759,32.5462867 50,32.9092867 50,33.3122867 L50,42.0042867 C49.978,44.4312867 48.562,49.0042867 43.37,49.0042867 C38.393,49.0042867 37.026,44.4322867 37,42.0152867 L37,33.3122867 C37,32.9092867 37.241,32.5462867 37.613,32.3902867 L43.112,30.0822867 Z M52,30.7922867 L43.492,27.0922867 L34.9998912,30.6682867 L34.9998912,41.0252867 C34.999,41.0902867 34.963,46.0092867 37.807,48.8942867 C39.187,50.2942867 41.059,51.0042867 43.37,51.0042867 C51.808,51.0042867 51.996,41.4252867 52,41.0182867 L52,30.7922867 Z M54,30.1362867 L54,41.0252867 C53.973,45.1732867 51.716,53.0042867 43.37,53.0042867 C40.498,53.0042867 38.145,52.0902867 36.373,50.2882867 C32.941,46.7972867 32.996,41.2432867 33,41.0082867 L33,30.0042867 C33,29.6022867 33.241,29.2382867 33.612,29.0822867 L43.111,25.0822867 C43.363,24.9762867 43.647,24.9782867 43.897,25.0872867 L53.398,29.2192867 C53.764,29.3782867 54,29.7382867 54,30.1362867 L54,30.1362867 Z M19,38.0042867 L30,38.0042867 L30,40.0042867 L19,40.0042867 C14.216,40.0042867 10.271,36.4832867 10.02,31.9882867 C10.002,31.8132867 10,31.5992867 10,31.3852867 C10,26.0862867 13.654,24.0382867 15.919,23.2782867 C15.902,23.0632867 15.891,22.8432867 15.891,22.6262867 C15.891,18.0392867 18.658,13.7012867 22.621,12.0792867 C27.58,10.0492867 33.235,10.9372867 36.695,14.2852867 C37.718,15.2822867 38.604,16.5962867 39.343,18.2062867 C40.299,17.4222867 41.392,17.0042867 42.523,17.0042867 C45.234,17.0042867 48.281,19.2962867 48.9,23.0622867 C51.069,23.3442867 52.936,24.6392867 53.896,26.5822867 L52.104,27.4692867 C51.34,25.9252867 49.806,25.0042867 48,25.0042867 C47.471,25.0042867 47.033,24.5912867 47.002,24.0632867 C46.807,20.7622867 44.275,19.0042867 42.523,19.0042867 C41.55,19.0042867 40.582,19.5742867 39.797,20.6082867 C39.575,20.8992867 39.215,21.0482867 38.852,20.9932867 C38.49,20.9382867 38.187,20.6912867 38.062,20.3482867 C37.327,18.3462867 36.398,16.7892867 35.302,15.7202867 C32.406,12.9172867 27.615,12.1962867 23.379,13.9302867 C19.775,15.4052867 17.891,19.4212867 17.891,22.6262867 C17.891,23.0262867 17.947,23.5032867 17.993,23.8862867 C18.053,24.3862867 17.73,24.8532867 17.24,24.9752867 C15.283,25.4592867 12,26.9372867 12,31.3852867 C12,31.5352867 11.998,31.6852867 12.013,31.8362867 C12.209,35.3122867 15.276,38.0042867 19,38.0042867 L19,38.0042867 Z" id="Amazon-Virtual-Private-Cloud_Icon_48_Squid" fill="#FFFFFF"/>
    </g>
</svg><rect x="91" y="5" width="24" height="16" rx="8" ry="8" fill="#37bb65"/><text x="103" y="14" style="font-family: sans-serif; font-size: 12px; fill: black; text-anchor: middle; dominant-baseline: middle;">1</text><text x="5" y="14" style="font-family: sans-serif; font-size: 14px; fill: black;" dominant-baseline="middle">instanc...</text></g></g></g><g clip-path="url(#3H8M_mIqhJdiNMhYkuRYc)"><g transform="matrix(1, 0, 0, 1, 0, 0)" opacity="1"><g><defs><mask id="shape_module.ecs-alb.aws_security_group.instance_sg-module.ecs-alb.aws_autoscaling_group.app:1712325753935_clip"><rect x="569.8208087516384" y="560" width="253.67919124836158" height="369.51323552114184" fill="white"/><path d="M 674.2495107404335 825.4651991213002 L 669.8208087516384 829.5132355211418 L 668.529457388329 823.6538488931338" fill="none" stroke="none"/></mask></defs><g mask="url(#shape_module.ecs-alb.aws_security_group.instance_sg-module.ecs-alb.aws_autoscaling_group.app:1712325753935_clip)"><rect x="-100" y="-100" width="253.67919124836158" height="369.51323552114184" fill="transparent" stroke="none"/><path d="M723.5,660L669.8208087516384,829.5132355211418" fill="none" stroke="#1d1d1d" stroke-width="2" stroke-dasharray="none" stroke-dashoffset="none"/></g><path d="M 674.2495107404335 825.4651991213002 L 669.8208087516384 829.5132355211418 L 668.529457388329 823.6538488931338" fill="none" stroke="#1d1d1d" stroke-width="2"/></g></g></g><g clip-path="url(#EbT3XRd7Xte2I3QYmh-ir)"><g transform="matrix(1, 0, 0, 1, 825, 300)" opacity="1"><g><rect width="120" height="120" rx="4" fill="white" stroke="black" stroke-width="2"/><text x="5" y="28" style="font-family: sans-serif; font-size: 10px; fill: #504758;" dominant-baseline="middle">Security Group</text><clipPath id="clip-round-corners-bmy4g4jh6"><rect x="0" y="0" width="64" height="64" rx="4" ry="4"/></clipPath><svg width="58" height="58" viewBox="0 0 64 64" version="1.1" xmlns="http://www.w3.org/2000/svg" xmlns:xlink="http://www.w3.org/1999/xlink" x="31" y="48" clip-path="url(#clip-round-corners-bmy4g4jh6)">
    <title>Icon-Architecture/48/Arch_Amazon-Virtual-Private-Cloud_48</title>
    <g id="Icon-Architecture/48/Arch_Amazon-Virtual-Private-Cloud_48" stroke="none" stroke-width="1" fill="none" fill-rule="evenodd">
        <g id="Icon-Architecture-BG/48/Networking-Content-Delivery" fill="#8C4FFF">
            <rect id="Rectangle" x="0" y="0" width="64" height="64"/>
        </g>
        <path d="M48,33.9772867 L44.499,32.5082867 L44.499,46.8782867 C47.906,46.1472867 47.998,42.1812867 48,41.9952867 L48,33.9772867 Z M42.499,46.9232867 L42.499,32.5082867 L39,33.9772867 L39,42.0042867 C39.008,42.4662867 39.183,46.3392867 42.499,46.9232867 L42.499,46.9232867 Z M43.112,30.0822867 C43.358,29.9772867 43.638,29.9782867 43.886,30.0812867 L49.387,32.3902867 C49.759,32.5462867 50,32.9092867 50,33.3122867 L50,42.0042867 C49.978,44.4312867 48.562,49.0042867 43.37,49.0042867 C38.393,49.0042867 37.026,44.4322867 37,42.0152867 L37,33.3122867 C37,32.9092867 37.241,32.5462867 37.613,32.3902867 L43.112,30.0822867 Z M52,30.7922867 L43.492,27.0922867 L34.9998912,30.6682867 L34.9998912,41.0252867 C34.999,41.0902867 34.963,46.0092867 37.807,48.8942867 C39.187,50.2942867 41.059,51.0042867 43.37,51.0042867 C51.808,51.0042867 51.996,41.4252867 52,41.0182867 L52,30.7922867 Z M54,30.1362867 L54,41.0252867 C53.973,45.1732867 51.716,53.0042867 43.37,53.0042867 C40.498,53.0042867 38.145,52.0902867 36.373,50.2882867 C32.941,46.7972867 32.996,41.2432867 33,41.0082867 L33,30.0042867 C33,29.6022867 33.241,29.2382867 33.612,29.0822867 L43.111,25.0822867 C43.363,24.9762867 43.647,24.9782867 43.897,25.0872867 L53.398,29.2192867 C53.764,29.3782867 54,29.7382867 54,30.1362867 L54,30.1362867 Z M19,38.0042867 L30,38.0042867 L30,40.0042867 L19,40.0042867 C14.216,40.0042867 10.271,36.4832867 10.02,31.9882867 C10.002,31.8132867 10,31.5992867 10,31.3852867 C10,26.0862867 13.654,24.0382867 15.919,23.2782867 C15.902,23.0632867 15.891,22.8432867 15.891,22.6262867 C15.891,18.0392867 18.658,13.7012867 22.621,12.0792867 C27.58,10.0492867 33.235,10.9372867 36.695,14.2852867 C37.718,15.2822867 38.604,16.5962867 39.343,18.2062867 C40.299,17.4222867 41.392,17.0042867 42.523,17.0042867 C45.234,17.0042867 48.281,19.2962867 48.9,23.0622867 C51.069,23.3442867 52.936,24.6392867 53.896,26.5822867 L52.104,27.4692867 C51.34,25.9252867 49.806,25.0042867 48,25.0042867 C47.471,25.0042867 47.033,24.5912867 47.002,24.0632867 C46.807,20.7622867 44.275,19.0042867 42.523,19.0042867 C41.55,19.0042867 40.582,19.5742867 39.797,20.6082867 C39.575,20.8992867 39.215,21.0482867 38.852,20.9932867 C38.49,20.9382867 38.187,20.6912867 38.062,20.3482867 C37.327,18.3462867 36.398,16.7892867 35.302,15.7202867 C32.406,12.9172867 27.615,12.1962867 23.379,13.9302867 C19.775,15.4052867 17.891,19.4212867 17.891,22.6262867 C17.891,23.0262867 17.947,23.5032867 17.993,23.8862867 C18.053,24.3862867 17.73,24.8532867 17.24,24.9752867 C15.283,25.4592867 12,26.9372867 12,31.3852867 C12,31.5352867 11.998,31.6852867 12.013,31.8362867 C12.209,35.3122867 15.276,38.0042867 19,38.0042867 L19,38.0042867 Z" id="Amazon-Virtual-Private-Cloud_Icon_48_Squid" fill="#FFFFFF"/>
    </g>
</svg><rect x="91" y="5" width="24" height="16" rx="8" ry="8" fill="#37bb65"/><text x="103" y="14" style="font-family: sans-serif; font-size: 12px; fill: black; text-anchor: middle; dominant-baseline: middle;">1</text><text x="5" y="14" style="font-family: sans-serif; font-size: 14px; fill: black;" dominant-baseline="middle">lb_sg</text></g></g></g><g clip-path="url(#oDC3RPj48hf0K0azp-NTe)"><g transform="matrix(1, 0, 0, 1, 0, 0)" opacity="1"><g><defs><mask id="shape_module.ecs-alb.aws_security_group.lb_sg-module.ecs-alb.aws_security_group.instance_sg:1712325753935_clip"><rect x="683.7409262957098" y="320" width="265.63407370429024" height="310.54159781775195" fill="white"/><path d="M 788.9733277115223 527.6052777698344 L 783.7409262957098 530.541597817752 L 783.8141992484778 524.5420452449018" fill="none" stroke="none"/></mask></defs><g mask="url(#shape_module.ecs-alb.aws_security_group.lb_sg-module.ecs-alb.aws_security_group.instance_sg:1712325753935_clip)"><rect x="-100" y="-100" width="265.63407370429024" height="310.54159781775195" fill="transparent" stroke="none"/><path d="M849.375,420L783.7409262957098,530.541597817752" fill="none" stroke="#1d1d1d" stroke-width="2" stroke-dasharray="none" stroke-dashoffset="none"/></g><path d="M 788.9733277115223 527.6052777698344 L 783.7409262957098 530.541597817752 L 783.8141992484778 524.5420452449018" fill="none" stroke="#1d1d1d" stroke-width="2"/></g></g></g><g clip-path="url(#EyH363k-Hfraaqgiyifqc)"><g transform="matrix(1, 0, 0, 1, 1057.5, 300)" opacity="1"><g><rect width="120" height="120" rx="4" fill="white" stroke="black" stroke-width="2"/><text x="5" y="28" style="font-family: sans-serif; font-size: 10px; fill: #504758;" dominant-baseline="middle">Subnet</text><clipPath id="clip-round-corners-hgjj1kq06"><rect x="0" y="0" width="64" height="64" rx="4" ry="4"/></clipPath><svg width="58" height="58" viewBox="0 0 64 64" version="1.1" xmlns="http://www.w3.org/2000/svg" xmlns:xlink="http://www.w3.org/1999/xlink" x="31" y="48" clip-path="url(#clip-round-corners-hgjj1kq06)">
    <title>Icon-Architecture/48/Arch_Amazon-Virtual-Private-Cloud_48</title>
    <g id="Icon-Architecture/48/Arch_Amazon-Virtual-Private-Cloud_48" stroke="none" stroke-width="1" fill="none" fill-rule="evenodd">
        <g id="Icon-Architecture-BG/48/Networking-Content-Delivery" fill="#8C4FFF">
            <rect id="Rectangle" x="0" y="0" width="64" height="64"/>
        </g>
        <path d="M48,33.9772867 L44.499,32.5082867 L44.499,46.8782867 C47.906,46.1472867 47.998,42.1812867 48,41.9952867 L48,33.9772867 Z M42.499,46.9232867 L42.499,32.5082867 L39,33.9772867 L39,42.0042867 C39.008,42.4662867 39.183,46.3392867 42.499,46.9232867 L42.499,46.9232867 Z M43.112,30.0822867 C43.358,29.9772867 43.638,29.9782867 43.886,30.0812867 L49.387,32.3902867 C49.759,32.5462867 50,32.9092867 50,33.3122867 L50,42.0042867 C49.978,44.4312867 48.562,49.0042867 43.37,49.0042867 C38.393,49.0042867 37.026,44.4322867 37,42.0152867 L37,33.3122867 C37,32.9092867 37.241,32.5462867 37.613,32.3902867 L43.112,30.0822867 Z M52,30.7922867 L43.492,27.0922867 L34.9998912,30.6682867 L34.9998912,41.0252867 C34.999,41.0902867 34.963,46.0092867 37.807,48.8942867 C39.187,50.2942867 41.059,51.0042867 43.37,51.0042867 C51.808,51.0042867 51.996,41.4252867 52,41.0182867 L52,30.7922867 Z M54,30.1362867 L54,41.0252867 C53.973,45.1732867 51.716,53.0042867 43.37,53.0042867 C40.498,53.0042867 38.145,52.0902867 36.373,50.2882867 C32.941,46.7972867 32.996,41.2432867 33,41.0082867 L33,30.0042867 C33,29.6022867 33.241,29.2382867 33.612,29.0822867 L43.111,25.0822867 C43.363,24.9762867 43.647,24.9782867 43.897,25.0872867 L53.398,29.2192867 C53.764,29.3782867 54,29.7382867 54,30.1362867 L54,30.1362867 Z M19,38.0042867 L30,38.0042867 L30,40.0042867 L19,40.0042867 C14.216,40.0042867 10.271,36.4832867 10.02,31.9882867 C10.002,31.8132867 10,31.5992867 10,31.3852867 C10,26.0862867 13.654,24.0382867 15.919,23.2782867 C15.902,23.0632867 15.891,22.8432867 15.891,22.6262867 C15.891,18.0392867 18.658,13.7012867 22.621,12.0792867 C27.58,10.0492867 33.235,10.9372867 36.695,14.2852867 C37.718,15.2822867 38.604,16.5962867 39.343,18.2062867 C40.299,17.4222867 41.392,17.0042867 42.523,17.0042867 C45.234,17.0042867 48.281,19.2962867 48.9,23.0622867 C51.069,23.3442867 52.936,24.6392867 53.896,26.5822867 L52.104,27.4692867 C51.34,25.9252867 49.806,25.0042867 48,25.0042867 C47.471,25.0042867 47.033,24.5912867 47.002,24.0632867 C46.807,20.7622867 44.275,19.0042867 42.523,19.0042867 C41.55,19.0042867 40.582,19.5742867 39.797,20.6082867 C39.575,20.8992867 39.215,21.0482867 38.852,20.9932867 C38.49,20.9382867 38.187,20.6912867 38.062,20.3482867 C37.327,18.3462867 36.398,16.7892867 35.302,15.7202867 C32.406,12.9172867 27.615,12.1962867 23.379,13.9302867 C19.775,15.4052867 17.891,19.4212867 17.891,22.6262867 C17.891,23.0262867 17.947,23.5032867 17.993,23.8862867 C18.053,24.3862867 17.73,24.8532867 17.24,24.9752867 C15.283,25.4592867 12,26.9372867 12,31.3852867 C12,31.5352867 11.998,31.6852867 12.013,31.8362867 C12.209,35.3122867 15.276,38.0042867 19,38.0042867 L19,38.0042867 Z" id="Amazon-Virtual-Private-Cloud_Icon_48_Squid" fill="#FFFFFF"/>
    </g>
</svg><rect x="91" y="5" width="24" height="16" rx="8" ry="8" fill="#37bb65"/><text x="103" y="14" style="font-family: sans-serif; font-size: 12px; fill: black; text-anchor: middle; dominant-baseline: middle;">2</text><text x="5" y="14" style="font-family: sans-serif; font-size: 14px; fill: black;" dominant-baseline="middle">main</text></g></g></g><g clip-path="url(#bZfHLeenh3wI9VSfrxAJM)"><g transform="matrix(1, 0, 0, 1, 0, 0)" opacity="1"><g><defs><mask id="shape_module.ecs-alb.aws_subnet.main-module.ecs-alb.aws_internet_gateway.gw:1712325753935_clip"><rect x="870.8943443513587" y="320" width="295.35565564864135" height="311.6358895398728" fill="white"/><path d="M 976.5502928595719 529.6333295601364 L 970.8943443513587 531.6358895398728 L 971.9880507904115 525.7364144593953" fill="none" stroke="none"/></mask></defs><g mask="url(#shape_module.ecs-alb.aws_subnet.main-module.ecs-alb.aws_internet_gateway.gw:1712325753935_clip)"><rect x="-100" y="-100" width="295.35565564864135" height="311.6358895398728" fill="transparent" stroke="none"/><path d="M1066.25,420L970.8943443513587,531.6358895398728" fill="none" stroke="#1d1d1d" stroke-width="2" stroke-dasharray="none" stroke-dashoffset="none"/></g><path d="M 976.5502928595719 529.6333295601364 L 970.8943443513587 531.6358895398728 L 971.9880507904115 525.7364144593953" fill="none" stroke="#1d1d1d" stroke-width="2"/></g></g></g><g clip-path="url(#oBgFr0J1AcCsRpLzHXyo5)"><g transform="matrix(1, 0, 0, 1, 0, 0)" opacity="1"><g><defs><mask id="shape_module.ecs-alb.aws_subnet.main-module.ecs-alb.aws_autoscaling_group.app:1712325753935_clip"><rect x="606.9439914804797" y="320" width="558.3337862972982" height="611.7026480862575" fill="white"/><path d="M 712.6183068958205 829.7527392249965 L 706.9439914804797 831.7026480862575 L 708.0924785792337 825.8135923568561" fill="none" stroke="none"/></mask></defs><g mask="url(#shape_module.ecs-alb.aws_subnet.main-module.ecs-alb.aws_autoscaling_group.app:1712325753935_clip)"><rect x="-100" y="-100" width="558.3337862972982" height="611.7026480862575" fill="transparent" stroke="none"/><path d="M1065.2777777777778,420L706.9439914804797,831.7026480862575" fill="none" stroke="#1d1d1d" stroke-width="2" stroke-dasharray="none" stroke-dashoffset="none"/></g><path d="M 712.6183068958205 829.7527392249965 L 706.9439914804797 831.7026480862575 L 708.0924785792337 825.8135923568561" fill="none" stroke="#1d1d1d" stroke-width="2"/></g></g></g><g clip-path="url(#bY1GhuH3hlVwOZDoXig7T)"><g transform="matrix(1, 0, 0, 1, 830, 60)" opacity="1"><g><rect width="120" height="120" rx="4" fill="white" stroke="black" stroke-width="2"/><text x="5" y="28" style="font-family: sans-serif; font-size: 10px; fill: #504758;" dominant-baseline="middle">Vpc</text><clipPath id="clip-round-corners-pktsx63wp"><rect x="0" y="0" width="64" height="64" rx="4" ry="4"/></clipPath><svg width="58" height="58" viewBox="0 0 64 64" version="1.1" xmlns="http://www.w3.org/2000/svg" xmlns:xlink="http://www.w3.org/1999/xlink" x="31" y="48" clip-path="url(#clip-round-corners-pktsx63wp)">
    <title>Icon-Architecture/48/Arch_Amazon-Virtual-Private-Cloud_48</title>
    <g id="Icon-Architecture/48/Arch_Amazon-Virtual-Private-Cloud_48" stroke="none" stroke-width="1" fill="none" fill-rule="evenodd">
        <g id="Icon-Architecture-BG/48/Networking-Content-Delivery" fill="#8C4FFF">
            <rect id="Rectangle" x="0" y="0" width="64" height="64"/>
        </g>
        <path d="M48,33.9772867 L44.499,32.5082867 L44.499,46.8782867 C47.906,46.1472867 47.998,42.1812867 48,41.9952867 L48,33.9772867 Z M42.499,46.9232867 L42.499,32.5082867 L39,33.9772867 L39,42.0042867 C39.008,42.4662867 39.183,46.3392867 42.499,46.9232867 L42.499,46.9232867 Z M43.112,30.0822867 C43.358,29.9772867 43.638,29.9782867 43.886,30.0812867 L49.387,32.3902867 C49.759,32.5462867 50,32.9092867 50,33.3122867 L50,42.0042867 C49.978,44.4312867 48.562,49.0042867 43.37,49.0042867 C38.393,49.0042867 37.026,44.4322867 37,42.0152867 L37,33.3122867 C37,32.9092867 37.241,32.5462867 37.613,32.3902867 L43.112,30.0822867 Z M52,30.7922867 L43.492,27.0922867 L34.9998912,30.6682867 L34.9998912,41.0252867 C34.999,41.0902867 34.963,46.0092867 37.807,48.8942867 C39.187,50.2942867 41.059,51.0042867 43.37,51.0042867 C51.808,51.0042867 51.996,41.4252867 52,41.0182867 L52,30.7922867 Z M54,30.1362867 L54,41.0252867 C53.973,45.1732867 51.716,53.0042867 43.37,53.0042867 C40.498,53.0042867 38.145,52.0902867 36.373,50.2882867 C32.941,46.7972867 32.996,41.2432867 33,41.0082867 L33,30.0042867 C33,29.6022867 33.241,29.2382867 33.612,29.0822867 L43.111,25.0822867 C43.363,24.9762867 43.647,24.9782867 43.897,25.0872867 L53.398,29.2192867 C53.764,29.3782867 54,29.7382867 54,30.1362867 L54,30.1362867 Z M19,38.0042867 L30,38.0042867 L30,40.0042867 L19,40.0042867 C14.216,40.0042867 10.271,36.4832867 10.02,31.9882867 C10.002,31.8132867 10,31.5992867 10,31.3852867 C10,26.0862867 13.654,24.0382867 15.919,23.2782867 C15.902,23.0632867 15.891,22.8432867 15.891,22.6262867 C15.891,18.0392867 18.658,13.7012867 22.621,12.0792867 C27.58,10.0492867 33.235,10.9372867 36.695,14.2852867 C37.718,15.2822867 38.604,16.5962867 39.343,18.2062867 C40.299,17.4222867 41.392,17.0042867 42.523,17.0042867 C45.234,17.0042867 48.281,19.2962867 48.9,23.0622867 C51.069,23.3442867 52.936,24.6392867 53.896,26.5822867 L52.104,27.4692867 C51.34,25.9252867 49.806,25.0042867 48,25.0042867 C47.471,25.0042867 47.033,24.5912867 47.002,24.0632867 C46.807,20.7622867 44.275,19.0042867 42.523,19.0042867 C41.55,19.0042867 40.582,19.5742867 39.797,20.6082867 C39.575,20.8992867 39.215,21.0482867 38.852,20.9932867 C38.49,20.9382867 38.187,20.6912867 38.062,20.3482867 C37.327,18.3462867 36.398,16.7892867 35.302,15.7202867 C32.406,12.9172867 27.615,12.1962867 23.379,13.9302867 C19.775,15.4052867 17.891,19.4212867 17.891,22.6262867 C17.891,23.0262867 17.947,23.5032867 17.993,23.8862867 C18.053,24.3862867 17.73,24.8532867 17.24,24.9752867 C15.283,25.4592867 12,26.9372867 12,31.3852867 C12,31.5352867 11.998,31.6852867 12.013,31.8362867 C12.209,35.3122867 15.276,38.0042867 19,38.0042867 L19,38.0042867 Z" id="Amazon-Virtual-Private-Cloud_Icon_48_Squid" fill="#FFFFFF"/>
    </g>
</svg><rect x="91" y="5" width="24" height="16" rx="8" ry="8" fill="#37bb65"/><text x="103" y="14" style="font-family: sans-serif; font-size: 12px; fill: black; text-anchor: middle; dominant-baseline: middle;">1</text><text x="5" y="14" style="font-family: sans-serif; font-size: 14px; fill: black;" dominant-baseline="middle">main</text></g></g></g><g clip-path="url(#tZSAHpyK2ifQIH_BkHvpD)"><g transform="matrix(1, 0, 0, 1, 0, 0)" opacity="1"><g><defs><mask id="shape_module.ecs-alb.aws_vpc.main-module.ecs-alb.aws_internet_gateway.gw:1712325753935_clip"><rect x="792.8125" y="80" width="216.35994055071558" height="549.0120650819318" fill="white"/><path d="M 911.9258475824399 523.6811411734849 L 909.1724405507156 529.0120650819318 L 905.9324285362209 523.9620826912764" fill="none" stroke="none"/></mask></defs><g mask="url(#shape_module.ecs-alb.aws_vpc.main-module.ecs-alb.aws_internet_gateway.gw:1712325753935_clip)"><rect x="-100" y="-100" width="216.35994055071558" height="549.0120650819318" fill="transparent" stroke="none"/><path d="M892.8125,180L909.1724405507156,529.0120650819318" fill="none" stroke="#1d1d1d" stroke-width="2" stroke-dasharray="none" stroke-dashoffset="none"/></g><path d="M 911.9258475824399 523.6811411734849 L 909.1724405507156 529.0120650819318 L 905.9324285362209 523.9620826912764" fill="none" stroke="#1d1d1d" stroke-width="2"/></g></g></g><g clip-path="url(#wUyftme-Op7ilm71lYhn8)"><g transform="matrix(1, 0, 0, 1, 0, 0)" opacity="1"><g><defs><mask id="shape_module.ecs-alb.aws_vpc.main-module.ecs-alb.aws_security_group.lb_sg:1712325753935_clip"><rect x="786.4791169505002" y="80" width="202.27088304949984" height="309.0023863759908" fill="white"/><path d="M 889.5866958113595 283.8698476646375 L 886.4791169505002 289.0023863759908 L 883.5879974709908 283.7448747825465" fill="none" stroke="none"/></mask></defs><g mask="url(#shape_module.ecs-alb.aws_vpc.main-module.ecs-alb.aws_security_group.lb_sg:1712325753935_clip)"><rect x="-100" y="-100" width="202.27088304949984" height="309.0023863759908" fill="transparent" stroke="none"/><path d="M888.75,180L886.4791169505002,289.0023863759908" fill="none" stroke="#1d1d1d" stroke-width="2" stroke-dasharray="none" stroke-dashoffset="none"/></g><path d="M 889.5866958113595 283.8698476646375 L 886.4791169505002 289.0023863759908 L 883.5879974709908 283.7448747825465" fill="none" stroke="#1d1d1d" stroke-width="2"/></g></g></g><g clip-path="url(#at2EQc1x5Z1H8dEKCupqE)"><g transform="matrix(1, 0, 0, 1, 0, 0)" opacity="1"><g><defs><mask id="shape_module.ecs-alb.aws_vpc.main-module.ecs-alb.aws_subnet.main:1712325753935_clip"><rect x="846.875" y="80" width="306.1825025799178" height="312.0167060183749" fill="white"/><path d="M 1051.660049115526 286.18171468891614 L 1053.0575025799178 292.0167060183749 L 1047.3055251255487 290.30944055441546" fill="none" stroke="none"/></mask></defs><g mask="url(#shape_module.ecs-alb.aws_vpc.main-module.ecs-alb.aws_subnet.main:1712325753935_clip)"><rect x="-100" y="-100" width="306.1825025799178" height="312.0167060183749" fill="transparent" stroke="none"/><path d="M946.875,180L1053.0575025799178,292.0167060183749" fill="none" stroke="#1d1d1d" stroke-width="2" stroke-dasharray="none" stroke-dashoffset="none"/></g><path d="M 1051.660049115526 286.18171468891614 L 1053.0575025799178 292.0167060183749 L 1047.3055251255487 290.30944055441546" fill="none" stroke="#1d1d1d" stroke-width="2"/></g></g></g></svg>